<?xml version="1.0" encoding="utf-8"?>
<!-- Generator: Adobe Illustrator 16.0.0, SVG Export Plug-In . SVG Version: 6.00 Build 0)  -->
<!DOCTYPE svg PUBLIC "-//W3C//DTD SVG 1.1//EN" "http://www.w3.org/Graphics/SVG/1.1/DTD/svg11.dtd">
<svg version="1.1" id="Layer_1" xmlns="http://www.w3.org/2000/svg" xmlns:xlink="http://www.w3.org/1999/xlink" x="0px" y="0px"
	 width="100px" height="99.965px" viewBox="0 0 100 99.965" enable-background="new 0 0 100 99.965" xml:space="preserve">
<g id="Layer_17" display="none">
	<path display="inline" fill="#8D9498" d="M38.527,0H7.29C3.27,0,0,3.271,0,7.29v18.743c0,4.02,3.27,7.29,7.29,7.29h31.238
		c4.021,0,7.291-3.27,7.291-7.29V7.29C45.818,3.271,42.548,0,38.527,0z"/>
	<path display="inline" fill="#8D9498" d="M38.527,41.653H7.29c-4.02,0-7.29,3.27-7.29,7.289v43.734c0,4.021,3.27,7.29,7.29,7.29
		h31.238c4.021,0,7.291-3.27,7.291-7.29V48.942C45.818,44.922,42.548,41.653,38.527,41.653z"/>
	<path display="inline" fill="#8D9498" d="M92.677,66.643H61.438c-4.021,0-7.289,3.271-7.289,7.29v18.743
		c0,4.021,3.27,7.29,7.289,7.29h31.239c4.019,0,7.286-3.27,7.286-7.29V73.932C99.963,69.913,96.693,66.643,92.677,66.643z"/>
	<path display="inline" fill="#8D9498" d="M92.677,0H61.438c-4.021,0-7.289,3.271-7.289,7.29v43.735c0,4.02,3.27,7.288,7.289,7.288
		h31.239c4.019,0,7.286-3.27,7.286-7.288V7.29C99.963,3.271,96.693,0,92.677,0z"/>
</g>
<g id="Layer_17_1_">
	<path fill="#0032A0" d="M38.527,0H7.29C3.27,0,0,3.271,0,7.29v18.743c0,4.02,3.27,7.29,7.29,7.29h31.238
		c4.021,0,7.291-3.27,7.291-7.29V7.29C45.818,3.271,42.548,0,38.527,0z"/>
	<path fill="#0032A0" d="M38.527,41.653H7.29c-4.02,0-7.29,3.27-7.29,7.289v43.734c0,4.021,3.27,7.29,7.29,7.29h31.238
		c4.021,0,7.291-3.27,7.291-7.29V48.942C45.818,44.922,42.548,41.653,38.527,41.653z"/>
	<path fill="#0032A0" d="M92.677,66.643H61.438c-4.021,0-7.289,3.271-7.289,7.29v18.743c0,4.021,3.27,7.29,7.289,7.29h31.239
		c4.019,0,7.286-3.27,7.286-7.29V73.932C99.963,69.913,96.693,66.643,92.677,66.643z"/>
	<path fill="#0032A0" d="M92.677,0H61.438c-4.021,0-7.289,3.271-7.289,7.29v43.735c0,4.02,3.27,7.288,7.289,7.288h31.239
		c4.019,0,7.286-3.27,7.286-7.288V7.29C99.963,3.271,96.693,0,92.677,0z"/>
</g>
</svg>
