<?xml version="1.0" encoding="utf-8"?>
<!-- Generator: Adobe Illustrator 16.0.0, SVG Export Plug-In . SVG Version: 6.00 Build 0)  -->
<!DOCTYPE svg PUBLIC "-//W3C//DTD SVG 1.1//EN" "http://www.w3.org/Graphics/SVG/1.1/DTD/svg11.dtd">
<svg version="1.1" id="Layer_1" xmlns="http://www.w3.org/2000/svg" xmlns:xlink="http://www.w3.org/1999/xlink" x="0px" y="0px"
	 width="60px" height="60px" viewBox="0 0 60 60" enable-background="new 0 0 60 60" xml:space="preserve">
<g id="Page-1">
	<g id="_x30_86---Desktop-Calendar" transform="translate(0 -1)">
		<path id="Shape" fill="#F19C22" d="M52.309,57.909h4.96c0.617,0.002,1.205-0.264,1.611-0.729s0.59-1.084,0.504-1.696
			l-6.062-42.189L52.309,57.909z"/>
		<path id="Rectangle-path" fill="#EFC41C" d="M3.637,6.196h46.642c1.682,0,3.043,1.362,3.043,3.042v48.671
			c0,1.68-1.361,3.042-3.043,3.042H3.637c-1.68,0-3.042-1.362-3.042-3.042V9.238C0.595,7.558,1.958,6.196,3.637,6.196z"/>
		<path id="Shape_1_" fill="#E54D3C" d="M49.268,12.28v6.083H4.651V12.28c0.003-1.118,0.909-2.025,2.028-2.028h40.559
			C48.356,10.255,49.264,11.162,49.268,12.28z"/>
		<path id="Shape_2_" fill="#EDF0F1" d="M49.268,18.364v30.592c-0.001,0.54-0.217,1.058-0.6,1.439l-5.9,5.901
			c-0.383,0.382-0.901,0.599-1.44,0.599H6.679c-1.119-0.003-2.024-0.91-2.028-2.028V18.364H49.268z"/>
		<path id="Shape_3_" display="none" fill="#557681" d="M18.847,45.741c3.359-0.003,6.081-2.726,6.084-6.084v-8.111
			c0-3.36-2.725-6.083-6.084-6.083s-6.084,2.724-6.084,6.083v8.111C12.766,43.016,15.488,45.738,18.847,45.741z M14.791,31.546
			c0-2.24,1.816-4.056,4.056-4.056s4.056,1.816,4.056,4.056v8.111c0,2.24-1.816,4.056-4.056,4.056s-4.056-1.815-4.056-4.056V31.546z
			"/>
		<path id="Shape_4_" display="none" fill="#557681" d="M30.001,43.713c-0.561,0-1.014,0.454-1.014,1.014
			c0,0.562,0.453,1.015,1.014,1.015h8.112c0.56,0,1.013-0.453,1.013-1.015c0-0.56-0.453-1.014-1.013-1.014H35.07V26.476
			c0-0.41-0.247-0.78-0.625-0.937c-0.38-0.157-0.815-0.07-1.105,0.219l-4.056,4.056c-0.384,0.398-0.379,1.03,0.012,1.421
			c0.392,0.392,1.024,0.397,1.422,0.013l2.325-2.325v14.789H30.001z"/>
		<path id="Shape_5_" display="none" fill="#364A5E" d="M38.113,48.783H14.791c-0.56,0-1.014,0.454-1.014,1.014
			s0.454,1.015,1.014,1.015h23.322c0.56,0,1.013-0.455,1.013-1.015S38.673,48.783,38.113,48.783z"/>
		<path id="Shape_6_" fill="#D1D4D1" d="M49.084,49.797c-0.103,0.223-0.243,0.427-0.416,0.599l-5.9,5.901
			c-0.173,0.174-0.377,0.314-0.599,0.417v-4.888c0.002-1.12,0.908-2.025,2.027-2.029H49.084z"/>
		<g>
			<path id="Shape_7_" fill="#95A5A4" d="M24.586,6.196h-2.119c-1.013-2.322-3.586-3.54-6.024-2.851
				c-2.438,0.688-3.994,3.071-3.643,5.581c0.351,2.509,2.5,4.375,5.034,4.369c0.56,0,1.014,0.454,1.014,1.013
				c0,0.561-0.454,1.015-1.014,1.015c-3.61,0-6.646-2.709-7.053-6.296s1.942-6.909,5.46-7.719c3.518-0.81,7.083,1.15,8.286,4.554
				C24.566,5.969,24.586,6.083,24.586,6.196L24.586,6.196z"/>
			<path id="Shape_8_" fill="#95A5A4" d="M43.852,6.196h-2.118c-1.016-2.322-3.586-3.54-6.025-2.851
				c-2.438,0.688-3.994,3.071-3.644,5.581c0.352,2.509,2.501,4.375,5.034,4.369c0.561,0,1.015,0.454,1.015,1.013
				c0,0.561-0.454,1.015-1.015,1.015c-3.611,0-6.646-2.709-7.053-6.296s1.941-6.909,5.459-7.719c3.519-0.81,7.084,1.15,8.286,4.554
				C43.831,5.969,43.853,6.083,43.852,6.196L43.852,6.196z"/>
		</g>
	</g>
</g>
<g>
	<path fill="#010101" d="M16.533,34.854h1.847c1.16-0.017,2.073-0.322,2.737-0.916c0.665-0.594,0.997-1.396,0.997-2.405
		c0-2.267-1.13-3.401-3.388-3.401c-1.063,0-1.911,0.303-2.545,0.91c-0.633,0.606-0.95,1.411-0.95,2.412h-2.458
		c0-1.532,0.56-2.806,1.681-3.82c1.121-1.014,2.544-1.522,4.272-1.522c1.824,0,3.255,0.483,4.291,1.449
		c1.037,0.965,1.555,2.308,1.555,4.026c0,0.841-0.272,1.656-0.817,2.444c-0.545,0.789-1.287,1.378-2.226,1.768
		c1.063,0.337,1.884,0.895,2.465,1.673c0.58,0.78,0.87,1.732,0.87,2.857c0,1.735-0.567,3.113-1.701,4.133
		c-1.133,1.018-2.608,1.526-4.424,1.526c-1.816,0-3.293-0.49-4.432-1.474c-1.138-0.983-1.707-2.281-1.707-3.893h2.471
		c0,1.018,0.332,1.833,0.996,2.444s1.555,0.916,2.671,0.916c1.187,0,2.094-0.311,2.723-0.93s0.943-1.51,0.943-2.67
		c0-1.125-0.345-1.989-1.036-2.592c-0.691-0.602-1.688-0.911-2.99-0.93h-1.847V34.854z"/>
	<path fill="#010101" d="M40.367,37.472c0,2.88-0.49,5.019-1.474,6.419c-0.983,1.398-2.52,2.098-4.61,2.098
		c-2.064,0-3.593-0.684-4.583-2.052c-0.992-1.368-1.506-3.413-1.542-6.132v-3.281c0-2.844,0.492-4.957,1.475-6.338
		c0.983-1.382,2.524-2.073,4.624-2.073c2.082,0,3.614,0.667,4.597,2c0.984,1.333,1.488,3.39,1.514,6.171V37.472z M37.91,34.111
		c0-2.082-0.292-3.598-0.876-4.551c-0.585-0.952-1.511-1.428-2.777-1.428c-1.257,0-2.175,0.474-2.75,1.422
		c-0.576,0.947-0.873,2.404-0.891,4.37v3.933c0,2.091,0.304,3.634,0.91,4.631c0.607,0.997,1.525,1.494,2.757,1.494
		c1.213,0,2.115-0.469,2.703-1.407c0.59-0.939,0.898-2.418,0.924-4.438V34.111z"/>
</g>
<g>
	<path fill="#010101" d="M17,34.854h1.847c1.161-0.017,2.073-0.322,2.737-0.916c0.664-0.594,0.996-1.396,0.996-2.405
		c0-2.267-1.129-3.401-3.388-3.401c-1.063,0-1.911,0.303-2.544,0.91c-0.634,0.606-0.95,1.411-0.95,2.412H13.24
		c0-1.532,0.56-2.806,1.68-3.82c1.121-1.014,2.544-1.522,4.272-1.522c1.825,0,3.255,0.483,4.292,1.449
		c1.036,0.965,1.555,2.308,1.555,4.026c0,0.841-0.273,1.656-0.818,2.444c-0.544,0.789-1.286,1.378-2.225,1.768
		c1.063,0.337,1.885,0.895,2.465,1.673c0.58,0.78,0.871,1.732,0.871,2.857c0,1.735-0.567,3.113-1.701,4.133
		c-1.134,1.018-2.608,1.526-4.424,1.526c-1.816,0-3.293-0.49-4.431-1.474s-1.707-2.281-1.707-3.893h2.471
		c0,1.018,0.332,1.833,0.997,2.444s1.555,0.916,2.67,0.916c1.187,0,2.095-0.311,2.724-0.93c0.628-0.619,0.943-1.51,0.943-2.67
		c0-1.125-0.346-1.989-1.037-2.592c-0.691-0.602-1.688-0.911-2.989-0.93H17V34.854z"/>
	<path fill="#010101" d="M40.835,37.472c0,2.88-0.49,5.019-1.474,6.419c-0.983,1.398-2.52,2.098-4.611,2.098
		c-2.063,0-3.591-0.684-4.583-2.052c-0.992-1.368-1.506-3.413-1.541-6.132v-3.281c0-2.844,0.491-4.957,1.475-6.338
		c0.982-1.382,2.524-2.073,4.624-2.073c2.081,0,3.613,0.667,4.598,2c0.982,1.333,1.487,3.39,1.513,6.171V37.472z M38.378,34.111
		c0-2.082-0.292-3.598-0.877-4.551c-0.584-0.952-1.511-1.428-2.776-1.428c-1.258,0-2.175,0.474-2.751,1.422
		c-0.575,0.947-0.872,2.404-0.891,4.37v3.933c0,2.091,0.304,3.634,0.91,4.631c0.607,0.997,1.526,1.494,2.757,1.494
		c1.214,0,2.114-0.469,2.704-1.407c0.59-0.939,0.897-2.418,0.924-4.438V34.111z"/>
</g>
<g>
	<path fill="#010101" d="M22.877,23.682h-0.92l-1.792-2.938v2.938h-0.919v-4.465h0.919l1.794,2.944v-2.944h0.917V23.682z"/>
	<path fill="#010101" d="M26.368,21.747h-1.767v1.197h2.074v0.739h-2.994v-4.465h2.987v0.745h-2.067v1.065h1.767V21.747z"/>
	<path fill="#010101" d="M28.812,20.756l0.837-1.539h1.059l-1.301,2.214l1.334,2.251h-1.07l-0.859-1.564l-0.859,1.564h-1.07
		l1.334-2.251l-1.301-2.214h1.058L28.812,20.756z"/>
	<path fill="#010101" d="M34.566,19.961h-1.368v3.721h-0.921v-3.721h-1.349v-0.745h3.638V19.961z"/>
</g>
<g>
	<path fill="#010101" d="M18.895,53.712v-4.467h1.374c0.393,0,0.744,0.089,1.054,0.266c0.31,0.178,0.552,0.429,0.726,0.755
		s0.261,0.697,0.261,1.11v0.207c0,0.414-0.085,0.783-0.256,1.106c-0.17,0.323-0.412,0.574-0.722,0.752
		c-0.311,0.178-0.662,0.269-1.052,0.271H18.895z M19.815,49.99v2.982h0.444c0.36,0,0.635-0.118,0.825-0.353
		c0.19-0.235,0.287-0.571,0.292-1.01v-0.236c0-0.454-0.094-0.798-0.282-1.032c-0.188-0.234-0.463-0.352-0.825-0.352H19.815z"/>
	<path fill="#010101" d="M25.434,52.792h-1.613l-0.307,0.92h-0.978l1.662-4.467h0.853l1.671,4.467h-0.979L25.434,52.792z
		 M24.07,52.046h1.117l-0.562-1.672L24.07,52.046z"/>
	<path fill="#010101" d="M28.219,51.257l0.93-2.012h1.006l-1.466,2.847v1.62h-0.936v-1.62l-1.467-2.847h1.01L28.219,51.257z"/>
	<path fill="#010101" d="M32.829,52.539c0-0.173-0.061-0.307-0.184-0.399s-0.344-0.192-0.663-0.295
		c-0.318-0.104-0.571-0.205-0.757-0.305c-0.508-0.274-0.761-0.644-0.761-1.107c0-0.241,0.067-0.456,0.204-0.646
		c0.136-0.19,0.331-0.337,0.585-0.443c0.255-0.105,0.541-0.16,0.857-0.16c0.319,0,0.604,0.058,0.853,0.174
		c0.25,0.115,0.443,0.279,0.581,0.489c0.139,0.21,0.208,0.45,0.208,0.718h-0.92c0-0.205-0.064-0.363-0.194-0.477
		c-0.128-0.113-0.31-0.17-0.543-0.17c-0.224,0-0.399,0.047-0.523,0.142c-0.125,0.096-0.188,0.221-0.188,0.376
		c0,0.146,0.073,0.268,0.22,0.364c0.146,0.1,0.361,0.191,0.646,0.277c0.523,0.157,0.904,0.352,1.144,0.585s0.359,0.523,0.359,0.871
		c0,0.387-0.147,0.689-0.438,0.91c-0.294,0.219-0.687,0.33-1.181,0.33c-0.344,0-0.657-0.063-0.939-0.189
		c-0.281-0.125-0.497-0.298-0.646-0.517c-0.147-0.219-0.222-0.473-0.222-0.761h0.923c0,0.493,0.294,0.739,0.884,0.739
		c0.219,0,0.389-0.045,0.512-0.133C32.769,52.823,32.829,52.699,32.829,52.539z"/>
</g>
</svg>
