<?xml version="1.0" encoding="utf-8"?>
<!-- Generator: Adobe Illustrator 16.0.0, SVG Export Plug-In . SVG Version: 6.00 Build 0)  -->
<!DOCTYPE svg PUBLIC "-//W3C//DTD SVG 1.1//EN" "http://www.w3.org/Graphics/SVG/1.1/DTD/svg11.dtd">
<svg version="1.1" id="Layer_1" xmlns="http://www.w3.org/2000/svg" xmlns:xlink="http://www.w3.org/1999/xlink" x="0px" y="0px"
	 width="100px" height="100px" viewBox="0 0 100 100" enable-background="new 0 0 100 100" xml:space="preserve">
<g id="Layer_11">
	<path fill="#8D9498" d="M46.829,89.791c-3.218-0.004-6.035-2.16-6.877-5.268c-0.029-0.107-0.029-0.215-0.051-0.322l-19.596-10.59
		c-0.531-0.305-1.132-0.463-1.743-0.461c-0.229,0-0.457,0.021-0.682,0.063c-0.308,0.055-0.608,0.15-0.889,0.289
		c-0.64,0.305-1.173,0.795-1.528,1.41c-0.31,0.541-0.474,1.152-0.477,1.777c-0.009,1.272,0.667,2.453,1.769,3.088l32.431,19.406
		c0.85,0.53,1.833,0.813,2.833,0.813h25.063c0.67,0,1.332-0.127,1.957-0.373l6.53-2.58V77.883l-6.358-3.809
		c-0.828-0.496-1.774-0.76-2.741-0.76h-6.818c-1.086,0-2.166,0.145-3.215,0.425l-20.535,5.493c-1.441,0.397-2.484,1.647-2.62,3.139
		v0.582c0.012,0.223,0.046,0.441,0.103,0.656c0.423,1.553,1.834,2.625,3.442,2.621c0.216-0.019,1.263-0.23,2.074-0.418l18.421-4.931
		l0.918,3.438L49.76,89.266C48.799,89.523,47.819,89.699,46.829,89.791z"/>
	<path fill="#8D9498" d="M89.131,71.539h10.672V100H89.131V71.539z"/>
	<path fill="#8D9498" d="M0.186,0.382h10.673v32.02H0.186V0.382z"/>
	<path fill="#8D9498" d="M20.487,28.375c2.428,1.612,5.25,2.532,8.161,2.661V22.44c-1.314-0.479-2.542-1.169-3.636-2.042
		l-1.042-0.845l2.241-2.764l1.032,0.835c3.525,2.818,8.55,2.743,11.99-0.177l1.245-1.067l10.495,10.495
		c1.396,1.39,3.654,1.386,5.045-0.01c1.393-1.396,1.387-3.655-0.01-5.045L43.454,9.253l2.515-2.515l4.318,4.317h14.678l-7.025-7.027
		c-2.33-2.342-5.502-3.656-8.806-3.646H26.769c-0.828,0-1.644,0.193-2.385,0.563l-3.989,1.994c-1.333,0.665-2.812,0.985-4.301,0.932
		l-1.677-0.06v23.253h4.091L20.487,28.375z"/>
	<path fill="#8D9498" d="M32.206,23.187V53.75h67.597V14.614H53.844l3.559,3.558h29.949v1.779c0,3.93,3.188,7.116,7.115,7.116h1.779
		v14.231h-1.779c-3.93,0-7.115,3.186-7.115,7.116v1.777H44.658v-1.779c0-3.93-3.186-7.116-7.116-7.116h-1.779V27.065h1.779
		c2.255-0.002,4.375-1.075,5.712-2.891l-3.035-3.035C37.844,22.681,35.029,23.399,32.206,23.187z"/>
	<path fill="#8D9498" d="M53.502,31.458c-1.883,0.004-3.69-0.737-5.026-2.062l-2.684-2.687c-1.628,1.999-3.928,3.338-6.47,3.766
		v7.411c4.476,0.765,7.981,4.271,8.747,8.746h35.875c0.767-4.476,4.271-7.981,8.746-8.746v-7.411
		c-4.476-0.765-7.979-4.271-8.746-8.747H60.119c0.852,2.098,0.635,4.478-0.582,6.386c3.262-3.456,8.666-3.735,12.268-0.634
		c3.604,3.101,4.131,8.485,1.199,12.227c-2.93,3.742-8.285,4.518-12.158,1.761c-3.871-2.755-4.893-8.068-2.32-12.064
		C57.186,30.722,55.381,31.458,53.502,31.458z"/>
	<path fill="#8D9498" d="M71.342,34.182c0,2.947-2.391,5.337-5.338,5.337s-5.336-2.39-5.336-5.337c0-2.947,2.389-5.336,5.336-5.336
		S71.342,31.234,71.342,34.182z"/>
</g>
</svg>
