<?xml version="1.0" encoding="utf-8"?>
<!-- Generator: Adobe Illustrator 16.0.0, SVG Export Plug-In . SVG Version: 6.00 Build 0)  -->
<!DOCTYPE svg PUBLIC "-//W3C//DTD SVG 1.1//EN" "http://www.w3.org/Graphics/SVG/1.1/DTD/svg11.dtd">
<svg version="1.1" xmlns="http://www.w3.org/2000/svg" xmlns:xlink="http://www.w3.org/1999/xlink" x="0px" y="0px" width="60px"
	 height="60px" viewBox="0 0 60 60" enable-background="new 0 0 60 60" xml:space="preserve">
<g id="Layer_1" display="none">
	<g display="inline">
		<path fill="#FFFFFF" d="M54.707,24.758c0.971,0,1.758-0.787,1.758-1.757V8.861c0-4.86-3.949-8.846-8.851-8.846
			c-1.243,0-34.06,0-35.296,0c-4.843,0-8.783,3.94-8.783,8.783v49.398c0,1.573,1.933,2.356,3.026,1.215l2.248-2.348l2.374,2.374
			c0.686,0.687,1.798,0.687,2.484,0l2.25-2.248l2.273,2.254c0.685,0.68,1.789,0.68,2.474,0l2.309-2.289l2.31,2.289
			c0.684,0.68,1.788,0.68,2.473,0.001l2.958-2.928c2.708,2.169,6.14,3.468,9.87,3.468c8.719,0,15.813-7.094,15.813-15.813
			c0-8.144-6.188-14.868-14.11-15.72v-3.694H54.707z M52.95,8.861v12.383H42.286V8.861c0-2.94,2.393-5.332,5.332-5.332
			C50.56,3.529,52.95,5.921,52.95,8.861z M26.521,55.724l-2.311-2.291c-0.685-0.679-1.789-0.679-2.474,0l-2.308,2.289l-2.278-2.259
			c-0.687-0.682-1.795-0.68-2.479,0.005l-2.245,2.244l-2.402-2.402c-0.718-0.719-1.849-0.665-2.512,0.026L7.049,53.82V8.798
			c0-2.905,2.363-5.269,5.269-5.269h28.248c-1.124,1.484-1.792,3.331-1.792,5.332v19.604C26.441,29.877,20.513,44.38,28.231,54.031
			L26.521,55.724z M52.882,44.172c0,6.782-5.518,12.299-12.298,12.299c-6.782,0-12.299-5.517-12.299-12.299
			c0-6.78,5.517-12.298,12.299-12.298C47.364,31.874,52.882,37.392,52.882,44.172z"/>
		<path fill="#FFFFFF" d="M39.412,39.295v3.589h-3.556c-0.971,0-1.757,0.787-1.757,1.757c0,0.971,0.786,1.757,1.757,1.757h5.313
			c0.971,0,1.758-0.786,1.758-1.757v-5.346c0-0.97-0.787-1.757-1.758-1.757C40.199,37.538,39.412,38.325,39.412,39.295z"/>
		<path fill="#FFFFFF" d="M26.1,16.008c-1.681-1.31-3.874-1.513-4.363-2.397c-0.173-0.313,0.011-0.827,0.386-1.079
			c0.534-0.359,1.676-0.217,2.078,0.153c0.713,0.658,1.825,0.613,2.482-0.101c0.658-0.713,0.613-1.825-0.1-2.482
			c-0.545-0.503-1.238-0.863-1.986-1.073V8.884c0-0.97-0.787-1.756-1.757-1.756c-0.97,0-1.756,0.786-1.756,1.756v0.263
			c-2.554,0.957-3.651,3.943-2.42,6.166c0.863,1.558,2.376,2.155,3.592,2.635c0.963,0.38,2.381,0.902,2.264,1.954
			c-0.056,0.501-0.436,0.999-0.944,1.238c-0.726,0.341-2.184,0.13-3.06-0.442c-0.812-0.531-1.901-0.304-2.432,0.508
			s-0.303,1.901,0.508,2.432c0.683,0.447,1.556,0.807,2.492,1.007v0.224c0,0.971,0.787,1.757,1.756,1.757
			c0.971,0,1.757-0.787,1.757-1.757v-0.358C28.142,23.282,29.444,18.613,26.1,16.008z"/>
		<path fill="#FFFFFF" d="M21.215,30.009h-8.785c-0.97,0-1.757,0.787-1.757,1.756c0,0.971,0.787,1.758,1.757,1.758h8.785
			c0.97,0,1.757-0.787,1.757-1.758C22.972,30.796,22.186,30.009,21.215,30.009z"/>
		<path fill="#FFFFFF" d="M21.215,37.049h-8.79c-0.971,0-1.757,0.787-1.757,1.757s0.787,1.757,1.757,1.757h8.79
			c0.97,0,1.757-0.787,1.757-1.757S22.186,37.049,21.215,37.049z"/>
		<path fill="#FFFFFF" d="M21.215,44.064h-8.796c-0.971,0-1.757,0.787-1.757,1.757c0,0.971,0.787,1.758,1.757,1.758h8.796
			c0.97,0,1.757-0.787,1.757-1.758C22.972,44.852,22.186,44.064,21.215,44.064z"/>
	</g>
</g>
<g id="Layer_2" display="none">
	<path display="inline" fill="#FFFFFF" d="M46.056,10.07c0.026,0.002,0.052,0.004,0.079,0.004c0.044,0,0.089-0.004,0.133-0.01
		c1.175,0.024,2.115,0.982,2.116,2.156c0,0.534,0.433,0.967,0.967,0.967c0.533,0,0.966-0.433,0.966-0.967
		c-0.002-1.921-1.34-3.583-3.216-3.996V7.296c0-0.534-0.433-0.966-0.966-0.966c-0.534,0-0.967,0.433-0.967,0.966v0.973
		c-1.983,0.53-3.268,2.449-3,4.485c0.268,2.037,2.003,3.559,4.057,3.559c1.192,0,2.159,0.967,2.159,2.159s-0.967,2.159-2.159,2.159
		s-2.158-0.967-2.158-2.159c0-0.534-0.433-0.966-0.967-0.966c-0.533,0-0.966,0.433-0.966,0.966c0.002,1.852,1.246,3.472,3.034,3.953
		v1.059c0,0.534,0.433,0.966,0.967,0.966c0.533,0,0.966-0.433,0.966-0.966v-1.015c2.041-0.447,3.418-2.36,3.192-4.437
		c-0.225-2.077-1.979-3.651-4.068-3.651c-1.159,0-2.111-0.915-2.157-2.074C44.021,11.149,44.899,10.161,46.056,10.07L46.056,10.07z"
		/>
	<path display="inline" fill="#FFFFFF" d="M46.28,1.604c-5.945,0-11.02,3.879-12.92,9.074H9.374c-0.531,0-0.962,0.479-0.966,1.01
		L8.18,45.591H1.342c-0.534,0-0.992,0.385-0.992,0.92v4.303c0.012,4.051,3.202,7.377,7.248,7.561v0.021h29.838v-0.029
		c0.241,0.01,0.341,0.029,0.494,0.029h0.021c4.188-0.008,7.579-3.404,7.579-7.592V29.052c0.242,0.013,0.497,0.021,0.747,0.021
		C53.844,29.073,60,22.904,60,15.338S53.847,1.604,46.28,1.604z M7.966,56.462H7.96c-3.126-0.004-5.663-2.531-5.677-5.658v-3.281
		H30.31v3.268c0.001,2.016,0.807,3.949,2.237,5.371c0.102,0.102,0.228,0.18,0.334,0.301H7.966z M43.598,50.804
		c0,3.121-2.526,5.652-5.647,5.658h-0.018c-3.134-0.006-5.675-2.539-5.69-5.672v-4.279c0.008-0.246-0.086-0.486-0.262-0.66
		c-0.175-0.176-0.414-0.27-0.661-0.26H10.112l0.222-32.979h22.49c-0.172,0.885-0.261,1.783-0.265,2.684
		c-0.002,1.905,0.396,3.789,1.166,5.53h-9.128c-0.534,0-0.967,0.433-0.967,0.966s0.433,0.966,0.967,0.966h10.177
		c1.993,3.135,5.181,5.321,8.823,6.053V50.804z M46.28,27.141c-6.51,0-11.788-5.278-11.788-11.789
		c0-6.51,5.278-11.788,11.788-11.788c6.511,0,11.788,5.278,11.788,11.788C58.062,21.859,52.788,27.133,46.28,27.141z"/>
	<path display="inline" fill="#FFFFFF" d="M18.395,27.257c-1.706,0-3.094,1.344-3.094,2.995c0,1.651,1.388,2.995,3.094,2.995
		s3.094-1.344,3.094-2.995C21.488,28.601,20.101,27.257,18.395,27.257z M18.395,31.315c-0.641,0-1.16-0.478-1.16-1.063
		c0-0.586,0.521-1.062,1.16-1.062s1.16,0.477,1.16,1.062S19.034,31.315,18.395,31.315z"/>
	<path display="inline" fill="#FFFFFF" d="M23.631,30.248c0,0.534,0.433,0.967,0.967,0.967h12.885c0.533,0,0.966-0.433,0.966-0.967
		c0-0.534-0.433-0.966-0.966-0.966H24.598C24.063,29.282,23.631,29.714,23.631,30.248z"/>
	<path display="inline" fill="#FFFFFF" d="M18.395,18.856c-1.706,0-3.094,1.344-3.094,2.996c0,1.651,1.388,2.995,3.094,2.995
		s3.094-1.344,3.094-2.995C21.488,20.2,20.101,18.856,18.395,18.856z M18.395,22.914c-0.641,0-1.16-0.477-1.16-1.062
		s0.521-1.063,1.16-1.063s1.16,0.477,1.16,1.063C19.555,22.438,19.034,22.915,18.395,22.914L18.395,22.914z"/>
	<path display="inline" fill="#FFFFFF" d="M18.395,35.657c-1.706,0-3.094,1.344-3.094,2.996c0,1.65,1.388,2.994,3.094,2.994
		s3.094-1.344,3.094-2.994C21.488,37.001,20.101,35.657,18.395,35.657z M18.395,39.714c-0.641,0-1.16-0.475-1.16-1.061
		s0.521-1.063,1.16-1.063s1.16,0.477,1.16,1.063C19.555,39.237,19.034,39.714,18.395,39.714z"/>
	<path display="inline" fill="#FFFFFF" d="M37.482,37.737H24.598c-0.534,0-0.967,0.434-0.967,0.967s0.433,0.967,0.967,0.967h12.885
		c0.533,0,0.966-0.434,0.966-0.967S38.016,37.737,37.482,37.737z"/>
</g>
<g id="Layer_3" display="none">
	<path display="inline" fill-rule="evenodd" clip-rule="evenodd" fill="#FFFFFF" d="M31.978,28.861
		c0.298,0.669,0.564,1.339,0.693,2.057c0.067,0.382,0.069,0.386-0.316,0.365c-1.29-0.066-2.503-0.46-3.703-0.899
		c-0.451-0.165-0.899-0.336-1.357-0.48c2.015,1.402,4.146,2.507,6.653,2.706c1.671,0.133,3.32-0.088,4.976-0.236
		c0.658-0.059,1.317-0.16,1.974-0.148c1.146,0.021,2.263,0.645,2.535,1.906c0.207,0.97-0.112,1.777-0.804,2.455
		c-0.618,0.605-1.402,0.838-2.229,0.972c-1.497,0.244-3.013,0.358-4.514,0.225c-3.162-0.279-6.202,0.187-9.194,1.188
		c-1.48,0.495-2.995,0.887-4.554,1.07c-2.338,0.272-4.466-0.2-6.29-1.756c-0.138-0.119-0.274-0.159-0.448-0.155
		c-0.363,0.01-0.727-0.011-1.09,0.009c-0.225,0.011-0.274-0.066-0.271-0.28c0.013-0.693,0.005-1.387,0.005-2.081
		c0-2.997,0.004-5.994-0.006-8.99c-0.001-0.271,0.064-0.338,0.338-0.353c2.84-0.151,5.651-0.55,8.445-1.074
		c1.568-0.294,3.126-0.645,4.701-0.889c2.252-0.35,4.404,0.035,6.438,1.067c1.491,0.756,2.942,1.583,4.388,2.423
		c0.165,0.097,0.205,0.167,0.103,0.352c-0.583,1.059-1.152,2.126-1.722,3.194c-0.073,0.138-0.163,0.211-0.318,0.248
		c-0.848,0.205-1.703,0.187-2.563,0.104c-0.181-0.018-0.195-0.137-0.229-0.268C33.331,30.527,32.8,29.606,31.978,28.861z"/>
	<path display="inline" fill-rule="evenodd" clip-rule="evenodd" fill="#FFFFFF" d="M10.219,32.501c0,2.567-0.005,5.136,0.006,7.702
		c0.001,0.265-0.072,0.323-0.328,0.323c-3.075-0.01-6.149-0.01-9.223,0c-0.252,0-0.33-0.053-0.329-0.321
		c0.009-5.124,0.009-10.247,0-15.371c0-0.27,0.081-0.315,0.328-0.314c3.063,0.008,6.126,0.011,9.189-0.003
		c0.318-0.002,0.363,0.1,0.363,0.382C10.214,27.433,10.219,29.967,10.219,32.501z"/>
	<path display="inline" fill-rule="evenodd" clip-rule="evenodd" fill="#FFFFFF" d="M37.095,38.491
		c1.339,0.007,2.605-0.098,3.921-0.352c-0.467,0.826-0.905,1.599-1.342,2.373c-0.087,0.154-0.168,0.31-0.262,0.458
		c-0.143,0.226-0.125,0.429,0.106,0.566c0.256,0.154,0.435,0.025,0.563-0.209c0.247-0.442,0.495-0.882,0.744-1.323
		c0.376-0.672,0.751-1.345,1.127-2.016c0.059-0.106,0.114-0.203,0.23-0.268c1.28-0.702,1.991-1.761,2.018-3.278
		c1.001,0.609,2.055,0.815,3.179,0.512c0.822-0.222,1.5-0.677,2.021-1.353c1.046-1.352,1.066-3.261,0.056-4.649
		c-1.014-1.392-2.795-1.932-4.409-1.352c-1.435,0.516-2.826,2.102-2.504,4.369c-0.665-0.323-1.341-0.505-2.122-0.41
		c0.324-0.567,0.619-1.08,0.909-1.593c1.954-3.456,3.91-6.911,5.855-10.373c0.131-0.234,0.224-0.256,0.466-0.153
		c1.083,0.466,2.32,0.108,3.021-0.866c0.128-0.179,0.206-0.214,0.406-0.098c1.238,0.715,2.482,1.419,3.731,2.116
		c0.191,0.106,0.26,0.181,0.155,0.417c-0.485,1.104-0.135,2.343,0.856,3.047c0.182,0.13,0.201,0.208,0.09,0.403
		c-3.487,6.154-6.966,12.312-10.441,18.47c-0.081,0.147-0.134,0.2-0.317,0.117c-1.177-0.525-2.386-0.198-3.124,0.841
		c-0.117,0.165-0.192,0.18-0.362,0.083c-1.27-0.727-2.542-1.445-3.815-2.165c-0.125-0.07-0.24-0.098-0.145-0.311
		c0.473-1.057,0.28-2.014-0.496-2.861C37.182,38.603,37.157,38.569,37.095,38.491z"/>
	<path display="inline" fill-rule="evenodd" clip-rule="evenodd" fill="#FFFFFF" d="M37.726,31.844
		c0.669-1.19,1.297-2.312,1.93-3.43c2.646-4.683,5.296-9.362,7.937-14.049c0.131-0.234,0.225-0.235,0.44-0.113
		c3.999,2.266,8.003,4.525,12.01,6.777c0.224,0.126,0.243,0.212,0.115,0.439c-5.02,8.875-10.032,17.754-15.038,26.636
		c-0.125,0.225-0.213,0.218-0.413,0.104c-4.007-2.272-8.018-4.541-12.034-6.8c-0.247-0.139-0.256-0.234-0.119-0.463
		c0.452-0.755,0.884-1.521,1.311-2.292c0.092-0.166,0.189-0.237,0.385-0.218c0.314,0.03,0.632,0.032,0.991,0.047
		c-0.405,0.719-0.78,1.412-1.187,2.086c-0.14,0.233-0.085,0.317,0.129,0.437c3.364,1.891,6.728,3.787,10.084,5.688
		c0.197,0.111,0.282,0.136,0.414-0.101c4.655-8.26,9.32-16.513,13.989-24.765c0.101-0.179,0.1-0.264-0.095-0.373
		c-3.401-1.915-6.801-3.836-10.192-5.765c-0.218-0.124-0.254,0.006-0.328,0.138c-1.659,2.941-3.318,5.882-4.979,8.822
		c-1.276,2.26-2.56,4.516-3.831,6.779c-0.099,0.178-0.213,0.241-0.406,0.258C38.487,31.719,38.142,31.783,37.726,31.844z"/>
	<path display="inline" fill-rule="evenodd" clip-rule="evenodd" fill="#FFFFFF" d="M10.896,32.536c0-2.224,0.005-4.449-0.006-6.672
		c-0.001-0.257,0.059-0.339,0.325-0.33c0.627,0.021,1.255,0.015,1.882,0.001c0.204-0.004,0.26,0.052,0.26,0.257
		c-0.006,4.481-0.006,8.961,0,13.444c0,0.212-0.052,0.285-0.273,0.279c-0.627-0.015-1.255-0.017-1.882,0
		c-0.245,0.008-0.313-0.053-0.313-0.307C10.901,36.984,10.896,34.76,10.896,32.536z"/>
	<path display="inline" fill-rule="evenodd" clip-rule="evenodd" fill="#FFFFFF" d="M44.806,30.135
		c0.364,0.207,0.71,0.399,1.051,0.6c0.11,0.065,0.185,0.058,0.285-0.029c0.164-0.146,0.34-0.281,0.525-0.395
		c0.45-0.274,0.899-0.261,1.326,0.056c0.415,0.308,0.492,0.732,0.4,1.208c-0.021,0.107-0.039,0.222-0.093,0.314
		c-0.114,0.202-0.062,0.319,0.149,0.391c0.05,0.019,0.093,0.059,0.144,0.081c0.121,0.057,0.114,0.125,0.055,0.235
		c-0.065,0.118-0.134,0.101-0.208,0.035c-0.27-0.239-0.464-0.2-0.657,0.115c-0.131,0.215-0.369,0.344-0.616,0.421
		c-0.215,0.067-0.436,0.078-0.646-0.021c-0.195-0.095-0.36-0.224-0.352-0.47c0.007-0.189,0.117-0.319,0.295-0.35
		c0.228-0.039,0.407,0.078,0.525,0.269c0.068,0.11,0.082,0.248,0.278,0.16c0.224-0.102,0.386-0.255,0.495-0.462
		c0.034-0.063-0.076-0.091-0.13-0.122c-0.325-0.186-0.655-0.361-0.976-0.554c-0.118-0.071-0.183-0.046-0.28,0.038
		c-0.157,0.137-0.327,0.262-0.507,0.367c-0.438,0.255-0.862,0.213-1.257-0.104c-0.386-0.31-0.491-0.712-0.376-1.182
		c0.017-0.075,0.035-0.152,0.069-0.219c0.091-0.172,0.091-0.294-0.123-0.375c-0.103-0.04-0.271-0.078-0.143-0.278
		c0.122-0.195,0.211-0.032,0.286,0.018c0.17,0.113,0.279,0.103,0.392-0.081c0.11-0.179,0.27-0.322,0.455-0.426
		c0.257-0.146,0.524-0.164,0.786-0.015c0.225,0.129,0.305,0.319,0.175,0.555c-0.116,0.215-0.38,0.24-0.601,0.074
		C45.122,29.681,45.111,29.683,44.806,30.135z"/>
	<path display="inline" fill-rule="evenodd" clip-rule="evenodd" fill="#0F0F0F" d="M47.884,26.12
		c-0.007-0.118,0.059-0.21,0.113-0.304c1.033-1.838,2.069-3.674,3.104-5.51c0.176-0.308,0.361-0.392,0.574-0.253
		c0.248,0.162,0.219,0.363,0.087,0.597c-1.051,1.854-2.094,3.711-3.138,5.568c-0.107,0.193-0.248,0.308-0.48,0.243
		C47.974,26.413,47.897,26.29,47.884,26.12z"/>
	<path display="inline" fill-rule="evenodd" clip-rule="evenodd" fill="#0F0F0F" d="M44.81,36.347
		c0.014,0.099-0.05,0.191-0.104,0.287c-1.036,1.838-2.072,3.676-3.108,5.515c-0.123,0.223-0.275,0.385-0.552,0.257
		c-0.23-0.107-0.261-0.322-0.094-0.619c1.034-1.838,2.071-3.677,3.106-5.517c0.11-0.198,0.239-0.353,0.49-0.285
		C44.711,36.028,44.802,36.151,44.81,36.347z"/>
	<path display="inline" fill-rule="evenodd" clip-rule="evenodd" fill="#0F0F0F" d="M49.771,27.325
		c-0.29-0.006-0.454-0.251-0.351-0.51c0.058-0.142,0.146-0.271,0.221-0.404c0.975-1.731,1.951-3.462,2.928-5.193
		c0.021-0.038,0.042-0.077,0.064-0.114c0.128-0.208,0.286-0.348,0.54-0.202c0.248,0.142,0.227,0.332,0.099,0.559
		c-0.713,1.261-1.416,2.528-2.125,3.792c-0.337,0.604-0.681,1.205-1.021,1.808C50.045,27.209,49.949,27.34,49.771,27.325z"/>
	<path display="inline" fill-rule="evenodd" clip-rule="evenodd" fill="#F9F9FA" d="M47.937,31.988c-0.4-0.225-0.8-0.445-1.201-0.67
		c0.332-0.374,0.602-0.435,0.954-0.224C48.018,31.29,48.097,31.563,47.937,31.988z"/>
	<path display="inline" fill-rule="evenodd" clip-rule="evenodd" fill="#F9F9FA" d="M45.782,31.06
		c-0.268,0.227-0.508,0.379-0.828,0.198c-0.235-0.133-0.397-0.305-0.368-0.601c0.019-0.18,0.055-0.268,0.255-0.14
		C45.137,30.704,45.446,30.867,45.782,31.06z"/>
</g>
<g id="Layer_4">
	<g id="_16-recieve">
		<g id="linear_color">
			<path fill="#FFFFFF" d="M52.437,45.545c-0.311,0.166-0.607,0.328-0.896,0.49c-1.332-1.107-3.733-2.166-6.41-0.736
				c-3.516,1.877-5.527,3.48-6.564,4.451l-2.475-0.236l-4.545-3.742c1.267,0.355,2.566,0.703,3.696,0.961
				c0.528,0.125,1.069,0.189,1.611,0.191c1.121,0.014,2.222-0.328,3.149-0.977c2.463-1.729,3.008-5.135,3.028-5.279
				c0.095-0.617-0.274-1.211-0.858-1.379l-15.807-4.561c-0.105-0.029-0.214-0.045-0.324-0.045H1.135
				c-0.661,0-1.197,0.553-1.197,1.232c0,0.682,0.536,1.232,1.197,1.232h24.744l14.509,4.186c-0.281,0.824-0.811,1.934-1.741,2.582
				c-0.78,0.541-1.722,0.676-2.884,0.41c-3.646-0.834-9.303-2.666-9.359-2.684c-1.257-0.396-2.128,1.285-1.108,2.139l9.579,7.887
				c0.184,0.15,0.405,0.242,0.639,0.266l3.366,0.322l6.933,0.664c0.398,0.041,0.791-0.131,1.042-0.453
				c0.015-0.021,1.675-2.061,6.683-4.734c1.037-0.59,2.303-0.551,3.303,0.1l-8.333,8.578L34.87,57.346L16.928,49.57
				c-0.147-0.064-0.305-0.096-0.465-0.096H1.135c-0.661,0-1.197,0.551-1.197,1.23c0,0.682,0.536,1.234,1.197,1.234h15.086
				l17.98,7.791c0.146,0.063,0.305,0.096,0.465,0.096c0.025,0,0.052,0,0.079-0.002l14.369-0.986c0.29-0.02,0.563-0.146,0.768-0.357
				l9.58-9.861c0.444-0.457,0.469-1.191,0.058-1.68C58.477,45.705,55.654,43.826,52.437,45.545z M45.45,50.408L42.02,50.08
				c1.347-0.961,2.754-1.826,4.213-2.594c1.218-0.648,2.266-0.438,3.01-0.063C47.212,48.748,46.034,49.814,45.45,50.408z"/>
			<path fill="#FFFFFF" d="M39.455,28.274c7.01,0,12.693-5.849,12.693-13.064S46.465,2.146,39.455,2.146
				c-7.011,0-12.693,5.849-12.693,13.064C26.771,22.422,32.448,28.267,39.455,28.274z M39.455,4.61
				c5.688,0,10.299,4.746,10.299,10.6s-4.611,10.6-10.299,10.6s-10.298-4.746-10.298-10.6C29.163,9.359,33.77,4.617,39.455,4.61z"/>
			<path fill="#FFFFFF" d="M38.378,16.443h2.036c0.925,0,1.674,0.772,1.676,1.726v0.123c-0.002,0.952-0.751,1.724-1.676,1.725h-3.02
				c-0.364,0-0.66-0.303-0.66-0.678c0-0.004,0-0.009,0-0.013l0.003-0.127c0.012-0.681-0.515-1.243-1.176-1.255
				s-1.207,0.53-1.219,1.21l-0.003,0.127c-0.031,1.736,1.312,3.169,2.999,3.2c0.019,0.001,0.037,0.001,0.056,0.001h0.863v0.739
				c0,0.681,0.536,1.232,1.197,1.232c0.662,0,1.198-0.551,1.198-1.232v-0.747c2.15-0.133,3.828-1.965,3.832-4.183v-0.123
				c-0.003-2.313-1.825-4.188-4.071-4.191h-2.036c-0.927,0-1.678-0.772-1.678-1.726s0.751-1.726,1.678-1.726h2.971
				c0.364,0,0.659,0.304,0.659,0.679c0,0.01,0,0.02,0,0.029c-0.029,0.68,0.483,1.255,1.145,1.285c0.66,0.029,1.22-0.499,1.248-1.179
				l0,0c0.072-1.735-1.234-3.201-2.921-3.276c-0.044-0.002-0.088-0.003-0.131-0.003h-0.695V7.322c0-0.68-0.536-1.232-1.198-1.232
				c-0.661,0-1.197,0.552-1.197,1.232v0.743c-2.248,0.069-4.016,2-3.949,4.313C34.375,14.641,36.176,16.442,38.378,16.443z"/>
			<path fill="#FFFFFF" d="M57.77,27.914c0.47,0.479,1.227,0.477,1.692-0.008c0.464-0.48,0.464-1.254,0-1.734l-3.83-3.945
				c-0.468-0.48-1.228-0.48-1.695,0l-3.831,3.945c-0.467,0.482-0.463,1.264,0.007,1.742c0.467,0.477,1.22,0.477,1.687,0l1.787-1.84
				v6.884c0,0.681,0.536,1.232,1.197,1.232c0.663,0,1.198-0.552,1.198-1.232v-6.884L57.77,27.914z"/>
			<path fill="#FFFFFF" d="M54.783,36.656c-0.661,0-1.197,0.552-1.197,1.232v0.986c0,0.681,0.536,1.231,1.197,1.231
				c0.663,0,1.198-0.551,1.198-1.231v-0.986C55.981,37.208,55.446,36.656,54.783,36.656z"/>
			<path fill="#FFFFFF" d="M19.226,0.534c-0.468-0.481-1.226-0.481-1.693,0l-3.832,3.944c-0.466,0.483-0.462,1.264,0.007,1.743
				c0.467,0.477,1.219,0.477,1.687,0l1.788-1.84v6.885c0,0.68,0.535,1.232,1.197,1.232c0.661,0,1.197-0.552,1.197-1.232V4.381
				l1.788,1.84c0.469,0.479,1.228,0.476,1.693-0.008c0.462-0.48,0.462-1.254,0-1.735L19.226,0.534z"/>
			<path fill="#FFFFFF" d="M18.379,14.963c-0.662,0-1.197,0.552-1.197,1.233v0.986c0,0.681,0.535,1.232,1.197,1.232
				c0.661,0,1.197-0.552,1.197-1.232v-0.986C19.576,15.516,19.04,14.963,18.379,14.963z"/>
			<path fill="#FFFFFF" d="M7.73,12.367c-0.468-0.482-1.226-0.482-1.693,0l-3.832,3.944c-0.466,0.483-0.462,1.264,0.007,1.743
				c0.466,0.477,1.219,0.477,1.687,0l1.788-1.84v6.884c0,0.681,0.535,1.232,1.197,1.232c0.661,0,1.197-0.551,1.197-1.232v-6.884
				l1.788,1.84c0.469,0.479,1.228,0.476,1.693-0.008c0.462-0.48,0.462-1.255,0-1.735L7.73,12.367z"/>
			<path fill="#FFFFFF" d="M6.883,26.795c-0.662,0-1.197,0.552-1.197,1.232v0.986c0,0.681,0.535,1.232,1.197,1.232
				c0.661,0,1.197-0.552,1.197-1.232v-0.986C8.081,27.347,7.544,26.795,6.883,26.795z"/>
		</g>
	</g>
</g>
</svg>
