<?xml version="1.0" encoding="utf-8"?>
<!-- Generator: Adobe Illustrator 16.0.0, SVG Export Plug-In . SVG Version: 6.00 Build 0)  -->
<!DOCTYPE svg PUBLIC "-//W3C//DTD SVG 1.1//EN" "http://www.w3.org/Graphics/SVG/1.1/DTD/svg11.dtd">
<svg version="1.1" id="Layer_1" xmlns="http://www.w3.org/2000/svg" xmlns:xlink="http://www.w3.org/1999/xlink" x="0px" y="0px"
	 width="60px" height="60px" viewBox="0 0 60 60" enable-background="new 0 0 60 60" xml:space="preserve">
<g>
	<path fill="#FFFFFF" d="M54.707,24.758c0.971,0,1.758-0.787,1.758-1.757V8.861c0-4.86-3.949-8.846-8.851-8.846
		c-1.243,0-34.06,0-35.296,0c-4.843,0-8.783,3.94-8.783,8.783v49.398c0,1.573,1.933,2.356,3.026,1.215l2.248-2.348l2.374,2.374
		c0.686,0.687,1.798,0.687,2.484,0l2.25-2.248l2.273,2.254c0.685,0.68,1.789,0.68,2.474,0l2.309-2.289l2.31,2.289
		c0.684,0.68,1.788,0.68,2.473,0.001l2.958-2.928c2.708,2.169,6.14,3.468,9.87,3.468c8.719,0,15.813-7.094,15.813-15.813
		c0-8.144-6.188-14.868-14.11-15.72v-3.694H54.707z M52.95,8.861v12.383H42.286V8.861c0-2.94,2.393-5.332,5.332-5.332
		C50.56,3.529,52.95,5.921,52.95,8.861z M26.521,55.724l-2.311-2.291c-0.685-0.679-1.789-0.679-2.474,0l-2.308,2.289l-2.278-2.259
		c-0.687-0.682-1.795-0.68-2.479,0.005l-2.245,2.244l-2.402-2.402c-0.718-0.719-1.849-0.665-2.512,0.026L7.049,53.82V8.798
		c0-2.905,2.363-5.269,5.269-5.269h28.248c-1.124,1.484-1.792,3.331-1.792,5.332v19.604C26.441,29.877,20.513,44.38,28.231,54.031
		L26.521,55.724z M52.882,44.172c0,6.782-5.518,12.299-12.298,12.299c-6.782,0-12.299-5.517-12.299-12.299
		c0-6.78,5.517-12.298,12.299-12.298C47.364,31.874,52.882,37.392,52.882,44.172z"/>
	<path fill="#FFFFFF" d="M39.412,39.295v3.589h-3.556c-0.971,0-1.757,0.787-1.757,1.757c0,0.971,0.786,1.757,1.757,1.757h5.313
		c0.971,0,1.758-0.786,1.758-1.757v-5.346c0-0.97-0.787-1.757-1.758-1.757C40.199,37.538,39.412,38.325,39.412,39.295z"/>
	<path fill="#FFFFFF" d="M26.1,16.008c-1.681-1.31-3.874-1.513-4.363-2.397c-0.173-0.313,0.011-0.827,0.386-1.079
		c0.534-0.359,1.676-0.217,2.078,0.153c0.713,0.658,1.825,0.613,2.482-0.101c0.658-0.713,0.613-1.825-0.1-2.482
		c-0.545-0.503-1.238-0.863-1.986-1.073V8.884c0-0.97-0.787-1.756-1.757-1.756c-0.97,0-1.756,0.786-1.756,1.756v0.263
		c-2.554,0.957-3.651,3.943-2.42,6.166c0.863,1.558,2.376,2.155,3.592,2.635c0.963,0.38,2.381,0.902,2.264,1.954
		c-0.056,0.501-0.436,0.999-0.944,1.238c-0.726,0.341-2.184,0.13-3.06-0.442c-0.812-0.531-1.901-0.304-2.432,0.508
		s-0.303,1.901,0.508,2.432c0.683,0.447,1.556,0.807,2.492,1.007v0.224c0,0.971,0.787,1.757,1.756,1.757
		c0.971,0,1.757-0.787,1.757-1.757v-0.358C28.142,23.282,29.444,18.613,26.1,16.008z"/>
	<path fill="#FFFFFF" d="M21.215,30.009h-8.785c-0.97,0-1.757,0.787-1.757,1.756c0,0.971,0.787,1.758,1.757,1.758h8.785
		c0.97,0,1.757-0.787,1.757-1.758C22.972,30.796,22.186,30.009,21.215,30.009z"/>
	<path fill="#FFFFFF" d="M21.215,37.049h-8.79c-0.971,0-1.757,0.787-1.757,1.757s0.787,1.757,1.757,1.757h8.79
		c0.97,0,1.757-0.787,1.757-1.757S22.186,37.049,21.215,37.049z"/>
	<path fill="#FFFFFF" d="M21.215,44.064h-8.796c-0.971,0-1.757,0.787-1.757,1.757c0,0.971,0.787,1.758,1.757,1.758h8.796
		c0.97,0,1.757-0.787,1.757-1.758C22.972,44.852,22.186,44.064,21.215,44.064z"/>
</g>
</svg>
