<?xml version="1.0" encoding="utf-8"?>
<!-- Generator: Adobe Illustrator 16.0.0, SVG Export Plug-In . SVG Version: 6.00 Build 0)  -->
<!DOCTYPE svg PUBLIC "-//W3C//DTD SVG 1.1//EN" "http://www.w3.org/Graphics/SVG/1.1/DTD/svg11.dtd">
<svg version="1.1" id="Layer_1" xmlns="http://www.w3.org/2000/svg" xmlns:xlink="http://www.w3.org/1999/xlink" x="0px" y="0px"
	 width="100px" height="99.824px" viewBox="0 0 100 99.824" enable-background="new 0 0 100 99.824" xml:space="preserve">
<g id="Layer_6" display="none">
	<g id="Document" display="inline">
		<path fill="#8D9498" d="M46.578,24.584H7.166v68.075h39.412V24.584z M42.994,80.118c0,0.987-0.802,1.791-1.792,1.791
			c-2.964,0.009-5.365,2.409-5.374,5.374c0,0.99-0.802,1.792-1.791,1.792H19.706c-0.989,0-1.792-0.802-1.792-1.792
			c-0.009-2.965-2.41-5.365-5.374-5.374c-0.989,0-1.792-0.804-1.792-1.791V37.124c0-0.989,0.802-1.792,1.792-1.792
			c2.964-0.008,5.365-2.41,5.374-5.375c0-0.989,0.802-1.792,1.792-1.792h14.332c0.989,0,1.791,0.802,1.791,1.792
			c0.009,2.964,2.41,5.366,5.374,5.375c0.989,0,1.792,0.802,1.792,1.792L42.994,80.118L42.994,80.118z"/>
		<circle fill="#8D9498" cx="26.872" cy="58.622" r="5.374"/>
		<path fill="#8D9498" d="M39.411,10.253H89.57v3.583H39.411V10.253z"/>
		<path fill="#8D9498" d="M0,24.584h3.583v68.075H0V24.584z"/>
		<path fill="#8D9498" d="M32.425,31.75H21.318c-0.722,3.516-3.47,6.265-6.986,6.986v39.768c3.517,0.725,6.264,3.473,6.986,6.987
			h11.106c0.723-3.517,3.47-6.265,6.986-6.987V38.736C35.895,38.015,33.147,35.266,32.425,31.75L32.425,31.75z M26.872,67.578
			c-4.947,0-8.958-4.01-8.958-8.957s4.01-8.957,8.958-8.957c4.946,0,8.957,4.009,8.957,8.957
			C35.823,63.564,31.816,67.572,26.872,67.578z"/>
		<path fill="#8D9498" d="M76.506,82c-0.697,0.697-1.833,0.697-2.533,0l-6.334-6.334L65.107,78.2L75.24,88.335L92.975,70.6
			l-2.533-2.535L76.506,82z"/>
		<path fill="#8D9498" d="M98.527-0.495H30.454c-0.989,0-1.791,0.802-1.791,1.791v19.706h19.706c0.989,0,1.791,0.802,1.791,1.792
			v71.657c0,0.988-0.802,1.79-1.791,1.79H28.663v1.791c0,0.987,0.802,1.792,1.791,1.792h68.073c0.99,0,1.791-0.805,1.791-1.792
			V1.296C100.318,0.306,99.518-0.495,98.527-0.495z M37.62,17.419c-0.99,0-1.792-0.802-1.792-1.792V8.462
			c0-0.99,0.802-1.792,1.792-1.792h53.741c0.99,0,1.793,0.802,1.793,1.792v7.165c0,0.989-0.803,1.792-1.793,1.792H37.62z
			 M71.657,49.664v-3.583h21.497v3.583H71.657z M93.154,56.83v3.584H71.657V56.83H93.154z M71.657,38.915v-3.583h21.497v3.583
			H71.657z M71.657,28.167v-3.583h21.497v3.583H71.657z M60.908,49.664v-3.583h7.166v3.583H60.908z M68.074,56.83v3.584h-7.166
			V56.83H68.074z M60.908,38.915v-3.583h7.166v3.583H60.908z M60.908,28.167v-3.583h7.166v3.583H60.908z M96.773,71.867
			L76.506,92.132c-0.697,0.701-1.833,0.701-2.533,0L61.307,79.466c-0.699-0.7-0.699-1.832,0-2.532l5.065-5.066
			c0.698-0.699,1.834-0.699,2.532,0l6.334,6.333l13.935-13.935c0.7-0.699,1.834-0.699,2.533,0l5.067,5.065
			c0.701,0.699,0.701,1.834,0.002,2.533C96.773,71.866,96.773,71.866,96.773,71.867z"/>
	</g>
</g>
<g id="Layer_6_1_">
	<g id="Document_1_">
		<path fill="#0032A0" d="M46.578,24.584H7.166v68.075h39.412V24.584z M42.994,80.118c0,0.987-0.802,1.791-1.792,1.791
			c-2.964,0.009-5.365,2.409-5.374,5.374c0,0.99-0.802,1.792-1.791,1.792H19.706c-0.989,0-1.792-0.802-1.792-1.792
			c-0.009-2.965-2.41-5.365-5.374-5.374c-0.989,0-1.792-0.804-1.792-1.791V37.124c0-0.989,0.802-1.792,1.792-1.792
			c2.964-0.008,5.365-2.41,5.374-5.375c0-0.989,0.802-1.792,1.792-1.792h14.332c0.989,0,1.791,0.802,1.791,1.792
			c0.009,2.964,2.41,5.366,5.374,5.375c0.989,0,1.792,0.802,1.792,1.792L42.994,80.118L42.994,80.118z"/>
		<circle fill="#0032A0" cx="26.872" cy="58.622" r="5.374"/>
		<path fill="#0032A0" d="M39.411,10.253H89.57v3.583H39.411V10.253z"/>
		<path fill="#0032A0" d="M0,24.584h3.583v68.075H0V24.584z"/>
		<path fill="#0032A0" d="M32.425,31.75H21.318c-0.722,3.516-3.47,6.265-6.986,6.986v39.768c3.517,0.725,6.264,3.473,6.986,6.987
			h11.106c0.723-3.517,3.47-6.265,6.986-6.987V38.736C35.895,38.015,33.147,35.266,32.425,31.75L32.425,31.75z M26.872,67.578
			c-4.947,0-8.958-4.01-8.958-8.957s4.01-8.957,8.958-8.957c4.946,0,8.957,4.009,8.957,8.957
			C35.823,63.564,31.816,67.572,26.872,67.578z"/>
		<path fill="#0032A0" d="M76.506,82c-0.697,0.697-1.833,0.697-2.533,0l-6.334-6.334L65.107,78.2L75.24,88.335L92.975,70.6
			l-2.533-2.535L76.506,82z"/>
		<path fill="#0032A0" d="M98.527-0.495H30.454c-0.989,0-1.791,0.802-1.791,1.791v19.706h19.706c0.989,0,1.791,0.802,1.791,1.792
			v71.657c0,0.988-0.802,1.79-1.791,1.79H28.663v1.791c0,0.987,0.802,1.792,1.791,1.792h68.073c0.99,0,1.791-0.805,1.791-1.792
			V1.296C100.318,0.306,99.518-0.495,98.527-0.495z M37.62,17.419c-0.99,0-1.792-0.802-1.792-1.792V8.462
			c0-0.99,0.802-1.792,1.792-1.792h53.741c0.99,0,1.793,0.802,1.793,1.792v7.165c0,0.989-0.803,1.792-1.793,1.792H37.62z
			 M71.657,49.664v-3.583h21.497v3.583H71.657z M93.154,56.83v3.584H71.657V56.83H93.154z M71.657,38.915v-3.583h21.497v3.583
			H71.657z M71.657,28.167v-3.583h21.497v3.583H71.657z M60.908,49.664v-3.583h7.166v3.583H60.908z M68.074,56.83v3.584h-7.166
			V56.83H68.074z M60.908,38.915v-3.583h7.166v3.583H60.908z M60.908,28.167v-3.583h7.166v3.583H60.908z M96.773,71.867
			L76.506,92.132c-0.697,0.701-1.833,0.701-2.533,0L61.307,79.466c-0.699-0.7-0.699-1.832,0-2.532l5.065-5.066
			c0.698-0.699,1.834-0.699,2.532,0l6.334,6.333l13.935-13.935c0.7-0.699,1.834-0.699,2.533,0l5.067,5.065
			c0.701,0.699,0.701,1.834,0.002,2.533C96.773,71.866,96.773,71.866,96.773,71.867z"/>
	</g>
</g>
</svg>
