<?xml version="1.0" encoding="utf-8"?>
<!-- Generator: Adobe Illustrator 16.0.0, SVG Export Plug-In . SVG Version: 6.00 Build 0)  -->
<!DOCTYPE svg PUBLIC "-//W3C//DTD SVG 1.1//EN" "http://www.w3.org/Graphics/SVG/1.1/DTD/svg11.dtd">
<svg version="1.1" xmlns="http://www.w3.org/2000/svg" xmlns:xlink="http://www.w3.org/1999/xlink" x="0px" y="0px" width="100px"
	 height="99.823px" viewBox="0 -46.458 100 99.823" enable-background="new 0 -46.458 100 99.823" xml:space="preserve">
<symbol  id="Notepad_-_Grey" viewBox="-2.049 -15.941 20.522 20.533">
	<g>
		<path fill="#8D9498" d="M17.879,0.797l-3.201,3.202c-0.777,0.778-2.037,0.792-2.797,0.032c-0.002-0.001-0.002-0.002-0.002-0.002
			h-0.002L0.206-7.642l-0.235-0.233l-2.02-8.066l8.058,2.021l0.753,0.767l0,0L17.911-2.002v0.001L17.913-2
			C18.672-1.239,18.659,0.02,17.879,0.797z M0.799-8.688l4.404-4.403l-4.137-1.036l-1.291,1.359L0.799-8.688z M6.013-10.366
			L3.515-7.869l8.363,8.363l2.498-2.497L6.013-10.366z"/>
	</g>
</symbol>
<g id="Layer_1" display="none">
	<g display="inline">
		<g>
			<path fill="#8D9498" d="M93.428,26.831l-2.592-10.364c0.709-0.151,1.24-0.78,1.24-1.532v-1.671c0-3.628-2.952-6.58-6.579-6.58
				H73.695V3.237C73.695,1.453,72.243,0,70.458,0H10.3C8.515,0,7.063,1.453,7.063,3.237v28.408c0,0.865,0.701,1.567,1.567,1.567
				c0.865,0,1.566-0.701,1.566-1.567V3.237c0-0.058,0.047-0.104,0.104-0.104h60.158c0.058,0,0.103,0.046,0.103,0.104v28.408
				c0,0.866,0.703,1.567,1.567,1.567c0.865,0,1.567-0.701,1.567-1.567V29.87h18.479c0.001,0,0.003,0,0.003,0
				c0.004,0,0.004,0,0.006,0c2.273,0.001,4.203,1.494,4.868,3.55H92.18c-0.865,0-1.566,0.702-1.566,1.567v3.342
				c0,2.706,2.203,4.908,4.908,4.908h1.775v6.894h-4.096c-1.346-3.886-5.04-6.685-9.377-6.685c-4.338,0-8.031,2.799-9.376,6.685
				h-0.755V38.33c0-0.866-0.701-1.565-1.566-1.565s-1.566,0.699-1.566,1.565v11.802H38.058c-1.345-3.887-5.039-6.686-9.376-6.686
				s-8.031,2.799-9.376,6.686H10.3c-0.057,0-0.104-0.048-0.104-0.104v-3.446h6.789c0.865,0,1.566-0.701,1.566-1.567
				c0-0.865-0.701-1.566-1.566-1.566H1.945c-0.865,0-1.567,0.701-1.567,1.566c0,0.866,0.701,1.567,1.567,1.567h5.117v3.446
				c0,1.785,1.453,3.236,3.238,3.236h8.462c0,0.035-0.002,0.07-0.002,0.105c0,5.471,4.451,9.922,9.922,9.922
				c5.47,0,9.921-4.451,9.921-9.922c0-0.035-0.002-0.07-0.002-0.105h35.306c0,0.035-0.003,0.07-0.003,0.105
				c0,5.471,4.451,9.922,9.922,9.922c5.472,0,9.922-4.451,9.922-9.922c0-0.035-0.002-0.07-0.002-0.105h5.119
				c0.865,0,1.566-0.701,1.566-1.565V34.987C100.432,30.861,97.389,27.434,93.428,26.831z M73.695,9.817h11.802
				c1.899,0,3.444,1.546,3.444,3.447v0.104H73.695V9.817z M73.695,26.737V16.501h13.92l2.56,10.235L73.695,26.737L73.695,26.737z
				 M28.682,60.156c-3.743,0-6.789-3.046-6.789-6.787c0-3.744,3.045-6.788,6.789-6.788c3.744,0,6.788,3.044,6.788,6.788
				C35.47,57.11,32.425,60.156,28.682,60.156z M83.825,60.156c-3.742,0-6.788-3.046-6.788-6.787c0-3.744,3.046-6.788,6.788-6.788
				c3.743,0,6.788,3.044,6.788,6.788C90.613,57.11,87.568,60.156,83.825,60.156z M97.298,40.104h-1.774
				c-0.979,0-1.775-0.797-1.775-1.774v-1.774h3.551L97.298,40.104L97.298,40.104z"/>
		</g>
	</g>
	<g display="inline">
		<g>
			<path fill="#8D9498" d="M28.682,50.131c-1.786,0-3.238,1.453-3.238,3.238c0,1.784,1.452,3.237,3.238,3.237
				c1.785,0,3.237-1.453,3.237-3.237C31.919,51.584,30.467,50.131,28.682,50.131z"/>
		</g>
	</g>
	<g display="inline">
		<g>
			<path fill="#8D9498" d="M83.825,50.131c-1.785,0-3.236,1.453-3.236,3.238c0,1.784,1.451,3.237,3.236,3.237
				c1.784,0,3.237-1.453,3.237-3.237C87.063,51.584,85.609,50.131,83.825,50.131z"/>
		</g>
	</g>
	<g display="inline">
		<g>
			<path fill="#8D9498" d="M65.443,43.446H42.05c-0.865,0-1.566,0.701-1.566,1.568c0,0.864,0.701,1.566,1.566,1.566h23.396
				c0.865,0,1.566-0.702,1.566-1.566C67.012,44.147,66.311,43.446,65.443,43.446z"/>
		</g>
	</g>
	<g display="inline">
		<g>
			<path fill="#8D9498" d="M25.339,36.763H5.287c-0.866,0-1.567,0.7-1.567,1.566c0,0.865,0.701,1.566,1.567,1.566h20.052
				c0.865,0,1.567-0.701,1.567-1.566C26.906,37.463,26.205,36.763,25.339,36.763z"/>
		</g>
	</g>
</g>
<g id="Layer_2" display="none">
	<path fill="none" stroke="#8D9498" stroke-width="2" d="M58.318,32.655c0,2.369-1.922,4.291-4.293,4.291h-16.76
		c-2.371,0-4.291-1.922-4.291-4.291V15.895c0-2.37,1.92-4.292,4.291-4.292h16.76c2.371,0,4.293,1.921,4.293,4.292V32.655z"/>
	
		<use xlink:href="#Notepad_-_Grey"  width="20.522" height="20.533" id="XMLID_1_" x="-2.049" y="-15.941" transform="matrix(1.4376 0 0 -1.4376 35.8643 17.4111)" display="inline" overflow="visible"/>
</g>
<g id="Layer_3" display="none">
	<g display="inline">
		<path fill="#555555" d="M53.56,54.767L39.077,40.284L71.07,8.292l14.482,14.481L53.56,54.767z"/>
		<polygon fill="#555555" points="51.927,-42.894 51.927,-25.858 68.964,-25.858 		"/>
		<path fill="#555555" d="M31.749,37.392H12.171v-7.229h26.806l9.638-9.64H12.171v-7.227h43.672L72.528-3.389v-15.24h-27.83v-27.829
			H0.003V53.774h25.796l3.783-12.961l0.519-1.776L31.749,37.392z M12.171-3.57h48.188v7.229H12.171V-3.57L12.171-3.57z"/>
		<path fill="#555555" d="M76.182,3.181l9.315-9.316L99.979,8.347l-9.315,9.314L76.182,3.181z"/>
		<polygon fill="#555555" points="33.33,53.774 30.551,63.291 47.048,58.477 35.366,46.796 		"/>
	</g>
	<g>
		<rect x="5.816" y="7.182" display="inline" fill="#555555" width="66.712" height="46.592"/>
		<rect x="61.515" y="-7.909" display="inline" fill="#555555" width="11.014" height="61.683"/>
		<path fill="#555555" d="M53.56,54.767L39.077,40.284L71.07,8.292l14.482,14.481L53.56,54.767z"/>
		<polygon display="inline" fill="#555555" points="51.927,-42.894 51.927,-25.858 68.964,-25.858 		"/>
		<path display="inline" fill="#555555" d="M31.749,37.392H12.171v-7.229h26.806l9.638-9.64H12.171v-7.227h43.672L72.528-3.389
			v-15.24h-27.83v-27.829H0.003V53.774h25.796l3.783-12.961l0.519-1.776L31.749,37.392z M12.171-3.57h48.188v7.229H12.171V-3.57
			L12.171-3.57z"/>
		<path fill="#555555" d="M76.182,3.181l9.315-9.316L99.979,8.347l-9.315,9.314L76.182,3.181z"/>
		<polygon fill="#555555" points="33.33,53.774 30.551,63.291 47.048,58.477 35.366,46.796 		"/>
	</g>
	<rect x="12.171" y="13.296" fill="#FFFFFF" width="48.274" height="7.192"/>
	<rect x="12.171" y="30.147" fill="#FFFFFF" width="48.274" height="7.194"/>
</g>
<g id="Layer_4" display="none">
	<g display="inline">
		
			<path fill-rule="evenodd" clip-rule="evenodd" fill="none" stroke="#555555" stroke-width="2" stroke-linecap="round" stroke-linejoin="round" stroke-miterlimit="10" d="
			M59.664,53.338c5.862,0,11.728,0,17.483,0c0-30.638,0-61.066,0-91.703c-3.801,0-7.71,0-11.621,0"/>
		
			<path fill-rule="evenodd" clip-rule="evenodd" fill="none" stroke="#555555" stroke-width="2" stroke-linecap="round" stroke-linejoin="round" stroke-miterlimit="10" d="
			M2.717-32.921c0,26.938,0,53.877,0,80.816"/>
		
			<path fill-rule="evenodd" clip-rule="evenodd" fill="none" stroke="#555555" stroke-width="2" stroke-linecap="round" stroke-linejoin="round" stroke-miterlimit="10" d="
			M85.209-32.712c0,26.869,0,53.738,0,80.607"/>
		
			<path fill-rule="evenodd" clip-rule="evenodd" fill="none" stroke="#555555" stroke-width="2" stroke-linecap="round" stroke-linejoin="round" stroke-miterlimit="10" d="
			M22.607-38.365c-3.979,0-7.959,0-11.934,0c0,17.028,0.003,33.848-0.007,50.667c-0.001,1.21,0.083,2.397,0.425,3.56"/>
		
			<path fill-rule="evenodd" clip-rule="evenodd" fill="none" stroke="#555555" stroke-width="2" stroke-linecap="round" stroke-linejoin="round" stroke-miterlimit="10" d="
			M10.464,26.748c0,8.793,0,17.586,0,26.271c1.027,0.404,1.879,0.316,2.722,0.316c9.979,0.003,19.959-0.001,29.939,0.007
			c0.771,0.001,1.562-0.149,2.303,0.203"/>
		
			<path fill-rule="evenodd" clip-rule="evenodd" fill="none" stroke="#555555" stroke-width="2" stroke-linecap="round" stroke-linejoin="round" stroke-miterlimit="10" d="
			M72.019-45.693c-18.705,0-37.407,0-56.111,0"/>
		
			<path fill-rule="evenodd" clip-rule="evenodd" fill="none" stroke="#555555" stroke-width="2" stroke-linecap="round" stroke-linejoin="round" stroke-miterlimit="10" d="
			M72.019,60.665c-18.705,0-37.407,0-56.111,0"/>
		
			<path fill-rule="evenodd" clip-rule="evenodd" fill="none" stroke="#555555" stroke-width="2" stroke-linecap="round" stroke-linejoin="round" stroke-miterlimit="10" d="
			M64.271-39.831c-0.552-2.645-1.113-3.167-3.56-3.136c-9.561,0.123-19.122-0.2-28.686,0.132c-1.641,0.057-3.348-0.085-5.023-0.123
			c-2.572-0.056-3.698,1.573-2.695,3.953c0.466,1.108-0.376,2.104,0.123,3.361c0.548,0,1.254,0.065,1.944-0.011
			c3.947-0.438,7.782,0.82,11.727,0.682c4.949-0.175,9.937,0.275,14.854-0.15c3.492-0.301,6.986-0.476,10.441-0.523
			c0.71-1.385-0.691-2.91,0.664-3.975"/>
		
			<path fill-rule="evenodd" clip-rule="evenodd" fill="none" stroke="#555555" stroke-width="2" stroke-linecap="round" stroke-linejoin="round" stroke-miterlimit="10" d="
			M24.7-40.877c0.351,0.621,0.95,0.412,1.466,0.413c11.864,0.007,23.729,0.007,35.592,0c0.516,0,1.113,0.208,1.466-0.413"/>
		
			<path fill-rule="evenodd" clip-rule="evenodd" fill="none" stroke="#555555" stroke-width="2" stroke-linecap="round" stroke-linejoin="round" stroke-miterlimit="10" d="
			M63.225-38.156c-12.841,0-25.682,0-38.524,0"/>
		
			<path fill-rule="evenodd" clip-rule="evenodd" fill="none" stroke="#555555" stroke-width="2" stroke-linecap="round" stroke-linejoin="round" stroke-miterlimit="10" d="
			M49.197-19.941c-10.329,0-20.657,0-30.986,0"/>
		
			<path fill-rule="evenodd" clip-rule="evenodd" fill="none" stroke="#555555" stroke-width="2" stroke-linecap="round" stroke-linejoin="round" stroke-miterlimit="10" d="
			M49.197-15.753c-10.329,0-20.657,0-30.986,0"/>
		
			<path fill-rule="evenodd" clip-rule="evenodd" fill="none" stroke="#555555" stroke-width="2" stroke-linecap="round" stroke-linejoin="round" stroke-miterlimit="10" d="
			M49.197-24.128c-10.329,0-20.657,0-30.986,0"/>
		
			<path fill-rule="evenodd" clip-rule="evenodd" fill="none" stroke="#555555" stroke-width="2" stroke-linecap="round" stroke-linejoin="round" stroke-miterlimit="10" d="
			M48.778,9.58c-7.607-0.07-15.214-0.146-22.821-0.206c-2.582-0.021-5.165-0.003-7.747-0.003"/>
		
			<path fill-rule="evenodd" clip-rule="evenodd" fill="none" stroke="#555555" stroke-width="2" stroke-linecap="round" stroke-linejoin="round" stroke-miterlimit="10" d="
			M48.778,5.393c-7.607-0.07-15.214-0.146-22.821-0.207c-2.582-0.021-5.165-0.004-7.747-0.004"/>
		
			<path fill-rule="evenodd" clip-rule="evenodd" fill="none" stroke="#555555" stroke-width="2" stroke-linecap="round" stroke-linejoin="round" stroke-miterlimit="10" d="
			M48.778,13.767c-7.605-0.336-15.214-0.173-22.821-0.208c-2.583-0.012-5.165-0.001-7.747-0.001"/>
		
			<path fill-rule="evenodd" clip-rule="evenodd" fill="none" stroke="#555555" stroke-width="2" stroke-linecap="round" stroke-linejoin="round" stroke-miterlimit="10" d="
			M68.669-21.93c-0.232-0.655-0.464-1.311-0.74-2.094c-2.541,0-5.193,0-7.95,0c0,2.756,0,5.409,0,8.166c2.757,0,5.409,0,8.34,0
			c-0.27-1.578,0.363-3.097-0.593-4.501"/>
		
			<path fill-rule="evenodd" clip-rule="evenodd" fill="none" stroke="#555555" stroke-width="2" stroke-linecap="round" stroke-linejoin="round" stroke-miterlimit="10" d="
			M85.209-32.921c0.542-0.659,1.43-0.628,2.092-1.071c0-2,0.024-4.025-0.007-6.048c-0.045-2.945-2.729-6.55-5.439-7.316
			c-0.323-0.091-0.695-0.012-1.043-0.012c-2.304,0-4.609,0.051-6.909-0.02c-1.271-0.039-1.567,0.967-1.592,1.697
			c-0.022,0.696,0.398,1.563,1.594,1.492c1.878-0.111,3.766-0.042,5.649-0.026c2.809,0.024,4.052,1.177,4.174,3.976
			c0.078,1.741,0.072,3.492-0.007,5.232c-0.051,1.092,0.313,1.749,1.381,1.99"/>
		
			<path fill-rule="evenodd" clip-rule="evenodd" fill="none" stroke="#555555" stroke-width="2" stroke-linecap="round" stroke-linejoin="round" stroke-miterlimit="10" d="
			M59.875,57.943c-1.328-0.932-2.398-2.684-4.431-1.087c-0.532,0.418-1.254-0.302-1.849-0.593
			c-4.924-2.412-9.277-5.692-13.607-9.002c-6.643-5.077-13.285-10.157-19.885-15.292c-3.293-2.563-6.831-4.82-9.848-7.734
			c1.33-1.989,2.554-4.065,4.699-5.567c14.232,11.841,29.975,21.811,43.18,34.968c-0.593,0.821-0.868,1.571-0.771,2.423"/>
		
			<path fill-rule="evenodd" clip-rule="evenodd" fill="none" stroke="#555555" stroke-width="2" stroke-linecap="round" stroke-linejoin="round" stroke-miterlimit="10" d="
			M15.698-45.693c-0.305-1.356-1.098-1.824-2.515-1.71c-1.803,0.146-3.626,0.034-5.441,0.036c-3.593,0.004-6.624,2.924-6.692,6.491
			C1.012-38.924,1.177-36.957,1-35.019c-0.146,1.608,1.069,1.844,1.932,1.907c0.964,0.07,1.323-0.862,1.273-1.905
			c-0.083-1.74-0.085-3.491-0.008-5.232c0.114-2.553,1.164-4.106,4.173-3.991c1.742,0.066,3.493-0.061,5.232,0.04
			c1.082,0.062,1.703-0.355,2.095-1.283"/>
		
			<path fill-rule="evenodd" clip-rule="evenodd" fill="none" stroke="#555555" stroke-width="2" stroke-linecap="round" stroke-linejoin="round" stroke-miterlimit="10" d="
			M85.416,48.104c0.479,0.614,1.411,0.214,1.885,1.224c0,1.289,0,2.964,0,4.638c0,5.371-3.207,8.578-8.583,8.583
			c-1.466,0.004-2.934-0.047-4.396,0.017c-1.381,0.059-1.965-0.929-2.025-1.902c-0.071-1.188,1.014-1.294,2.023-1.266
			c1.675,0.047,3.352,0.065,5.024,0.001c3.417-0.129,4.312-1.804,4.388-4.176c0.053-1.742,0.07-3.493-0.014-5.232
			c-0.049-1.043,0.29-1.688,1.279-1.991"/>
		
			<path fill-rule="evenodd" clip-rule="evenodd" fill="none" stroke="#555555" stroke-width="2" stroke-linecap="round" stroke-linejoin="round" stroke-miterlimit="10" d="
			M64.49,11.228c1.675-1.431,4.605-2.688,3.348-5.619c-2.513-0.838-5.444,0-7.859-0.444c-0.192,1.662,1.85-0.139,0,0
			c0.321,2.957-0.935,5.469,0.321,8.401c2.514,0,5.444,0,7.957,0c0.021-1.289-1.393-0.197,0,0c0.021-1.289,0.438-2.875-0.425-3.986"
			/>
		
			<path fill-rule="evenodd" clip-rule="evenodd" fill="none" stroke="#555555" stroke-width="2" stroke-linecap="round" stroke-linejoin="round" stroke-miterlimit="10" d="
			M2.508,48.104c-1.088,0.387-1.625,1.026-1.5,2.306c0.147,1.521,0.157,3.08,0.01,4.601c-0.343,3.564,2.335,7.351,6.934,7.527
			c1.882,0.072,3.771-0.035,5.652,0.029c1.379,0.045,1.965-0.931,2.023-1.904c0.07-1.188-1.015-1.294-2.023-1.266
			c-1.674,0.047-3.35,0.025-5.024,0.011c-2.891-0.027-4.254-1.296-4.383-4.186c-0.078-1.741-0.075-3.493,0.008-5.232
			c0.05-1.043-0.288-1.688-1.279-1.991"/>
		
			<path fill-rule="evenodd" clip-rule="evenodd" fill="none" stroke="#555555" stroke-width="2" stroke-linecap="round" stroke-linejoin="round" stroke-miterlimit="10" d="
			M12.558,26.748c-0.946,2.836-0.575,3.684,1.653,5.47c2.352,1.888,4.949,3.404,7.35,5.208c0.943,0.708,1.859,1.323,3.132,1.521
			c1.876,0.29,2.882,1.914,3.986,3.295"/>
		
			<path fill-rule="evenodd" clip-rule="evenodd" fill="none" stroke="#555555" stroke-width="2" stroke-linecap="round" stroke-linejoin="round" stroke-miterlimit="10" d="
			M23.444-39.831c-1.314,1.479-0.462,3.144-0.113,4.583c0.284,1.172,1.793,0.929,2.834,0.841c2.162-0.182,4.38,0.544,6.491-0.4"/>
		
			<path fill-rule="evenodd" clip-rule="evenodd" fill="none" stroke="#555555" stroke-width="2" stroke-linecap="round" stroke-linejoin="round" stroke-miterlimit="10" d="
			M64.48-39.831c1.553,1.467,0.4,3.142,0.105,4.585c-0.239,1.164-1.784,0.927-2.825,0.839c-2.163-0.182-4.381,0.544-6.494-0.4"/>
		
			<path fill-rule="evenodd" clip-rule="evenodd" fill="none" stroke="#555555" stroke-width="2" stroke-linecap="round" stroke-linejoin="round" stroke-miterlimit="10" d="
			M37.891,34.285c2.921,0.463,5.863,0.083,8.793,0.214c0.839,0.037,1.701-0.172,2.513,0.205"/>
		
			<path fill-rule="evenodd" clip-rule="evenodd" fill="none" stroke="#555555" stroke-width="2" stroke-linecap="round" stroke-linejoin="round" stroke-miterlimit="10" d="
			M27.423,43.079c-3.063-0.429-6.142-0.112-9.212-0.21"/>
		
			<path fill-rule="evenodd" clip-rule="evenodd" fill="none" stroke="#555555" stroke-width="2" stroke-linecap="round" stroke-linejoin="round" stroke-miterlimit="10" d="
			M13.395,19.629c-1.595-1.27-3.19-2.539-4.817-3.833c-1.158,0.764-1.864,1.855-2.617,3.09c1.465,1.557,3.269,2.684,4.922,3.989"/>
		
			<path fill-rule="evenodd" clip-rule="evenodd" fill="none" stroke="#555555" stroke-width="2" stroke-linecap="round" stroke-linejoin="round" stroke-miterlimit="10" d="
			M43.334,38.472c1.804,0.374,3.628,0.162,5.444,0.21"/>
		
			<path fill-rule="evenodd" clip-rule="evenodd" fill="none" stroke="#555555" stroke-width="2" stroke-linecap="round" stroke-linejoin="round" stroke-miterlimit="10" d="
			M41.241,39.52c-1.516,1.602-2.897,3.303-3.979,5.233"/>
		
			<path fill-rule="evenodd" clip-rule="evenodd" fill="none" stroke="#555555" stroke-width="2" stroke-linecap="round" stroke-linejoin="round" stroke-miterlimit="10" d="
			M51.081,47.477c-1.186,1.533-2.373,3.069-3.559,4.604"/>
		
			<path fill-rule="evenodd" clip-rule="evenodd" fill="none" stroke="#555555" stroke-width="2" stroke-linecap="round" stroke-linejoin="round" stroke-miterlimit="10" d="
			M62.177-22.244c0.712,1.359,1.163,2.868,2.304,3.978"/>
		
			<path fill-rule="evenodd" clip-rule="evenodd" fill="none" stroke="#555555" stroke-width="2" stroke-linecap="round" stroke-linejoin="round" stroke-miterlimit="10" d="
			M62.177,7.067c0.712,1.359,1.163,2.868,2.304,3.978"/>
		
			<path fill-rule="evenodd" clip-rule="evenodd" fill="none" stroke="#555555" stroke-width="2" stroke-linecap="round" stroke-linejoin="round" stroke-miterlimit="10" d="
			M72.226-24.756c-2.515,2.141-4.86,4.476-7.467,6.512"/>
		
			<path fill-rule="evenodd" clip-rule="evenodd" fill="none" stroke="#555555" stroke-width="2" stroke-linecap="round" stroke-linejoin="round" stroke-miterlimit="10" d="
			M15.489,29.051c-0.349,1.047-0.698,2.094-1.047,3.14"/>
		
			<path fill-rule="evenodd" clip-rule="evenodd" fill="none" stroke="#555555" stroke-width="2" stroke-linecap="round" stroke-linejoin="round" stroke-miterlimit="10" d="
			M60.503,34.704c-0.542,0.03-0.602,0.519-0.606,0.837c-0.039,2.375-0.021,4.75-0.021,7.224c2.86,0,5.513,0,8.269,0
			c0-2.756,0-5.409,0-8.061c-2.546,0-4.989,0-7.432,0"/>
	</g>
</g>
<g id="Layer_5">
	<path fill="#555555" d="M33.015-10.5H65.71c0.723,0,1.309-0.586,1.309-1.308s-0.586-1.308-1.309-1.308H33.015
		c-0.723,0-1.308,0.586-1.308,1.308S32.292-10.5,33.015-10.5L33.015-10.5z"/>
	<path fill="#555555" d="M19.808-12.05l-2.906,2.777l-1.178-1.179c-0.503-0.518-1.332-0.528-1.849-0.024
		c-0.518,0.503-0.529,1.332-0.025,1.849c0.008,0.009,0.017,0.017,0.025,0.025l2.083,2.083c0.503,0.503,1.315,0.511,1.829,0.02
		l3.83-3.661c0.525-0.496,0.548-1.324,0.052-1.849c-0.496-0.525-1.324-0.549-1.849-0.053C19.816-12.058,19.813-12.054,19.808-12.05
		L19.808-12.05z"/>
	<path fill="#555555" d="M17.757-18.152c-4.902,0-8.876,3.975-8.876,8.876s3.974,8.876,8.876,8.876c4.901,0,8.876-3.975,8.876-8.876
		v0C26.627-14.176,22.657-18.146,17.757-18.152z M17.757-3.016c-3.458,0-6.261-2.803-6.261-6.26c0-3.458,2.803-6.26,6.261-6.26
		c3.458,0,6.26,2.802,6.26,6.26C24.014-5.819,21.213-3.018,17.757-3.016L17.757-3.016z"/>
	<path fill="#555555" d="M33.015,11.296H65.71c0.723,0,1.309-0.585,1.309-1.308S66.433,8.68,65.71,8.68H33.015
		c-0.723,0-1.308,0.586-1.308,1.308S32.292,11.296,33.015,11.296L33.015,11.296z"/>
	<path fill="#555555" d="M19.808,9.746l-2.906,2.777l-1.178-1.178c-0.503-0.517-1.332-0.528-1.849-0.024
		c-0.518,0.503-0.529,1.331-0.026,1.849c0.009,0.009,0.017,0.017,0.026,0.026l2.083,2.083c0.503,0.503,1.315,0.511,1.829,0.02
		l3.83-3.661c0.525-0.498,0.548-1.324,0.052-1.85c-0.496-0.524-1.324-0.549-1.849-0.052C19.816,9.739,19.813,9.743,19.808,9.746
		L19.808,9.746z"/>
	<path fill="#555555" d="M17.757,3.646c-4.902,0-8.876,3.974-8.876,8.876c0,4.902,3.974,8.877,8.876,8.877
		c4.901,0,8.876-3.975,8.876-8.877l0,0C26.627,7.622,22.657,3.65,17.757,3.646z M17.757,18.782c-3.458,0-6.261-2.803-6.261-6.261
		c0-3.458,2.803-6.26,6.261-6.26c3.458,0,6.26,2.803,6.26,6.26C24.014,15.979,21.213,18.779,17.757,18.782L17.757,18.782z"/>
	<path fill="#555555" d="M19.808,31.542l-2.906,2.779l-1.178-1.178c-0.503-0.518-1.332-0.529-1.849-0.026
		c-0.518,0.504-0.529,1.332-0.026,1.85c0.009,0.008,0.017,0.018,0.026,0.025l2.083,2.082c0.503,0.503,1.315,0.513,1.829,0.021
		l3.83-3.66c0.525-0.497,0.548-1.325,0.052-1.85c-0.496-0.523-1.324-0.548-1.849-0.051C19.816,31.537,19.813,31.539,19.808,31.542
		L19.808,31.542z"/>
	<path fill="#555555" d="M17.757,25.442c-4.902,0-8.876,3.974-8.876,8.877c0,4.902,3.974,8.875,8.876,8.875
		c4.901,0,8.876-3.973,8.876-8.875l0,0C26.627,29.418,22.657,25.448,17.757,25.442z M17.757,40.578
		c-3.458,0-6.261-2.802-6.261-6.259c0-3.458,2.803-6.261,6.261-6.261c3.458,0,6.26,2.803,6.26,6.261
		c-0.003,3.454-2.804,6.257-6.26,6.262V40.578z"/>
	<path fill="#555555" d="M33.015-6.142h17.438c0.723,0,1.309-0.586,1.309-1.308c0-0.722-0.586-1.308-1.309-1.308H33.015
		c-0.723,0-1.308,0.586-1.308,1.308C31.707-6.728,32.292-6.142,33.015-6.142L33.015-6.142z"/>
	<path fill="#555555" d="M33.015,15.655h17.438c0.723,0,1.309-0.585,1.309-1.308c0-0.721-0.586-1.307-1.309-1.307H33.015
		c-0.723,0-1.308,0.585-1.308,1.307C31.707,15.07,32.292,15.655,33.015,15.655L33.015,15.655z"/>
	<path fill="#555555" d="M7.033-31.84c-0.723,0-1.308,0.585-1.308,1.308v1.373c0,0.723,0.585,1.308,1.308,1.308
		c0.721,0,1.307-0.585,1.307-1.308v-1.373C8.34-31.254,7.754-31.84,7.033-31.84z"/>
	<path fill="#555555" d="M7.033-26.328c-0.723,0-1.308,0.585-1.308,1.308v12.642c0,0.722,0.585,1.308,1.308,1.308
		c0.721,0,1.307-0.586,1.307-1.308V-25.02C8.34-25.742,7.754-26.328,7.033-26.328z"/>
	<path fill="#555555" d="M93.844,6c-1.767-0.371-3.609-0.019-5.116,0.976l-13.471,8.847v-49.074c0-4.327-3.556-7.765-7.883-7.765
		h-8.247v-4.06c0-0.723-0.586-1.308-1.308-1.308s-1.308,0.585-1.308,1.308v4.06H45.396v-4.06c0-0.723-0.586-1.308-1.308-1.308
		s-1.308,0.585-1.308,1.308v4.06H31.881v-4.06c0-0.723-0.585-1.308-1.308-1.308s-1.308,0.585-1.308,1.308v4.06H18.148v-4.06
		c0-0.723-0.585-1.308-1.307-1.308c-0.723,0-1.308,0.585-1.308,1.308v4.06H8.522c-4.283-0.031-7.78,3.417-7.811,7.7
		c0,0.021,0,0.043,0,0.065v78.687c0,4.326,3.484,7.929,7.811,7.929h58.852c4.327,0,7.883-3.603,7.883-7.929V32.104L96.201,18.35
		c3.141-2.063,4.015-6.281,1.951-9.422C97.161,7.418,95.61,6.366,93.844,6z M57.746-32.827c1.276,0,2.313,1.035,2.313,2.313
		c0,1.278-1.035,2.313-2.313,2.313c-1.278,0-2.313-1.035-2.313-2.313l0,0C55.435-31.791,56.468-32.825,57.746-32.827z
		 M44.117-32.827c1.278,0,2.313,1.036,2.313,2.313c0,1.278-1.036,2.313-2.313,2.313c-1.277,0-2.313-1.035-2.313-2.313
		C41.806-31.791,42.841-32.825,44.117-32.827L44.117-32.827z M30.488-32.827c1.278,0,2.313,1.036,2.313,2.313
		c0,1.277-1.036,2.313-2.314,2.313c-1.277,0-2.312-1.036-2.312-2.313C28.177-31.791,29.212-32.826,30.488-32.827z M16.861-32.827
		c1.277,0,2.313,1.036,2.312,2.313c0,1.278-1.036,2.313-2.313,2.313c-1.277,0-2.313-1.035-2.313-2.313
		C14.549-31.791,15.583-32.825,16.861-32.827L16.861-32.827z M72.643,45.436c-0.015,2.91-2.356,5.275-5.269,5.313H8.522
		c-2.885,0-5.195-2.428-5.195-5.313v-78.687c-0.006-2.837,2.288-5.143,5.126-5.15c0.022,0,0.046,0,0.069,0h7.011v3.136
		c-1.961,0.575-3.611,2.485-3.611,4.751c0,2.722,2.207,4.928,4.928,4.928c2.721,0,4.927-2.206,4.927-4.928
		c0.032-2.231-1.467-4.194-3.628-4.751v-3.136h11.117v3.136c-2.167,0.553-3.679,2.514-3.662,4.751c0,2.725,2.209,4.934,4.934,4.934
		s4.934-2.209,4.934-4.934c-0.039-2.195-1.488-4.114-3.59-4.751v-3.136h10.898v3.136c-1.962,0.575-3.605,2.485-3.605,4.751
		c-0.001,2.721,2.204,4.927,4.925,4.929c2.72,0.001,4.927-2.204,4.927-4.924c0-0.001,0-0.002,0-0.004
		c0.031-2.231-1.468-4.194-3.63-4.751v-3.136h11.116v3.136c-2.168,0.553-3.677,2.514-3.657,4.751
		c0.002,2.725,2.212,4.932,4.936,4.931c2.723-0.002,4.928-2.208,4.93-4.931c0-2.265-1.631-4.176-3.593-4.751v-3.136h8.247
		c2.886,0,5.269,2.265,5.269,5.149v50.792l-4.913,3.226c-0.604,0.396-0.772,1.208-0.375,1.811c0.019,0.029,0.039,0.058,0.06,0.085
		l0,0c0.42,0.538,1.182,0.664,1.751,0.29l19.447-12.771l1.581,2.408L57.246,34.227l-1.583-2.408l6.19-4.063
		c0.604-0.397,0.772-1.208,0.376-1.812s-1.207-0.772-1.811-0.375l-7.278,4.779c-0.014,0.009-0.026,0.021-0.039,0.03
		c-0.033,0.022-0.065,0.047-0.098,0.074c-0.01,0.008-0.02,0.019-0.029,0.028h-19.96c-0.723,0-1.308,0.584-1.308,1.308
		c0,0.722,0.585,1.306,1.308,1.306H51.5l-0.926,1.752c-0.04-0.006-0.08-0.008-0.122-0.008H33.015c-0.723,0-1.308,0.586-1.308,1.308
		c0,0.723,0.585,1.309,1.308,1.309h16.179l-1.513,2.857c-0.337,0.637-0.094,1.429,0.544,1.767c0.188,0.101,0.398,0.151,0.612,0.151
		c0.011,0,0.023,0,0.034,0l11.053-0.289c0.025,0,0.053-0.006,0.079-0.008c0.027-0.002,0.057-0.004,0.086-0.007
		c0.035-0.006,0.068-0.016,0.101-0.022c0.026-0.007,0.051-0.011,0.075-0.018c0.058-0.017,0.114-0.038,0.166-0.063
		c0.015-0.006,0.027-0.016,0.041-0.022c0.041-0.021,0.083-0.043,0.122-0.068c0.006-0.002,0.01-0.004,0.014-0.008l12.035-7.901
		V45.436z M57.506,39.386l-6.467,0.169l2.935-5.544L57.506,39.386z M60.264,38.821l-0.101-0.153l-1.481-2.255l32.947-21.637
		l1.583,2.408L60.264,38.821z M95.36,15.689l-4.524-6.885c1.127-0.475,2.406-0.436,3.503,0.104c0.314,0.152,0.606,0.346,0.866,0.578
		c1.752,1.521,1.938,4.175,0.417,5.927C95.54,15.51,95.453,15.602,95.36,15.689L95.36,15.689z"/>
</g>
</svg>
