<?xml version="1.0" encoding="utf-8"?>
<!-- Generator: Adobe Illustrator 16.0.0, SVG Export Plug-In . SVG Version: 6.00 Build 0)  -->
<!DOCTYPE svg PUBLIC "-//W3C//DTD SVG 1.1//EN" "http://www.w3.org/Graphics/SVG/1.1/DTD/svg11.dtd">
<svg version="1.1" id="Layer_1" xmlns="http://www.w3.org/2000/svg" xmlns:xlink="http://www.w3.org/1999/xlink" x="0px" y="0px"
	 width="100px" height="100px" viewBox="0 0 100 100" enable-background="new 0 0 100 100" xml:space="preserve">
<g id="Layer_10">
	<path fill="#8D9498" d="M35.934,71.865h-1.478c-1.383,0-2.653-0.866-3.065-2.186c-0.498-1.601,0.337-3.271,1.859-3.854
		l23.438-9.014c1.646-0.635,2.438-2.498,1.758-4.127C49.2,30.525,46.887,3.193,46.861,2.872c-0.238-2.939-4.071-3.945-5.716-1.482
		l-4.517,6.776l-6.772-4.517c-1.793-1.196-4.242-0.255-4.765,1.843l-2.051,8.197L17.358,9.9c-1.793-1.196-4.241-0.257-4.765,1.842
		l-2.051,8.195l-5.682-3.79c-2.164-1.443-5.054,0.249-4.85,2.844c0.062,0.81,1.606,20.086,7.469,39.708
		c3.491,11.688,7.806,21.048,12.826,27.818c3.521,4.748,8.918,7.222,14.372,7.222h1.09c6.001,0,11.011-4.769,11.102-10.769
		C46.963,76.863,42.02,71.865,35.934,71.865L35.934,71.865z M15.847,38.655c-0.641-1.604,0.137-3.419,1.743-4.063l15.624-6.25
		c1.6-0.642,3.417,0.138,4.062,1.743c0.639,1.6-0.14,3.417-1.743,4.062c-16.919,6.767-15.92,6.472-16.784,6.472
		C17.511,40.62,16.337,39.876,15.847,38.655z M23.033,52.896c-1.58,0.631-3.411-0.123-4.062-1.742
		c-0.641-1.604,0.138-3.42,1.743-4.063l15.622-6.25c1.602-0.642,3.419,0.14,4.062,1.743c0.642,1.6-0.138,3.418-1.741,4.062
		L23.033,52.896z M84.363,53.118c-0.813,0,0.801-0.53-21.79,8.159c-0.027-0.047-15.113,5.777-15.087,5.769
		c-1.112,0.427-1.35,1.884-0.441,2.655c9.506,8.072,7.533,23.229-3.716,28.613c-0.839,0.4-0.559,1.67,0.373,1.672
		c2.595,0.006,5.085-0.627,7.26-1.766l33.692-13.875c0.643-0.057,1.229-0.31,1.695-0.695c9.133-3.758,8.702-3.479,9.321-4.131
		C105.113,69.625,98.041,53.118,84.363,53.118z"/>
	<path fill="#8D9498" d="M80.325,36.58c-1.22,1.216-5.035,1.214-6.248,0c-1.222-1.221-3.198-1.221-4.419,0
		c-1.223,1.219-1.223,3.199,0,4.419c1.309,1.31,3.188,2.201,5.333,2.562v3.307c0,1.727,1.397,3.125,3.125,3.125
		c1.725,0,3.122-1.398,3.122-3.125v-3.769c8.201-2.785,7.967-13.765,0.472-16.871l-4.797-1.989
		c-2.497-1.032-2.944-5.491,2.118-5.491c1.527,0,2.67,0.459,3.125,0.915c1.221,1.221,3.197,1.221,4.419,0
		c1.219-1.221,1.219-3.199,0-4.419c-1.312-1.31-3.188-2.203-5.334-2.564V9.373c0-1.725-1.4-3.125-3.125-3.125
		c-1.728,0-3.125,1.4-3.125,3.125v3.769c-8.13,2.764-8.03,13.741-0.472,16.873l4.801,1.987C81.12,32.747,81.779,35.124,80.325,36.58
		z"/>
</g>
</svg>
