<?xml version="1.0" encoding="utf-8"?>
<!-- Generator: Adobe Illustrator 16.0.0, SVG Export Plug-In . SVG Version: 6.00 Build 0)  -->
<!DOCTYPE svg PUBLIC "-//W3C//DTD SVG 1.1//EN" "http://www.w3.org/Graphics/SVG/1.1/DTD/svg11.dtd">
<svg version="1.1" id="Layer_1" xmlns="http://www.w3.org/2000/svg" xmlns:xlink="http://www.w3.org/1999/xlink" x="0px" y="0px"
	 width="100px" height="82.979px" viewBox="0 0 100 82.979" enable-background="new 0 0 100 82.979" xml:space="preserve">
<g id="Layer_9">
	<g id="surface1">
		<path fill="#8D9498" d="M2.924,77.13h2.924c3.23,0,5.848-2.619,5.848-5.85V36.193c0-3.229-2.618-5.849-5.848-5.849H2.924
			C1.31,30.343,0,31.654,0,33.268v40.938C0,75.823,1.31,77.13,2.924,77.13z"/>
		<path fill="#8D9498" d="M17.544,36.193v35.089c0,0.59-0.09,1.152-0.173,1.721l17.062,8.434c2.019,1.009,4.281,1.544,6.537,1.544
			c0.897,0,26.414,0,26.414,0c2.173,0,4.298-0.603,6.147-1.746l23.941-16.926c2.576-1.939,3.104-5.613,1.168-8.19
			c-1.757-2.342-5.158-3.354-8.188-1.167L72.454,65.098c-0.419,0.222-0.884,0.334-1.358,0.334c-1.055,0-34.728,0-33.473,0
			c-1.617,0-2.924-1.307-2.924-2.924c0-1.615,1.307-2.924,2.924-2.924h26.9c3.229,0,5.85-2.619,5.85-5.849s-2.618-5.85-5.85-5.85
			H50.789l-13.86-9.239c-2.407-1.607-5.212-2.456-8.11-2.456L17.544,36.193L17.544,36.193z"/>
	</g>
	<path fill="#8D9498" d="M67.064-0.001c-11.348,0-20.58,9.23-20.58,20.579c0,11.347,9.232,20.579,20.58,20.579
		c11.349,0,20.58-9.231,20.58-20.579C87.645,9.23,78.413-0.001,67.064-0.001z M69.227,29.933v0.452c0,1.191-0.967,2.158-2.158,2.158
		c-1.19,0-2.157-0.966-2.157-2.158v-0.208c-0.995-0.174-1.903-0.546-3.052-1.297c-0.998-0.653-1.275-1.991-0.625-2.988
		c0.654-0.998,1.99-1.275,2.988-0.625c1.051,0.688,1.394,0.741,2.832,0.731c1.389-0.009,1.941-1.099,2.049-1.741
		c0.1-0.577-0.011-1.344-1.082-1.723c-1.643-0.582-3.576-1.32-4.932-2.382c-2.972-2.33-2.061-7.64,1.819-9.05V10.79
		c0-1.192,0.967-2.159,2.159-2.159c1.189,0,2.158,0.966,2.158,2.159v0.177c1.431,0.422,2.431,1.313,2.431,1.313
		c0.872,0.807,0.928,2.165,0.125,3.042c-0.804,0.877-2.165,0.938-3.043,0.137c-0.56-0.412-1.406-0.59-2.302-0.319
		c-0.578,0.175-0.733,0.771-0.768,0.95c-0.068,0.372,0.029,0.623,0.082,0.665c0.879,0.688,2.635,1.328,3.709,1.708
		C75.15,20.477,74.457,28.043,69.227,29.933L69.227,29.933z"/>
</g>
</svg>
