<?xml version="1.0" encoding="utf-8"?>
<!-- Generator: Adobe Illustrator 16.0.0, SVG Export Plug-In . SVG Version: 6.00 Build 0)  -->
<!DOCTYPE svg PUBLIC "-//W3C//DTD SVG 1.1//EN" "http://www.w3.org/Graphics/SVG/1.1/DTD/svg11.dtd">
<svg version="1.1" id="Layer_1" xmlns="http://www.w3.org/2000/svg" xmlns:xlink="http://www.w3.org/1999/xlink" x="0px" y="0px"
	 width="100px" height="109.75px" viewBox="0 0 100 109.75" enable-background="new 0 0 100 109.75" xml:space="preserve">
<g id="Layer_3">
	<g>
		<path fill="#8D9498" d="M53.561,101.227L39.077,86.743L71.07,54.751l14.48,14.481L53.561,101.227z"/>
		<polygon fill="#8D9498" points="51.927,3.565 51.927,20.601 68.964,20.601 		"/>
		<path fill="#8D9498" d="M31.749,83.852H12.171v-7.229h26.806l9.638-9.641H12.171v-7.228h43.672L72.527,43.07V27.83H44.698V0.001
			H0.003v100.231h25.796l3.783-12.961l0.519-1.775L31.749,83.852z M12.171,42.889h48.188v7.229H12.171V42.889L12.171,42.889z"/>
		<path fill="#8D9498" d="M76.182,49.64l9.315-9.316l14.481,14.482l-9.314,9.313L76.182,49.64z"/>
		<polygon fill="#8D9498" points="33.33,100.232 30.551,109.75 47.048,104.936 35.366,93.255 		"/>
	</g>
	<g display="none">
		<rect x="5.816" y="53.641" display="inline" fill="#8D9498" width="66.711" height="46.591"/>
		<rect x="61.516" y="38.55" display="inline" fill="#8D9498" width="11.014" height="61.683"/>
		<path display="inline" fill="#8D9498" d="M53.561,101.227L39.077,86.743L71.07,54.751l14.48,14.481L53.561,101.227z"/>
		<polygon display="inline" fill="#8D9498" points="51.927,3.565 51.927,20.601 68.964,20.601 		"/>
		<path display="inline" fill="#8D9498" d="M31.749,83.852H12.171v-7.229h26.806l9.638-9.641H12.171v-7.228h43.672L72.527,43.07
			V27.83H44.698V0.001H0.003v100.231h25.796l3.783-12.961l0.519-1.775L31.749,83.852z M12.171,42.889h48.188v7.229H12.171V42.889
			L12.171,42.889z"/>
		<path display="inline" fill="#8D9498" d="M76.182,49.64l9.315-9.316l14.481,14.482l-9.314,9.313L76.182,49.64z"/>
		<polygon display="inline" fill="#8D9498" points="33.33,100.232 30.551,109.75 47.048,104.936 35.366,93.255 		"/>
	</g>
	<rect x="12.171" y="59.755" display="none" fill="#8D9498" width="48.274" height="7.192"/>
	<rect x="12.171" y="76.605" display="none" fill="#8D9498" width="48.274" height="7.193"/>
</g>
</svg>
