<?xml version="1.0" encoding="utf-8"?>
<!-- Generator: Adobe Illustrator 16.0.0, SVG Export Plug-In . SVG Version: 6.00 Build 0)  -->
<!DOCTYPE svg PUBLIC "-//W3C//DTD SVG 1.1//EN" "http://www.w3.org/Graphics/SVG/1.1/DTD/svg11.dtd">
<svg version="1.1" id="Layer_1" xmlns="http://www.w3.org/2000/svg" xmlns:xlink="http://www.w3.org/1999/xlink" x="0px" y="0px"
	 width="100px" height="89.742px" viewBox="0 0 100 89.742" enable-background="new 0 0 100 89.742" xml:space="preserve">
<g id="Layer_7">
	<g>
		<path fill="#8D9498" d="M57.52,83.152V44.056l-7.523,7.525L33.17,34.757c-0.446-0.446-0.872-0.907-1.278-1.382H0v49.777h5.859
			c0-6.861,5.583-12.445,12.447-12.445c6.864,0,12.448,5.582,12.448,12.445H57.52L57.52,83.152z"/>
		<path fill="#8D9498" d="M73.637,64.121V48.748H63.379v34.404h5.857c0-6.861,5.584-12.445,12.445-12.445
			c6.864,0,12.448,5.584,12.448,12.445h5.854V67.458l-7.229-3.336L73.637,64.121L73.637,64.121L73.637,64.121z"/>
		<path fill="#8D9498" d="M85.525,48.75h-6.032v9.514h9.657L85.525,48.75z"/>
		<circle fill="#8D9498" cx="18.306" cy="83.153" r="6.588"/>
		<circle fill="#8D9498" cx="81.684" cy="83.153" r="6.588"/>
		<circle fill="#8D9498" cx="49.995" cy="17.934" r="4.757"/>
		<path fill="#8D9498" d="M37.313,30.615l12.682,12.681l12.68-12.681c3.388-3.387,5.253-7.891,5.253-12.681
			C67.928,8.044,59.883,0,49.995,0c-9.889,0-17.934,8.044-17.934,17.934C32.061,22.725,33.926,27.228,37.313,30.615L37.313,30.615z
			 M39.378,17.935c0-5.854,4.763-10.616,10.616-10.616c5.854,0,10.615,4.763,10.615,10.616s-4.762,10.616-10.615,10.616
			C44.141,28.551,39.378,23.789,39.378,17.935L39.378,17.935z"/>
	</g>
</g>
</svg>
