<?xml version="1.0" encoding="utf-8"?>
<!-- Generator: Adobe Illustrator 16.0.0, SVG Export Plug-In . SVG Version: 6.00 Build 0)  -->
<!DOCTYPE svg PUBLIC "-//W3C//DTD SVG 1.1//EN" "http://www.w3.org/Graphics/SVG/1.1/DTD/svg11.dtd">
<svg version="1.1" xmlns="http://www.w3.org/2000/svg" xmlns:xlink="http://www.w3.org/1999/xlink" x="0px" y="0px" width="60px"
	 height="60px" viewBox="0 0 60 60" enable-background="new 0 0 60 60" xml:space="preserve">
<g id="Layer_1" display="none">
	<g display="inline">
		<path fill="#FFFFFF" d="M54.707,24.758c0.971,0,1.758-0.787,1.758-1.757V8.861c0-4.86-3.949-8.846-8.851-8.846
			c-1.243,0-34.06,0-35.296,0c-4.843,0-8.783,3.94-8.783,8.783v49.398c0,1.573,1.933,2.356,3.026,1.215l2.248-2.348l2.374,2.374
			c0.686,0.687,1.798,0.687,2.484,0l2.25-2.248l2.273,2.254c0.685,0.68,1.789,0.68,2.474,0l2.309-2.289l2.31,2.289
			c0.684,0.68,1.788,0.68,2.473,0.001l2.958-2.928c2.708,2.169,6.14,3.468,9.87,3.468c8.719,0,15.813-7.094,15.813-15.813
			c0-8.144-6.188-14.868-14.11-15.72v-3.694H54.707z M52.95,8.861v12.383H42.286V8.861c0-2.94,2.393-5.332,5.332-5.332
			C50.56,3.529,52.95,5.921,52.95,8.861z M26.521,55.724l-2.311-2.291c-0.685-0.679-1.789-0.679-2.474,0l-2.308,2.289l-2.278-2.259
			c-0.687-0.682-1.795-0.68-2.479,0.005l-2.245,2.244l-2.402-2.402c-0.718-0.719-1.849-0.665-2.512,0.026L7.049,53.82V8.798
			c0-2.905,2.363-5.269,5.269-5.269h28.248c-1.124,1.484-1.792,3.331-1.792,5.332v19.604C26.441,29.877,20.513,44.38,28.231,54.031
			L26.521,55.724z M52.882,44.172c0,6.782-5.518,12.299-12.298,12.299c-6.782,0-12.299-5.517-12.299-12.299
			c0-6.78,5.517-12.298,12.299-12.298C47.364,31.874,52.882,37.392,52.882,44.172z"/>
		<path fill="#FFFFFF" d="M39.412,39.295v3.589h-3.556c-0.971,0-1.757,0.787-1.757,1.757c0,0.971,0.786,1.757,1.757,1.757h5.313
			c0.971,0,1.758-0.786,1.758-1.757v-5.346c0-0.97-0.787-1.757-1.758-1.757C40.199,37.538,39.412,38.325,39.412,39.295z"/>
		<path fill="#FFFFFF" d="M26.1,16.008c-1.681-1.31-3.874-1.513-4.363-2.397c-0.173-0.313,0.011-0.827,0.386-1.079
			c0.534-0.359,1.676-0.217,2.078,0.153c0.713,0.658,1.825,0.613,2.482-0.101c0.658-0.713,0.613-1.825-0.1-2.482
			c-0.545-0.503-1.238-0.863-1.986-1.073V8.884c0-0.97-0.787-1.756-1.757-1.756c-0.97,0-1.756,0.786-1.756,1.756v0.263
			c-2.554,0.957-3.651,3.943-2.42,6.166c0.863,1.558,2.376,2.155,3.592,2.635c0.963,0.38,2.381,0.902,2.264,1.954
			c-0.056,0.501-0.436,0.999-0.944,1.238c-0.726,0.341-2.184,0.13-3.06-0.442c-0.812-0.531-1.901-0.304-2.432,0.508
			s-0.303,1.901,0.508,2.432c0.683,0.447,1.556,0.807,2.492,1.007v0.224c0,0.971,0.787,1.757,1.756,1.757
			c0.971,0,1.757-0.787,1.757-1.757v-0.358C28.142,23.282,29.444,18.613,26.1,16.008z"/>
		<path fill="#FFFFFF" d="M21.215,30.009h-8.785c-0.97,0-1.757,0.787-1.757,1.756c0,0.971,0.787,1.758,1.757,1.758h8.785
			c0.97,0,1.757-0.787,1.757-1.758C22.972,30.796,22.186,30.009,21.215,30.009z"/>
		<path fill="#FFFFFF" d="M21.215,37.049h-8.79c-0.971,0-1.757,0.787-1.757,1.757s0.787,1.757,1.757,1.757h8.79
			c0.97,0,1.757-0.787,1.757-1.757S22.186,37.049,21.215,37.049z"/>
		<path fill="#FFFFFF" d="M21.215,44.064h-8.796c-0.971,0-1.757,0.787-1.757,1.757c0,0.971,0.787,1.758,1.757,1.758h8.796
			c0.97,0,1.757-0.787,1.757-1.758C22.972,44.852,22.186,44.064,21.215,44.064z"/>
	</g>
</g>
<g id="Layer_2">
	<path fill="#FFFFFF" d="M46.056,10.07c0.026,0.002,0.052,0.004,0.079,0.004c0.044,0,0.089-0.004,0.133-0.01
		c1.175,0.024,2.115,0.982,2.116,2.156c0,0.534,0.433,0.967,0.967,0.967c0.533,0,0.966-0.433,0.966-0.967
		c-0.002-1.921-1.34-3.583-3.216-3.996V7.296c0-0.534-0.433-0.966-0.966-0.966c-0.534,0-0.967,0.433-0.967,0.966v0.973
		c-1.983,0.53-3.268,2.449-3,4.485c0.268,2.037,2.003,3.559,4.057,3.559c1.192,0,2.159,0.967,2.159,2.159s-0.967,2.159-2.159,2.159
		s-2.158-0.967-2.158-2.159c0-0.534-0.433-0.966-0.967-0.966c-0.533,0-0.966,0.433-0.966,0.966c0.002,1.852,1.246,3.472,3.034,3.953
		v1.059c0,0.534,0.433,0.966,0.967,0.966c0.533,0,0.966-0.433,0.966-0.966v-1.015c2.041-0.447,3.418-2.36,3.192-4.437
		c-0.225-2.077-1.979-3.651-4.068-3.651c-1.159,0-2.111-0.915-2.157-2.074C44.021,11.149,44.899,10.161,46.056,10.07L46.056,10.07z"
		/>
	<path fill="#FFFFFF" d="M46.28,1.604c-5.945,0-11.02,3.879-12.92,9.074H9.374c-0.531,0-0.962,0.479-0.966,1.01L8.18,45.591H1.342
		c-0.534,0-0.992,0.385-0.992,0.92v4.303c0.012,4.051,3.202,7.377,7.248,7.561v0.021h29.838v-0.029
		c0.241,0.01,0.341,0.029,0.494,0.029h0.021c4.188-0.008,7.579-3.404,7.579-7.592V29.052c0.242,0.013,0.497,0.021,0.747,0.021
		C53.844,29.073,60,22.904,60,15.338S53.847,1.604,46.28,1.604z M7.966,56.462H7.96c-3.126-0.004-5.663-2.531-5.677-5.658v-3.281
		H30.31v3.268c0.001,2.016,0.807,3.949,2.237,5.371c0.102,0.102,0.228,0.18,0.334,0.301H7.966z M43.598,50.804
		c0,3.121-2.526,5.652-5.647,5.658h-0.018c-3.134-0.006-5.675-2.539-5.69-5.672v-4.279c0.008-0.246-0.086-0.486-0.262-0.66
		c-0.175-0.176-0.414-0.27-0.661-0.26H10.112l0.222-32.979h22.49c-0.172,0.885-0.261,1.783-0.265,2.684
		c-0.002,1.905,0.396,3.789,1.166,5.53h-9.128c-0.534,0-0.967,0.433-0.967,0.966s0.433,0.966,0.967,0.966h10.177
		c1.993,3.135,5.181,5.321,8.823,6.053V50.804z M46.28,27.141c-6.51,0-11.788-5.278-11.788-11.789
		c0-6.51,5.278-11.788,11.788-11.788c6.511,0,11.788,5.278,11.788,11.788C58.062,21.859,52.788,27.133,46.28,27.141z"/>
	<path fill="#FFFFFF" d="M18.395,27.257c-1.706,0-3.094,1.344-3.094,2.995c0,1.651,1.388,2.995,3.094,2.995s3.094-1.344,3.094-2.995
		C21.488,28.601,20.101,27.257,18.395,27.257z M18.395,31.315c-0.641,0-1.16-0.478-1.16-1.063c0-0.586,0.521-1.062,1.16-1.062
		s1.16,0.477,1.16,1.062S19.034,31.315,18.395,31.315z"/>
	<path fill="#FFFFFF" d="M23.631,30.248c0,0.534,0.433,0.967,0.967,0.967h12.885c0.533,0,0.966-0.433,0.966-0.967
		c0-0.534-0.433-0.966-0.966-0.966H24.598C24.063,29.282,23.631,29.714,23.631,30.248z"/>
	<path fill="#FFFFFF" d="M18.395,18.856c-1.706,0-3.094,1.344-3.094,2.996c0,1.651,1.388,2.995,3.094,2.995s3.094-1.344,3.094-2.995
		C21.488,20.2,20.101,18.856,18.395,18.856z M18.395,22.914c-0.641,0-1.16-0.477-1.16-1.062s0.521-1.063,1.16-1.063
		s1.16,0.477,1.16,1.063C19.555,22.438,19.034,22.915,18.395,22.914L18.395,22.914z"/>
	<path fill="#FFFFFF" d="M18.395,35.657c-1.706,0-3.094,1.344-3.094,2.996c0,1.65,1.388,2.994,3.094,2.994s3.094-1.344,3.094-2.994
		C21.488,37.001,20.101,35.657,18.395,35.657z M18.395,39.714c-0.641,0-1.16-0.475-1.16-1.061s0.521-1.063,1.16-1.063
		s1.16,0.477,1.16,1.063C19.555,39.237,19.034,39.714,18.395,39.714z"/>
	<path fill="#FFFFFF" d="M37.482,37.737H24.598c-0.534,0-0.967,0.434-0.967,0.967s0.433,0.967,0.967,0.967h12.885
		c0.533,0,0.966-0.434,0.966-0.967S38.016,37.737,37.482,37.737z"/>
</g>
</svg>
