<?xml version="1.0" encoding="utf-8"?>
<!-- Generator: Adobe Illustrator 16.0.0, SVG Export Plug-In . SVG Version: 6.00 Build 0)  -->
<!DOCTYPE svg PUBLIC "-//W3C//DTD SVG 1.1//EN" "http://www.w3.org/Graphics/SVG/1.1/DTD/svg11.dtd">
<svg version="1.1" id="Layer_1" xmlns="http://www.w3.org/2000/svg" xmlns:xlink="http://www.w3.org/1999/xlink" x="0px" y="0px"
	 width="100px" height="80.395px" viewBox="0 0 100 80.395" enable-background="new 0 0 100 80.395" xml:space="preserve">
<g id="Layer_12_copy">
	<g>
		<g>
			<path fill="#0032A0" d="M82.488,63.401c-4.687,0-8.498,3.813-8.498,8.497c0,4.687,3.813,8.496,8.498,8.496
				c4.684,0,8.496-3.812,8.496-8.496C90.984,67.214,87.172,63.401,82.488,63.401z M82.488,74.397c-1.379,0-2.5-1.121-2.5-2.499
				c0-1.379,1.121-2.499,2.5-2.499c1.377,0,2.498,1.12,2.498,2.499C84.986,73.276,83.865,74.397,82.488,74.397z"/>
			<path fill="#0032A0" d="M81.674,28.082H66.992c-1.104,0-1.998,0.896-1.998,2v38.983c0,1.104,0.895,2,1.998,2h2.121
				c0.99,0,1.865-0.714,1.992-1.693c0.785-6.013,5.58-9.74,11.381-9.74s10.6,3.729,11.381,9.74c0.129,0.979,1.004,1.693,1.994,1.693
				h2.119c1.104,0,2-0.896,2-2V49.574c0-0.472-0.166-0.924-0.467-1.283L83.205,28.799C82.826,28.344,82.266,28.082,81.674,28.082z
				 M68.992,44.075v-9.996c0-1.104,0.895-1.999,1.998-1.999h8.809c0.592,0,1.152,0.264,1.533,0.719l8.33,9.996
				c1.084,1.303,0.16,3.279-1.533,3.279H70.99C69.887,46.075,68.992,45.179,68.992,44.075z"/>
			<path fill="#0032A0" d="M2.018,71.066h5.119c0.99,0,1.867-0.714,1.995-1.694c0.784-6.012,5.58-9.74,11.38-9.74
				c5.801,0,10.597,3.729,11.38,9.74c0.128,0.98,1.004,1.694,1.995,1.694h25.109c1.105,0,2-0.896,2-2V19.086
				c0-1.104-0.896-1.999-2-1.999H2.018c-1.105,0-1.999,0.896-1.999,1.999v49.98C0.019,70.17,0.913,71.066,2.018,71.066z"/>
			<path fill="#0032A0" d="M20.511,63.401c-4.686,0-8.497,3.813-8.497,8.497c0,4.687,3.811,8.496,8.497,8.496
				c4.684,0,8.497-3.812,8.497-8.496C29.008,67.214,25.195,63.401,20.511,63.401z M20.511,74.397c-1.378,0-2.499-1.121-2.499-2.499
				c0-1.379,1.121-2.499,2.499-2.499c1.378,0,2.499,1.12,2.499,2.499C23.01,73.276,21.889,74.397,20.511,74.397z"/>
		</g>
	</g>
</g>
<g id="Layer_13">
	<g>
		<g>
			<polygon fill="#FCFCFC" points="23.195,27.626 17.565,45.079 35.018,39.449 			"/>
		</g>
	</g>
	<g>
		<g>
			<polygon fill="#FCFCFC" points="23.197,27.689 50.243,0.577 62.006,12.365 34.956,39.477 			"/>
		</g>
	</g>
</g>
<g id="Layer_13_copy">
	<g>
		<g>
			<polygon fill="#0032A0" points="23.49,29.698 18.969,43.714 32.985,39.193 			"/>
		</g>
	</g>
	<g>
		<g>
			
				<rect x="25.231" y="14.8" transform="matrix(-0.7071 0.7071 -0.7071 -0.7071 85.3735 7.9794)" fill="#0032A0" width="31.606" height="13.743"/>
		</g>
	</g>
	<g>
		<g>
			<path fill="#0032A0" d="M62.043,7.487l-6.764-6.763c-0.965-0.966-2.414-0.966-3.381,0l-2.172,2.175l10.143,10.144l2.174-2.174
				C63.01,9.902,63.01,8.453,62.043,7.487z"/>
		</g>
	</g>
</g>
</svg>
