<?xml version="1.0" encoding="utf-8"?>
<!-- Generator: Adobe Illustrator 16.0.0, SVG Export Plug-In . SVG Version: 6.00 Build 0)  -->
<!DOCTYPE svg PUBLIC "-//W3C//DTD SVG 1.1//EN" "http://www.w3.org/Graphics/SVG/1.1/DTD/svg11.dtd">
<svg version="1.1" xmlns="http://www.w3.org/2000/svg" xmlns:xlink="http://www.w3.org/1999/xlink" x="0px" y="0px" width="100px"
	 height="67.724px" viewBox="0 -61.677 100 67.724" enable-background="new 0 -61.677 100 67.724" xml:space="preserve">
<symbol  id="Notepad_-_Grey" viewBox="-2.049 -15.941 20.522 20.533">
	<g>
		<path fill="#8D9498" d="M17.879,0.797l-3.201,3.202c-0.777,0.778-2.037,0.792-2.797,0.032c-0.002-0.001-0.002-0.002-0.002-0.002
			h-0.002L0.206-7.642l-0.235-0.233l-2.02-8.066l8.058,2.021l0.753,0.767l0,0L17.911-2.002v0.001L17.913-2
			C18.672-1.239,18.659,0.02,17.879,0.797z M0.799-8.688l4.404-4.403l-4.137-1.036l-1.291,1.359L0.799-8.688z M6.013-10.366
			L3.515-7.869l8.363,8.363l2.498-2.497L6.013-10.366z"/>
	</g>
</symbol>
<g id="Layer_1" display="none">
	<g display="inline">
		<g>
			<path fill="#8D9498" d="M93.428,26.831l-2.592-10.364c0.709-0.151,1.24-0.78,1.24-1.532v-1.671c0-3.628-2.952-6.58-6.579-6.58
				H73.695V3.237C73.695,1.453,72.243,0,70.458,0H10.3C8.515,0,7.063,1.453,7.063,3.237v28.408c0,0.865,0.701,1.567,1.567,1.567
				c0.865,0,1.566-0.701,1.566-1.567V3.237c0-0.058,0.047-0.104,0.104-0.104h60.158c0.058,0,0.103,0.046,0.103,0.104v28.408
				c0,0.866,0.703,1.567,1.567,1.567c0.865,0,1.567-0.701,1.567-1.567V29.87h18.479c0.001,0,0.003,0,0.003,0
				c0.004,0,0.004,0,0.006,0c2.273,0.001,4.203,1.494,4.868,3.55H92.18c-0.865,0-1.566,0.702-1.566,1.567v3.342
				c0,2.706,2.203,4.908,4.908,4.908h1.775v6.894h-4.096c-1.346-3.886-5.04-6.685-9.377-6.685c-4.338,0-8.031,2.799-9.376,6.685
				h-0.755V38.33c0-0.866-0.701-1.565-1.566-1.565s-1.566,0.699-1.566,1.565v11.802H38.058c-1.345-3.887-5.039-6.686-9.376-6.686
				s-8.031,2.799-9.376,6.686H10.3c-0.057,0-0.104-0.048-0.104-0.104v-3.446h6.789c0.865,0,1.566-0.701,1.566-1.567
				c0-0.865-0.701-1.566-1.566-1.566H1.945c-0.865,0-1.567,0.701-1.567,1.566c0,0.866,0.701,1.567,1.567,1.567h5.117v3.446
				c0,1.785,1.453,3.236,3.238,3.236h8.462c0,0.035-0.002,0.07-0.002,0.105c0,5.471,4.451,9.922,9.922,9.922
				c5.47,0,9.921-4.451,9.921-9.922c0-0.035-0.002-0.07-0.002-0.105h35.306c0,0.035-0.003,0.07-0.003,0.105
				c0,5.471,4.451,9.922,9.922,9.922c5.472,0,9.922-4.451,9.922-9.922c0-0.035-0.002-0.07-0.002-0.105h5.119
				c0.865,0,1.566-0.701,1.566-1.565V34.987C100.432,30.861,97.389,27.434,93.428,26.831z M73.695,9.817h11.802
				c1.899,0,3.444,1.546,3.444,3.447v0.104H73.695V9.817z M73.695,26.737V16.501h13.92l2.56,10.235L73.695,26.737L73.695,26.737z
				 M28.682,60.156c-3.743,0-6.789-3.046-6.789-6.787c0-3.744,3.045-6.788,6.789-6.788c3.744,0,6.788,3.044,6.788,6.788
				C35.47,57.11,32.425,60.156,28.682,60.156z M83.825,60.156c-3.742,0-6.788-3.046-6.788-6.787c0-3.744,3.046-6.788,6.788-6.788
				c3.743,0,6.788,3.044,6.788,6.788C90.613,57.11,87.568,60.156,83.825,60.156z M97.298,40.104h-1.774
				c-0.979,0-1.775-0.797-1.775-1.774v-1.774h3.551L97.298,40.104L97.298,40.104z"/>
		</g>
	</g>
	<g display="inline">
		<g>
			<path fill="#8D9498" d="M28.682,50.131c-1.786,0-3.238,1.453-3.238,3.238c0,1.784,1.452,3.237,3.238,3.237
				c1.785,0,3.237-1.453,3.237-3.237C31.919,51.584,30.467,50.131,28.682,50.131z"/>
		</g>
	</g>
	<g display="inline">
		<g>
			<path fill="#8D9498" d="M83.825,50.131c-1.785,0-3.236,1.453-3.236,3.238c0,1.784,1.451,3.237,3.236,3.237
				c1.784,0,3.237-1.453,3.237-3.237C87.063,51.584,85.609,50.131,83.825,50.131z"/>
		</g>
	</g>
	<g display="inline">
		<g>
			<path fill="#8D9498" d="M65.443,43.446H42.05c-0.865,0-1.566,0.701-1.566,1.568c0,0.864,0.701,1.566,1.566,1.566h23.396
				c0.865,0,1.566-0.702,1.566-1.566C67.012,44.147,66.311,43.446,65.443,43.446z"/>
		</g>
	</g>
	<g display="inline">
		<g>
			<path fill="#8D9498" d="M25.339,36.763H5.287c-0.866,0-1.567,0.7-1.567,1.566c0,0.865,0.701,1.566,1.567,1.566h20.052
				c0.865,0,1.567-0.701,1.567-1.566C26.906,37.463,26.205,36.763,25.339,36.763z"/>
		</g>
	</g>
</g>
<g id="Layer_2" display="none">
	<path fill="none" stroke="#8D9498" stroke-width="2" d="M58.318,32.655c0,2.369-1.922,4.291-4.293,4.291h-16.76
		c-2.371,0-4.291-1.922-4.291-4.291V15.895c0-2.37,1.92-4.292,4.291-4.292h16.76c2.371,0,4.293,1.921,4.293,4.292V32.655z"/>
	
		<use xlink:href="#Notepad_-_Grey"  width="20.522" height="20.533" id="XMLID_1_" x="-2.049" y="-15.941" transform="matrix(1.4376 0 0 -1.4376 35.8643 17.4111)" display="inline" overflow="visible"/>
</g>
<g id="Layer_3" display="none">
	<g display="inline">
		<path fill="#555555" d="M53.56,54.767L39.077,40.284L71.07,8.292l14.482,14.481L53.56,54.767z"/>
		<polygon fill="#555555" points="51.927,-42.894 51.927,-25.858 68.964,-25.858 		"/>
		<path fill="#555555" d="M31.749,37.392H12.171v-7.229h26.806l9.638-9.64H12.171v-7.227h43.672L72.528-3.389v-15.24h-27.83v-27.829
			H0.003V53.774h25.796l3.783-12.961l0.519-1.776L31.749,37.392z M12.171-3.57h48.188v7.229H12.171V-3.57L12.171-3.57z"/>
		<path fill="#555555" d="M76.182,3.181l9.315-9.316L99.979,8.347l-9.315,9.314L76.182,3.181z"/>
		<polygon fill="#555555" points="33.33,53.774 30.551,63.291 47.048,58.477 35.366,46.796 		"/>
	</g>
	<g>
		<rect x="5.816" y="7.182" display="inline" fill="#555555" width="66.712" height="46.592"/>
		<rect x="61.515" y="-7.909" display="inline" fill="#555555" width="11.014" height="61.683"/>
		<path fill="#555555" d="M53.56,54.767L39.077,40.284L71.07,8.292l14.482,14.481L53.56,54.767z"/>
		<polygon display="inline" fill="#555555" points="51.927,-42.894 51.927,-25.858 68.964,-25.858 		"/>
		<path display="inline" fill="#555555" d="M31.749,37.392H12.171v-7.229h26.806l9.638-9.64H12.171v-7.227h43.672L72.528-3.389
			v-15.24h-27.83v-27.829H0.003V53.774h25.796l3.783-12.961l0.519-1.776L31.749,37.392z M12.171-3.57h48.188v7.229H12.171V-3.57
			L12.171-3.57z"/>
		<path fill="#555555" d="M76.182,3.181l9.315-9.316L99.979,8.347l-9.315,9.314L76.182,3.181z"/>
		<polygon fill="#555555" points="33.33,53.774 30.551,63.291 47.048,58.477 35.366,46.796 		"/>
	</g>
	<rect x="12.171" y="13.296" fill="#FFFFFF" width="48.274" height="7.192"/>
	<rect x="12.171" y="30.147" fill="#FFFFFF" width="48.274" height="7.194"/>
</g>
<g id="Layer_4" display="none">
	<g display="inline">
		
			<path fill-rule="evenodd" clip-rule="evenodd" fill="none" stroke="#555555" stroke-width="2" stroke-linecap="round" stroke-linejoin="round" stroke-miterlimit="10" d="
			M59.664,53.338c5.862,0,11.728,0,17.483,0c0-30.638,0-61.066,0-91.703c-3.801,0-7.71,0-11.621,0"/>
		
			<path fill-rule="evenodd" clip-rule="evenodd" fill="none" stroke="#555555" stroke-width="2" stroke-linecap="round" stroke-linejoin="round" stroke-miterlimit="10" d="
			M2.717-32.921c0,26.938,0,53.877,0,80.816"/>
		
			<path fill-rule="evenodd" clip-rule="evenodd" fill="none" stroke="#555555" stroke-width="2" stroke-linecap="round" stroke-linejoin="round" stroke-miterlimit="10" d="
			M85.209-32.712c0,26.869,0,53.738,0,80.607"/>
		
			<path fill-rule="evenodd" clip-rule="evenodd" fill="none" stroke="#555555" stroke-width="2" stroke-linecap="round" stroke-linejoin="round" stroke-miterlimit="10" d="
			M22.607-38.365c-3.979,0-7.959,0-11.934,0c0,17.028,0.003,33.848-0.007,50.667c-0.001,1.21,0.083,2.397,0.425,3.56"/>
		
			<path fill-rule="evenodd" clip-rule="evenodd" fill="none" stroke="#555555" stroke-width="2" stroke-linecap="round" stroke-linejoin="round" stroke-miterlimit="10" d="
			M10.464,26.748c0,8.793,0,17.586,0,26.271c1.027,0.404,1.879,0.316,2.722,0.316c9.979,0.003,19.959-0.001,29.939,0.007
			c0.771,0.001,1.562-0.149,2.303,0.203"/>
		
			<path fill-rule="evenodd" clip-rule="evenodd" fill="none" stroke="#555555" stroke-width="2" stroke-linecap="round" stroke-linejoin="round" stroke-miterlimit="10" d="
			M72.019-45.693c-18.705,0-37.407,0-56.111,0"/>
		
			<path fill-rule="evenodd" clip-rule="evenodd" fill="none" stroke="#555555" stroke-width="2" stroke-linecap="round" stroke-linejoin="round" stroke-miterlimit="10" d="
			M72.019,60.665c-18.705,0-37.407,0-56.111,0"/>
		
			<path fill-rule="evenodd" clip-rule="evenodd" fill="none" stroke="#555555" stroke-width="2" stroke-linecap="round" stroke-linejoin="round" stroke-miterlimit="10" d="
			M64.271-39.831c-0.552-2.645-1.113-3.167-3.56-3.136c-9.561,0.123-19.122-0.2-28.686,0.132c-1.641,0.057-3.348-0.085-5.023-0.123
			c-2.572-0.056-3.698,1.573-2.695,3.953c0.466,1.108-0.376,2.104,0.123,3.361c0.548,0,1.254,0.065,1.944-0.011
			c3.947-0.438,7.782,0.82,11.727,0.682c4.949-0.175,9.937,0.275,14.854-0.15c3.492-0.301,6.986-0.476,10.441-0.523
			c0.71-1.385-0.691-2.91,0.664-3.975"/>
		
			<path fill-rule="evenodd" clip-rule="evenodd" fill="none" stroke="#555555" stroke-width="2" stroke-linecap="round" stroke-linejoin="round" stroke-miterlimit="10" d="
			M24.7-40.877c0.351,0.621,0.95,0.412,1.466,0.413c11.864,0.007,23.729,0.007,35.592,0c0.516,0,1.113,0.208,1.466-0.413"/>
		
			<path fill-rule="evenodd" clip-rule="evenodd" fill="none" stroke="#555555" stroke-width="2" stroke-linecap="round" stroke-linejoin="round" stroke-miterlimit="10" d="
			M63.225-38.156c-12.841,0-25.682,0-38.524,0"/>
		
			<path fill-rule="evenodd" clip-rule="evenodd" fill="none" stroke="#555555" stroke-width="2" stroke-linecap="round" stroke-linejoin="round" stroke-miterlimit="10" d="
			M49.197-19.941c-10.329,0-20.657,0-30.986,0"/>
		
			<path fill-rule="evenodd" clip-rule="evenodd" fill="none" stroke="#555555" stroke-width="2" stroke-linecap="round" stroke-linejoin="round" stroke-miterlimit="10" d="
			M49.197-15.753c-10.329,0-20.657,0-30.986,0"/>
		
			<path fill-rule="evenodd" clip-rule="evenodd" fill="none" stroke="#555555" stroke-width="2" stroke-linecap="round" stroke-linejoin="round" stroke-miterlimit="10" d="
			M49.197-24.128c-10.329,0-20.657,0-30.986,0"/>
		
			<path fill-rule="evenodd" clip-rule="evenodd" fill="none" stroke="#555555" stroke-width="2" stroke-linecap="round" stroke-linejoin="round" stroke-miterlimit="10" d="
			M48.778,9.58c-7.607-0.07-15.214-0.146-22.821-0.206c-2.582-0.021-5.165-0.003-7.747-0.003"/>
		
			<path fill-rule="evenodd" clip-rule="evenodd" fill="none" stroke="#555555" stroke-width="2" stroke-linecap="round" stroke-linejoin="round" stroke-miterlimit="10" d="
			M48.778,5.393c-7.607-0.07-15.214-0.146-22.821-0.207c-2.582-0.021-5.165-0.004-7.747-0.004"/>
		
			<path fill-rule="evenodd" clip-rule="evenodd" fill="none" stroke="#555555" stroke-width="2" stroke-linecap="round" stroke-linejoin="round" stroke-miterlimit="10" d="
			M48.778,13.767c-7.605-0.336-15.214-0.173-22.821-0.208c-2.583-0.012-5.165-0.001-7.747-0.001"/>
		
			<path fill-rule="evenodd" clip-rule="evenodd" fill="none" stroke="#555555" stroke-width="2" stroke-linecap="round" stroke-linejoin="round" stroke-miterlimit="10" d="
			M68.669-21.93c-0.232-0.655-0.464-1.311-0.74-2.094c-2.541,0-5.193,0-7.95,0c0,2.756,0,5.409,0,8.166c2.757,0,5.409,0,8.34,0
			c-0.27-1.578,0.363-3.097-0.593-4.501"/>
		
			<path fill-rule="evenodd" clip-rule="evenodd" fill="none" stroke="#555555" stroke-width="2" stroke-linecap="round" stroke-linejoin="round" stroke-miterlimit="10" d="
			M85.209-32.921c0.542-0.659,1.43-0.628,2.092-1.071c0-2,0.024-4.025-0.007-6.048c-0.045-2.945-2.729-6.55-5.439-7.316
			c-0.323-0.091-0.695-0.012-1.043-0.012c-2.304,0-4.609,0.051-6.909-0.02c-1.271-0.039-1.567,0.967-1.592,1.697
			c-0.022,0.696,0.398,1.563,1.594,1.492c1.878-0.111,3.766-0.042,5.649-0.026c2.809,0.024,4.052,1.177,4.174,3.976
			c0.078,1.741,0.072,3.492-0.007,5.232c-0.051,1.092,0.313,1.749,1.381,1.99"/>
		
			<path fill-rule="evenodd" clip-rule="evenodd" fill="none" stroke="#555555" stroke-width="2" stroke-linecap="round" stroke-linejoin="round" stroke-miterlimit="10" d="
			M59.875,57.943c-1.328-0.932-2.398-2.684-4.431-1.087c-0.532,0.418-1.254-0.302-1.849-0.593
			c-4.924-2.412-9.277-5.692-13.607-9.002c-6.643-5.077-13.285-10.157-19.885-15.292c-3.293-2.563-6.831-4.82-9.848-7.734
			c1.33-1.989,2.554-4.065,4.699-5.567c14.232,11.841,29.975,21.811,43.18,34.968c-0.593,0.821-0.868,1.571-0.771,2.423"/>
		
			<path fill-rule="evenodd" clip-rule="evenodd" fill="none" stroke="#555555" stroke-width="2" stroke-linecap="round" stroke-linejoin="round" stroke-miterlimit="10" d="
			M15.698-45.693c-0.305-1.356-1.098-1.824-2.515-1.71c-1.803,0.146-3.626,0.034-5.441,0.036c-3.593,0.004-6.624,2.924-6.692,6.491
			C1.012-38.924,1.177-36.957,1-35.019c-0.146,1.608,1.069,1.844,1.932,1.907c0.964,0.07,1.323-0.862,1.273-1.905
			c-0.083-1.74-0.085-3.491-0.008-5.232c0.114-2.553,1.164-4.106,4.173-3.991c1.742,0.066,3.493-0.061,5.232,0.04
			c1.082,0.062,1.703-0.355,2.095-1.283"/>
		
			<path fill-rule="evenodd" clip-rule="evenodd" fill="none" stroke="#555555" stroke-width="2" stroke-linecap="round" stroke-linejoin="round" stroke-miterlimit="10" d="
			M85.416,48.104c0.479,0.614,1.411,0.214,1.885,1.224c0,1.289,0,2.964,0,4.638c0,5.371-3.207,8.578-8.583,8.583
			c-1.466,0.004-2.934-0.047-4.396,0.017c-1.381,0.059-1.965-0.929-2.025-1.902c-0.071-1.188,1.014-1.294,2.023-1.266
			c1.675,0.047,3.352,0.065,5.024,0.001c3.417-0.129,4.312-1.804,4.388-4.176c0.053-1.742,0.07-3.493-0.014-5.232
			c-0.049-1.043,0.29-1.688,1.279-1.991"/>
		
			<path fill-rule="evenodd" clip-rule="evenodd" fill="none" stroke="#555555" stroke-width="2" stroke-linecap="round" stroke-linejoin="round" stroke-miterlimit="10" d="
			M64.49,11.228c1.675-1.431,4.605-2.688,3.348-5.619c-2.513-0.838-5.444,0-7.859-0.444c-0.192,1.662,1.85-0.139,0,0
			c0.321,2.957-0.935,5.469,0.321,8.401c2.514,0,5.444,0,7.957,0c0.021-1.289-1.393-0.197,0,0c0.021-1.289,0.438-2.875-0.425-3.986"
			/>
		
			<path fill-rule="evenodd" clip-rule="evenodd" fill="none" stroke="#555555" stroke-width="2" stroke-linecap="round" stroke-linejoin="round" stroke-miterlimit="10" d="
			M2.508,48.104c-1.088,0.387-1.625,1.026-1.5,2.306c0.147,1.521,0.157,3.08,0.01,4.601c-0.343,3.564,2.335,7.351,6.934,7.527
			c1.882,0.072,3.771-0.035,5.652,0.029c1.379,0.045,1.965-0.931,2.023-1.904c0.07-1.188-1.015-1.294-2.023-1.266
			c-1.674,0.047-3.35,0.025-5.024,0.011c-2.891-0.027-4.254-1.296-4.383-4.186c-0.078-1.741-0.075-3.493,0.008-5.232
			c0.05-1.043-0.288-1.688-1.279-1.991"/>
		
			<path fill-rule="evenodd" clip-rule="evenodd" fill="none" stroke="#555555" stroke-width="2" stroke-linecap="round" stroke-linejoin="round" stroke-miterlimit="10" d="
			M12.558,26.748c-0.946,2.836-0.575,3.684,1.653,5.47c2.352,1.888,4.949,3.404,7.35,5.208c0.943,0.708,1.859,1.323,3.132,1.521
			c1.876,0.29,2.882,1.914,3.986,3.295"/>
		
			<path fill-rule="evenodd" clip-rule="evenodd" fill="none" stroke="#555555" stroke-width="2" stroke-linecap="round" stroke-linejoin="round" stroke-miterlimit="10" d="
			M23.444-39.831c-1.314,1.479-0.462,3.144-0.113,4.583c0.284,1.172,1.793,0.929,2.834,0.841c2.162-0.182,4.38,0.544,6.491-0.4"/>
		
			<path fill-rule="evenodd" clip-rule="evenodd" fill="none" stroke="#555555" stroke-width="2" stroke-linecap="round" stroke-linejoin="round" stroke-miterlimit="10" d="
			M64.48-39.831c1.553,1.467,0.4,3.142,0.105,4.585c-0.239,1.164-1.784,0.927-2.825,0.839c-2.163-0.182-4.381,0.544-6.494-0.4"/>
		
			<path fill-rule="evenodd" clip-rule="evenodd" fill="none" stroke="#555555" stroke-width="2" stroke-linecap="round" stroke-linejoin="round" stroke-miterlimit="10" d="
			M37.891,34.285c2.921,0.463,5.863,0.083,8.793,0.214c0.839,0.037,1.701-0.172,2.513,0.205"/>
		
			<path fill-rule="evenodd" clip-rule="evenodd" fill="none" stroke="#555555" stroke-width="2" stroke-linecap="round" stroke-linejoin="round" stroke-miterlimit="10" d="
			M27.423,43.079c-3.063-0.429-6.142-0.112-9.212-0.21"/>
		
			<path fill-rule="evenodd" clip-rule="evenodd" fill="none" stroke="#555555" stroke-width="2" stroke-linecap="round" stroke-linejoin="round" stroke-miterlimit="10" d="
			M13.395,19.629c-1.595-1.27-3.19-2.539-4.817-3.833c-1.158,0.764-1.864,1.855-2.617,3.09c1.465,1.557,3.269,2.684,4.922,3.989"/>
		
			<path fill-rule="evenodd" clip-rule="evenodd" fill="none" stroke="#555555" stroke-width="2" stroke-linecap="round" stroke-linejoin="round" stroke-miterlimit="10" d="
			M43.334,38.472c1.804,0.374,3.628,0.162,5.444,0.21"/>
		
			<path fill-rule="evenodd" clip-rule="evenodd" fill="none" stroke="#555555" stroke-width="2" stroke-linecap="round" stroke-linejoin="round" stroke-miterlimit="10" d="
			M41.241,39.52c-1.516,1.602-2.897,3.303-3.979,5.233"/>
		
			<path fill-rule="evenodd" clip-rule="evenodd" fill="none" stroke="#555555" stroke-width="2" stroke-linecap="round" stroke-linejoin="round" stroke-miterlimit="10" d="
			M51.081,47.477c-1.186,1.533-2.373,3.069-3.559,4.604"/>
		
			<path fill-rule="evenodd" clip-rule="evenodd" fill="none" stroke="#555555" stroke-width="2" stroke-linecap="round" stroke-linejoin="round" stroke-miterlimit="10" d="
			M62.177-22.244c0.712,1.359,1.163,2.868,2.304,3.978"/>
		
			<path fill-rule="evenodd" clip-rule="evenodd" fill="none" stroke="#555555" stroke-width="2" stroke-linecap="round" stroke-linejoin="round" stroke-miterlimit="10" d="
			M62.177,7.067c0.712,1.359,1.163,2.868,2.304,3.978"/>
		
			<path fill-rule="evenodd" clip-rule="evenodd" fill="none" stroke="#555555" stroke-width="2" stroke-linecap="round" stroke-linejoin="round" stroke-miterlimit="10" d="
			M72.226-24.756c-2.515,2.141-4.86,4.476-7.467,6.512"/>
		
			<path fill-rule="evenodd" clip-rule="evenodd" fill="none" stroke="#555555" stroke-width="2" stroke-linecap="round" stroke-linejoin="round" stroke-miterlimit="10" d="
			M15.489,29.051c-0.349,1.047-0.698,2.094-1.047,3.14"/>
		
			<path fill-rule="evenodd" clip-rule="evenodd" fill="none" stroke="#555555" stroke-width="2" stroke-linecap="round" stroke-linejoin="round" stroke-miterlimit="10" d="
			M60.503,34.704c-0.542,0.03-0.602,0.519-0.606,0.837c-0.039,2.375-0.021,4.75-0.021,7.224c2.86,0,5.513,0,8.269,0
			c0-2.756,0-5.409,0-8.061c-2.546,0-4.989,0-7.432,0"/>
	</g>
</g>
<g id="Layer_5" display="none">
	<path display="inline" fill="#555555" d="M33.015-10.5H65.71c0.723,0,1.309-0.586,1.309-1.308s-0.586-1.308-1.309-1.308H33.015
		c-0.723,0-1.308,0.586-1.308,1.308S32.292-10.5,33.015-10.5L33.015-10.5z"/>
	<path display="inline" fill="#555555" d="M19.808-12.05l-2.906,2.777l-1.178-1.179c-0.503-0.518-1.332-0.528-1.849-0.024
		c-0.518,0.503-0.529,1.332-0.025,1.849c0.008,0.009,0.017,0.017,0.025,0.025l2.083,2.083c0.503,0.503,1.315,0.511,1.829,0.02
		l3.83-3.661c0.525-0.496,0.548-1.324,0.052-1.849c-0.496-0.525-1.324-0.549-1.849-0.053C19.816-12.058,19.813-12.054,19.808-12.05
		L19.808-12.05z"/>
	<path display="inline" fill="#555555" d="M17.757-18.152c-4.902,0-8.876,3.975-8.876,8.876s3.974,8.876,8.876,8.876
		c4.901,0,8.876-3.975,8.876-8.876v0C26.627-14.176,22.657-18.146,17.757-18.152z M17.757-3.016c-3.458,0-6.261-2.803-6.261-6.26
		c0-3.458,2.803-6.26,6.261-6.26c3.458,0,6.26,2.802,6.26,6.26C24.014-5.819,21.213-3.018,17.757-3.016L17.757-3.016z"/>
	<path display="inline" fill="#555555" d="M33.015,11.296H65.71c0.723,0,1.309-0.585,1.309-1.308S66.433,8.68,65.71,8.68H33.015
		c-0.723,0-1.308,0.586-1.308,1.308S32.292,11.296,33.015,11.296L33.015,11.296z"/>
	<path display="inline" fill="#555555" d="M19.808,9.746l-2.906,2.777l-1.178-1.178c-0.503-0.517-1.332-0.528-1.849-0.024
		c-0.518,0.503-0.529,1.331-0.026,1.849c0.009,0.009,0.017,0.017,0.026,0.026l2.083,2.083c0.503,0.503,1.315,0.511,1.829,0.02
		l3.83-3.661c0.525-0.498,0.548-1.324,0.052-1.85c-0.496-0.524-1.324-0.549-1.849-0.052C19.816,9.739,19.813,9.743,19.808,9.746
		L19.808,9.746z"/>
	<path display="inline" fill="#555555" d="M17.757,3.646c-4.902,0-8.876,3.974-8.876,8.876c0,4.902,3.974,8.877,8.876,8.877
		c4.901,0,8.876-3.975,8.876-8.877l0,0C26.627,7.622,22.657,3.65,17.757,3.646z M17.757,18.782c-3.458,0-6.261-2.803-6.261-6.261
		c0-3.458,2.803-6.26,6.261-6.26c3.458,0,6.26,2.803,6.26,6.26C24.014,15.979,21.213,18.779,17.757,18.782L17.757,18.782z"/>
	<path display="inline" fill="#555555" d="M19.808,31.542l-2.906,2.779l-1.178-1.178c-0.503-0.518-1.332-0.529-1.849-0.026
		c-0.518,0.504-0.529,1.332-0.026,1.85c0.009,0.008,0.017,0.018,0.026,0.025l2.083,2.082c0.503,0.503,1.315,0.513,1.829,0.021
		l3.83-3.66c0.525-0.497,0.548-1.325,0.052-1.85c-0.496-0.523-1.324-0.548-1.849-0.051C19.816,31.537,19.813,31.539,19.808,31.542
		L19.808,31.542z"/>
	<path display="inline" fill="#555555" d="M17.757,25.442c-4.902,0-8.876,3.974-8.876,8.877c0,4.902,3.974,8.875,8.876,8.875
		c4.901,0,8.876-3.973,8.876-8.875l0,0C26.627,29.418,22.657,25.448,17.757,25.442z M17.757,40.578
		c-3.458,0-6.261-2.802-6.261-6.259c0-3.458,2.803-6.261,6.261-6.261c3.458,0,6.26,2.803,6.26,6.261
		c-0.003,3.454-2.804,6.257-6.26,6.262V40.578z"/>
	<path display="inline" fill="#555555" d="M33.015-6.142h17.438c0.723,0,1.309-0.586,1.309-1.308c0-0.722-0.586-1.308-1.309-1.308
		H33.015c-0.723,0-1.308,0.586-1.308,1.308C31.707-6.728,32.292-6.142,33.015-6.142L33.015-6.142z"/>
	<path display="inline" fill="#555555" d="M33.015,15.655h17.438c0.723,0,1.309-0.585,1.309-1.308c0-0.721-0.586-1.307-1.309-1.307
		H33.015c-0.723,0-1.308,0.585-1.308,1.307C31.707,15.07,32.292,15.655,33.015,15.655L33.015,15.655z"/>
	<path display="inline" fill="#555555" d="M7.033-31.84c-0.723,0-1.308,0.585-1.308,1.308v1.373c0,0.723,0.585,1.308,1.308,1.308
		c0.721,0,1.307-0.585,1.307-1.308v-1.373C8.34-31.254,7.754-31.84,7.033-31.84z"/>
	<path display="inline" fill="#555555" d="M7.033-26.328c-0.723,0-1.308,0.585-1.308,1.308v12.642c0,0.722,0.585,1.308,1.308,1.308
		c0.721,0,1.307-0.586,1.307-1.308V-25.02C8.34-25.742,7.754-26.328,7.033-26.328z"/>
	<path display="inline" fill="#555555" d="M93.844,6c-1.767-0.371-3.609-0.019-5.116,0.976l-13.471,8.847v-49.074
		c0-4.327-3.556-7.765-7.883-7.765h-8.247v-4.06c0-0.723-0.586-1.308-1.308-1.308s-1.308,0.585-1.308,1.308v4.06H45.396v-4.06
		c0-0.723-0.586-1.308-1.308-1.308s-1.308,0.585-1.308,1.308v4.06H31.881v-4.06c0-0.723-0.585-1.308-1.308-1.308
		s-1.308,0.585-1.308,1.308v4.06H18.148v-4.06c0-0.723-0.585-1.308-1.307-1.308c-0.723,0-1.308,0.585-1.308,1.308v4.06H8.522
		c-4.283-0.031-7.78,3.417-7.811,7.7c0,0.021,0,0.043,0,0.065v78.687c0,4.326,3.484,7.929,7.811,7.929h58.852
		c4.327,0,7.883-3.603,7.883-7.929V32.104L96.201,18.35c3.141-2.063,4.015-6.281,1.951-9.422C97.161,7.418,95.61,6.366,93.844,6z
		 M57.746-32.827c1.276,0,2.313,1.035,2.313,2.313c0,1.278-1.035,2.313-2.313,2.313c-1.278,0-2.313-1.035-2.313-2.313l0,0
		C55.435-31.791,56.468-32.825,57.746-32.827z M44.117-32.827c1.278,0,2.313,1.036,2.313,2.313c0,1.278-1.036,2.313-2.313,2.313
		c-1.277,0-2.313-1.035-2.313-2.313C41.806-31.791,42.841-32.825,44.117-32.827L44.117-32.827z M30.488-32.827
		c1.278,0,2.313,1.036,2.313,2.313c0,1.277-1.036,2.313-2.314,2.313c-1.277,0-2.312-1.036-2.312-2.313
		C28.177-31.791,29.212-32.826,30.488-32.827z M16.861-32.827c1.277,0,2.313,1.036,2.312,2.313c0,1.278-1.036,2.313-2.313,2.313
		c-1.277,0-2.313-1.035-2.313-2.313C14.549-31.791,15.583-32.825,16.861-32.827L16.861-32.827z M72.643,45.436
		c-0.015,2.91-2.356,5.275-5.269,5.313H8.522c-2.885,0-5.195-2.428-5.195-5.313v-78.687c-0.006-2.837,2.288-5.143,5.126-5.15
		c0.022,0,0.046,0,0.069,0h7.011v3.136c-1.961,0.575-3.611,2.485-3.611,4.751c0,2.722,2.207,4.928,4.928,4.928
		c2.721,0,4.927-2.206,4.927-4.928c0.032-2.231-1.467-4.194-3.628-4.751v-3.136h11.117v3.136c-2.167,0.553-3.679,2.514-3.662,4.751
		c0,2.725,2.209,4.934,4.934,4.934s4.934-2.209,4.934-4.934c-0.039-2.195-1.488-4.114-3.59-4.751v-3.136h10.898v3.136
		c-1.962,0.575-3.605,2.485-3.605,4.751c-0.001,2.721,2.204,4.927,4.925,4.929c2.72,0.001,4.927-2.204,4.927-4.924
		c0-0.001,0-0.002,0-0.004c0.031-2.231-1.468-4.194-3.63-4.751v-3.136h11.116v3.136c-2.168,0.553-3.677,2.514-3.657,4.751
		c0.002,2.725,2.212,4.932,4.936,4.931c2.723-0.002,4.928-2.208,4.93-4.931c0-2.265-1.631-4.176-3.593-4.751v-3.136h8.247
		c2.886,0,5.269,2.265,5.269,5.149v50.792l-4.913,3.226c-0.604,0.396-0.772,1.208-0.375,1.811c0.019,0.029,0.039,0.058,0.06,0.085
		l0,0c0.42,0.538,1.182,0.664,1.751,0.29l19.447-12.771l1.581,2.408L57.246,34.227l-1.583-2.408l6.19-4.063
		c0.604-0.397,0.772-1.208,0.376-1.812s-1.207-0.772-1.811-0.375l-7.278,4.779c-0.014,0.009-0.026,0.021-0.039,0.03
		c-0.033,0.022-0.065,0.047-0.098,0.074c-0.01,0.008-0.02,0.019-0.029,0.028h-19.96c-0.723,0-1.308,0.584-1.308,1.308
		c0,0.722,0.585,1.306,1.308,1.306H51.5l-0.926,1.752c-0.04-0.006-0.08-0.008-0.122-0.008H33.015c-0.723,0-1.308,0.586-1.308,1.308
		c0,0.723,0.585,1.309,1.308,1.309h16.179l-1.513,2.857c-0.337,0.637-0.094,1.429,0.544,1.767c0.188,0.101,0.398,0.151,0.612,0.151
		c0.011,0,0.023,0,0.034,0l11.053-0.289c0.025,0,0.053-0.006,0.079-0.008c0.027-0.002,0.057-0.004,0.086-0.007
		c0.035-0.006,0.068-0.016,0.101-0.022c0.026-0.007,0.051-0.011,0.075-0.018c0.058-0.017,0.114-0.038,0.166-0.063
		c0.015-0.006,0.027-0.016,0.041-0.022c0.041-0.021,0.083-0.043,0.122-0.068c0.006-0.002,0.01-0.004,0.014-0.008l12.035-7.901
		V45.436z M57.506,39.386l-6.467,0.169l2.935-5.544L57.506,39.386z M60.264,38.821l-0.101-0.153l-1.481-2.255l32.947-21.637
		l1.583,2.408L60.264,38.821z M95.36,15.689l-4.524-6.885c1.127-0.475,2.406-0.436,3.503,0.104c0.314,0.152,0.606,0.346,0.866,0.578
		c1.752,1.521,1.938,4.175,0.417,5.927C95.54,15.51,95.453,15.602,95.36,15.689L95.36,15.689z"/>
</g>
<g id="Layer_6" display="none">
	<g id="Document" display="inline">
		<path fill="#555555" d="M46.578-21.379H7.166v68.075h39.412V-21.379z M42.994,34.155c0,0.988-0.802,1.791-1.792,1.791
			c-2.964,0.009-5.365,2.409-5.374,5.374c0,0.991-0.802,1.792-1.791,1.792H19.706c-0.989,0-1.792-0.801-1.792-1.792
			c-0.009-2.965-2.41-5.365-5.374-5.374c-0.989,0-1.792-0.803-1.792-1.791V-8.839c0-0.989,0.802-1.792,1.792-1.792
			c2.964-0.008,5.365-2.41,5.374-5.375c0-0.989,0.802-1.792,1.792-1.792h14.332c0.989,0,1.791,0.802,1.791,1.792
			c0.009,2.964,2.41,5.366,5.374,5.375c0.989,0,1.792,0.802,1.792,1.792V34.155z"/>
		<circle fill="#555555" cx="26.872" cy="12.658" r="5.374"/>
		<path fill="#555555" d="M39.411-35.71h50.16v3.583h-50.16V-35.71z"/>
		<path fill="#555555" d="M0-21.379h3.583v68.075H0V-21.379z"/>
		<path fill="#555555" d="M32.425-14.213H21.318c-0.722,3.516-3.47,6.265-6.986,6.986v39.768c3.517,0.724,6.264,3.472,6.986,6.987
			h11.106c0.723-3.516,3.47-6.264,6.986-6.987V-7.227C35.895-7.948,33.147-10.697,32.425-14.213L32.425-14.213z M26.872,21.615
			c-4.947,0-8.958-4.01-8.958-8.957s4.01-8.957,8.958-8.957c4.946,0,8.957,4.01,8.957,8.957
			C35.823,17.602,31.816,21.609,26.872,21.615z"/>
		<path fill="#555555" d="M76.506,36.036c-0.698,0.698-1.833,0.698-2.533,0l-6.334-6.333l-2.532,2.534l10.133,10.135l17.735-17.736
			l-2.533-2.534L76.506,36.036z"/>
		<path fill="#555555" d="M98.527-46.458H30.454c-0.989,0-1.791,0.802-1.791,1.791v19.706h19.706c0.989,0,1.791,0.802,1.791,1.792
			v71.657c0,0.988-0.802,1.79-1.791,1.79H28.663v1.791c0,0.988,0.802,1.792,1.791,1.792h68.073c0.99,0,1.792-0.804,1.792-1.792
			v-96.736C100.319-45.657,99.518-46.458,98.527-46.458z M37.62-28.544c-0.99,0-1.792-0.802-1.792-1.792v-7.165
			c0-0.99,0.802-1.792,1.792-1.792h53.741c0.99,0,1.793,0.802,1.793,1.792v7.165c0,0.989-0.803,1.792-1.793,1.792H37.62z
			 M71.657,3.701V0.118h21.497v3.583H71.657z M93.154,10.867v3.583H71.657v-3.583H93.154z M71.657-7.048v-3.583h21.497v3.583H71.657
			z M71.657-17.796v-3.583h21.497v3.583H71.657z M60.908,3.701V0.118h7.166v3.583H60.908z M68.074,10.867v3.583h-7.166v-3.583
			H68.074z M60.908-7.048v-3.583h7.166v3.583H60.908z M60.908-17.796v-3.583h7.166v3.583H60.908z M96.774,25.904L76.506,46.169
			c-0.698,0.701-1.833,0.701-2.533,0L61.307,33.503c-0.7-0.7-0.7-1.832,0-2.533l5.065-5.066c0.699-0.699,1.834-0.699,2.533,0
			l6.334,6.333l13.934-13.934c0.7-0.7,1.834-0.7,2.533,0l5.068,5.066c0.7,0.699,0.7,1.834,0.001,2.533
			C96.774,25.903,96.774,25.903,96.774,25.904z"/>
	</g>
</g>
<g id="Layer_7" display="none">
	<g display="inline">
		<path fill="#555555" d="M57.52,36.694V-2.403l-7.525,7.526L33.17-11.702c-0.446-0.446-0.872-0.907-1.278-1.382H0v49.778h5.859
			c0-6.863,5.583-12.447,12.447-12.447s12.448,5.583,12.448,12.447H57.52L57.52,36.694z"/>
		<path fill="#555555" d="M73.636,17.662V2.289H63.379v34.405h5.857c0-6.863,5.585-12.447,12.446-12.447
			c6.865,0,12.449,5.584,12.449,12.447h5.856V21l-7.23-3.337H73.636z"/>
		<path fill="#555555" d="M85.526,2.29h-6.033v9.514h9.658L85.526,2.29z"/>
		<circle fill="#555555" cx="18.306" cy="36.694" r="6.588"/>
		<circle fill="#555555" cx="81.683" cy="36.694" r="6.588"/>
		<circle fill="#555555" cx="49.995" cy="-28.525" r="4.757"/>
		<path fill="#555555" d="M37.313-15.844L49.995-3.163l12.68-12.681c3.388-3.387,5.253-7.891,5.253-12.681
			c0-9.89-8.045-17.934-17.933-17.934c-9.889,0-17.934,8.044-17.934,17.934C32.061-23.734,33.926-19.231,37.313-15.844
			L37.313-15.844z M39.378-28.524c0-5.854,4.763-10.616,10.616-10.616c5.853,0,10.616,4.763,10.616,10.616
			s-4.762,10.616-10.616,10.616C44.141-17.908,39.378-22.67,39.378-28.524L39.378-28.524z"/>
	</g>
</g>
<g id="Layer_8" display="none">
	<path display="inline" fill="#555555" d="M60.983-31.041c-12.053,0-21.857,9.804-21.857,21.857
		c0,12.052,9.805,21.857,21.857,21.857S82.84,2.868,82.84-9.184C82.84-21.237,73.036-31.041,60.983-31.041z M60.485-11.084
		l1.988,0.62c2.096,0.655,3.505,2.572,3.505,4.769v0.674c0,2.397-1.699,4.406-3.955,4.887v0.526c0,0.919-0.746,1.665-1.664,1.665
		c-0.921,0-1.667-0.745-1.667-1.665v-0.975c-1.605-0.832-2.705-2.509-2.705-4.438c0-0.92,0.745-1.666,1.664-1.666
		c0.921,0,1.667,0.746,1.667,1.666c0,0.918,0.747,1.665,1.665,1.665s1.664-0.747,1.664-1.665v-0.674c0-0.732-0.47-1.371-1.167-1.59
		l-1.988-0.621c-2.098-0.655-3.505-2.572-3.505-4.768v-0.674c0-2.171,1.393-4.022,3.331-4.709v-0.703
		c0-0.919,0.743-1.666,1.665-1.666c0.919,0,1.664,0.746,1.664,1.666v0.703c1.938,0.687,3.331,2.539,3.331,4.709
		c0,0.919-0.745,1.665-1.665,1.665s-1.666-0.746-1.666-1.665c0-0.918-0.746-1.665-1.664-1.665s-1.665,0.747-1.665,1.665v0.674
		C59.318-11.941,59.787-11.303,60.485-11.084z M76.329,53.265c-4.565-0.032-8.27-3.753-8.27-8.325V17.12
		c0-1.053-0.966-1.844-1.997-1.63C50.604,18.713,35.795,6.832,35.795-9.184c0-16.013,14.802-27.9,30.268-24.675
		c1.031,0.216,1.997-0.577,1.997-1.63v-1.173c0-3.679-2.982-6.661-6.66-6.661H7.276c-3.679,0-6.661,2.982-6.661,6.661v81.602
		c0,6.438,5.219,11.656,11.657,11.656h64.113c0.965,0,1.737-0.819,1.662-1.8C77.979,53.92,77.209,53.271,76.329,53.265
		L76.329,53.265z M16.852-18.968h14.155c0.919,0,1.666,0.746,1.666,1.666c0,0.919-0.747,1.666-1.666,1.666H16.852
		c-0.92,0-1.666-0.746-1.666-1.666C15.186-18.223,15.932-18.968,16.852-18.968z M16.852-0.233h14.155
		c0.919,0,1.666,0.746,1.666,1.666c0,0.919-0.747,1.665-1.666,1.665H16.852c-0.92,0-1.666-0.745-1.666-1.665
		C15.186,0.512,15.932-0.233,16.852-0.233z M51.824,39.318H16.852c-0.92,0-1.666-0.748-1.666-1.667s0.746-1.664,1.666-1.664h34.972
		c0.92,0,1.663,0.745,1.663,1.664S52.744,39.318,51.824,39.318z M51.824,21.833H16.852c-0.92,0-1.666-0.747-1.666-1.666
		c0-0.92,0.746-1.666,1.666-1.666h34.972c0.92,0,1.663,0.746,1.663,1.666C53.487,21.086,52.744,21.833,51.824,21.833z
		 M88.038,42.436c0.006,4.604-3.725,8.333-8.32,8.333c-4.594,0-8.321-3.723-8.321-8.319c0-15.383-0.012-21.375,0-23.749
		c0.003-0.917,0.749-1.656,1.665-1.656h8.32c3.458,0,6.298,2.631,6.63,5.999L88.038,42.436z"/>
</g>
<g id="Layer_9" display="none">
	<g id="surface1" display="inline">
		<path fill="#555555" d="M2.924,33.808h2.924c3.23,0,5.848-2.619,5.848-5.85V-7.13c0-3.229-2.618-5.848-5.848-5.848H2.924
			C1.31-12.979,0-11.669,0-10.054v40.936C0,32.499,1.31,33.808,2.924,33.808z"/>
		<path fill="#555555" d="M17.544-7.13v35.088c0,0.59-0.09,1.154-0.173,1.721l17.062,8.434c2.019,1.008,4.281,1.543,6.537,1.543
			c0.897,0,26.414,0,26.414,0c2.173,0,4.297-0.602,6.147-1.746l23.941-16.925c2.578-1.941,3.104-5.614,1.169-8.192
			c-1.756-2.341-5.159-3.354-8.188-1.167L72.454,21.776c-0.419,0.221-0.884,0.334-1.358,0.334c-1.055,0-34.728,0-33.473,0
			c-1.617,0-2.924-1.307-2.924-2.924c0-1.615,1.307-2.924,2.924-2.924h26.901c3.23,0,5.849-2.619,5.849-5.848
			c0-3.23-2.618-5.849-5.849-5.849H50.789l-13.86-9.24c-2.407-1.608-5.212-2.456-8.11-2.456H17.544z"/>
	</g>
	<path display="inline" fill="#555555" d="M67.065-43.323c-11.347,0-20.579,9.231-20.579,20.579
		c0,11.347,9.232,20.579,20.579,20.579c11.348,0,20.579-9.231,20.579-20.579C87.645-34.092,78.413-43.323,67.065-43.323z
		 M69.227-13.389v0.452c0,1.191-0.967,2.158-2.158,2.158c-1.192,0-2.159-0.966-2.159-2.158v-0.208
		c-0.995-0.174-1.903-0.546-3.051-1.297c-0.997-0.653-1.276-1.991-0.624-2.988c0.653-0.998,1.99-1.277,2.988-0.625
		c1.051,0.688,1.392,0.741,2.831,0.731c1.39-0.009,1.942-1.098,2.05-1.741c0.098-0.577-0.011-1.344-1.082-1.723
		c-1.643-0.582-3.577-1.32-4.932-2.381c-2.972-2.331-2.06-7.639,1.819-9.05v-0.312c0-1.192,0.967-2.159,2.159-2.159
		c1.191,0,2.158,0.966,2.158,2.159v0.177c1.431,0.422,2.431,1.312,2.431,1.312c0.872,0.807,0.928,2.166,0.125,3.042
		c-0.803,0.877-2.165,0.938-3.043,0.137c-0.559-0.412-1.406-0.59-2.301-0.319c-0.579,0.174-0.734,0.771-0.767,0.95
		c-0.07,0.372,0.029,0.623,0.082,0.665c0.879,0.689,2.633,1.328,3.709,1.708C75.15-22.845,74.457-15.279,69.227-13.389
		L69.227-13.389z"/>
</g>
<g id="Layer_10" display="none">
	<path display="inline" fill="#555555" d="M35.934,28.542h-1.478c-1.383,0-2.653-0.866-3.065-2.184
		c-0.498-1.601,0.337-3.271,1.859-3.855l23.438-9.013c1.646-0.635,2.438-2.499,1.757-4.128C49.2-12.798,46.887-40.13,46.861-40.451
		c-0.238-2.939-4.071-3.945-5.716-1.482l-4.517,6.776l-6.772-4.517c-1.793-1.196-4.242-0.255-4.765,1.843l-2.051,8.197l-5.682-3.789
		c-1.793-1.196-4.241-0.257-4.765,1.842l-2.051,8.195L4.86-27.176c-2.164-1.443-5.054,0.249-4.85,2.844
		c0.062,0.81,1.606,20.086,7.469,39.708c3.491,11.688,7.806,21.048,12.826,27.819c3.521,4.748,8.918,7.221,14.372,7.221h1.09
		c6.001,0,11.011-4.768,11.102-10.767C46.963,33.54,42.02,28.542,35.934,28.542L35.934,28.542z M15.847-4.668
		c-0.641-1.603,0.137-3.419,1.743-4.062l15.624-6.25c1.6-0.642,3.417,0.138,4.062,1.743c0.639,1.6-0.14,3.417-1.743,4.062
		c-16.919,6.767-15.92,6.472-16.784,6.472C17.511-2.703,16.337-3.447,15.847-4.668z M23.033,9.574
		c-1.58,0.63-3.411-0.123-4.062-1.743c-0.641-1.603,0.138-3.42,1.743-4.062l15.622-6.25c1.602-0.642,3.419,0.14,4.062,1.743
		c0.642,1.6-0.138,3.418-1.741,4.062L23.033,9.574z M84.364,9.795c-0.814,0,0.8-0.53-21.791,8.159
		c-0.027-0.046-15.113,5.778-15.087,5.769c-1.112,0.426-1.35,1.882-0.441,2.655c9.506,8.073,7.533,23.228-3.716,28.613
		c-0.839,0.401-0.559,1.671,0.373,1.673c2.595,0.005,5.085-0.628,7.26-1.765l33.693-13.875c0.642-0.057,1.228-0.31,1.695-0.696
		c9.133-3.757,8.703-3.479,9.322-4.131C105.113,26.302,98.041,9.795,84.364,9.795z"/>
	<path display="inline" fill="#555555" d="M80.325-6.743c-1.219,1.216-5.035,1.214-6.248,0c-1.222-1.221-3.198-1.221-4.419,0
		c-1.222,1.219-1.222,3.199,0,4.419c1.309,1.31,3.187,2.201,5.333,2.562v3.307c0,1.727,1.398,3.125,3.125,3.125
		c1.725,0,3.123-1.398,3.123-3.125v-3.769c8.201-2.785,7.966-13.765,0.471-16.871l-4.797-1.989
		c-2.497-1.032-2.944-5.491,2.118-5.491c1.527,0,2.67,0.459,3.125,0.915c1.221,1.221,3.198,1.221,4.419,0
		c1.219-1.221,1.219-3.199,0-4.419c-1.312-1.31-3.189-2.203-5.334-2.564v-3.307c0-1.725-1.4-3.125-3.125-3.125
		c-1.727,0-3.125,1.4-3.125,3.125v3.769c-8.13,2.764-8.03,13.741-0.472,16.873l4.801,1.987C81.12-10.576,81.779-8.199,80.325-6.743z
		"/>
</g>
<g id="Layer_11" display="none">
	<path display="inline" fill="#555555" d="M46.829,46.269c-3.218-0.004-6.035-2.16-6.877-5.267
		c-0.029-0.107-0.029-0.215-0.051-0.323L20.305,30.091c-0.531-0.305-1.132-0.464-1.743-0.462c-0.229,0-0.457,0.021-0.682,0.063
		c-0.308,0.054-0.608,0.15-0.889,0.288c-0.64,0.304-1.173,0.796-1.528,1.41c-0.31,0.542-0.474,1.154-0.477,1.779
		c-0.009,1.272,0.667,2.452,1.769,3.088l32.431,19.406c0.85,0.531,1.833,0.813,2.834,0.814h25.064
		c0.67-0.001,1.332-0.128,1.957-0.373l6.531-2.58V34.361l-6.359-3.808c-0.828-0.496-1.775-0.759-2.742-0.759h-6.818
		c-1.086,0-2.166,0.143-3.215,0.424l-20.534,5.493c-1.441,0.399-2.484,1.648-2.62,3.138v0.582c0.012,0.223,0.046,0.442,0.103,0.658
		c0.423,1.551,1.834,2.625,3.442,2.62c0.216-0.018,1.263-0.231,2.074-0.418l18.421-4.93l0.918,3.438L49.76,45.744
		C48.799,46.002,47.819,46.178,46.829,46.269z"/>
	<path display="inline" fill="#555555" d="M89.131,28.017h10.672v28.462H89.131V28.017z"/>
	<path display="inline" fill="#555555" d="M0.186-43.139h10.673v32.02H0.186V-43.139z"/>
	<path display="inline" fill="#555555" d="M20.487-15.146c2.428,1.612,5.25,2.532,8.161,2.661v-8.596
		c-1.314-0.479-2.542-1.169-3.636-2.042l-1.042-0.845l2.241-2.764l1.032,0.835c3.525,2.818,8.55,2.743,11.99-0.177l1.245-1.067
		l10.495,10.495c1.396,1.39,3.654,1.386,5.045-0.01c1.391-1.396,1.387-3.655-0.01-5.045L43.454-34.268l2.515-2.515l4.318,4.317
		h14.678l-7.025-7.027c-2.33-2.342-5.502-3.656-8.806-3.646H26.769c-0.828,0-1.644,0.193-2.385,0.563l-3.989,1.994
		c-1.333,0.665-2.812,0.985-4.301,0.932l-1.677-0.06v23.253h4.091L20.487-15.146z"/>
	<path display="inline" fill="#555555" d="M32.206-20.335v30.563h67.597v-39.135H53.844l3.559,3.558h29.949v1.779
		c0,3.93,3.186,7.116,7.115,7.116h1.779v14.231h-1.779c-3.93,0-7.115,3.186-7.115,7.116V6.67H44.658V4.891
		c0-3.93-3.186-7.116-7.116-7.116h-1.779v-14.231h1.779c2.255-0.002,4.375-1.075,5.712-2.891l-3.035-3.035
		C37.844-20.841,35.029-20.122,32.206-20.335z"/>
	<path display="inline" fill="#555555" d="M53.502-12.063c-1.883,0.004-3.69-0.737-5.026-2.062l-2.684-2.687
		c-1.628,1.999-3.928,3.338-6.47,3.766v7.411c4.476,0.765,7.981,4.271,8.747,8.747h35.874c0.766-4.476,4.271-7.982,8.746-8.747
		v-7.411c-4.475-0.765-7.98-4.271-8.746-8.747H60.119c0.852,2.098,0.635,4.478-0.582,6.386c3.262-3.456,8.666-3.735,12.268-0.634
		c3.604,3.101,4.131,8.485,1.199,12.227c-2.93,3.742-8.285,4.518-12.158,1.761c-3.871-2.755-4.893-8.068-2.32-12.064
		C57.186-12.8,55.381-12.063,53.502-12.063z"/>
	<path display="inline" fill="#555555" d="M71.342-9.34c0,2.947-2.391,5.337-5.338,5.337s-5.336-2.39-5.336-5.337
		c0-2.947,2.389-5.336,5.336-5.336S71.342-12.287,71.342-9.34z"/>
</g>
<g id="Layer_12" display="none">
	<g display="inline">
		<g>
			<path fill="#555555" d="M82.519,21.33c-4.686,0-8.497,3.813-8.497,8.497c0,4.686,3.812,8.497,8.497,8.497
				c4.684,0,8.496-3.812,8.496-8.497C91.015,25.143,87.202,21.33,82.519,21.33z M82.519,32.325c-1.379,0-2.499-1.121-2.499-2.499
				c0-1.378,1.12-2.499,2.499-2.499c1.378,0,2.499,1.121,2.499,2.499C85.018,31.204,83.896,32.325,82.519,32.325z"/>
			<path fill="#555555" d="M81.704-13.99h-14.68c-1.105,0-1.999,0.896-1.999,2v38.984c0,1.104,0.894,2,1.999,2h2.12
				c0.99,0,1.866-0.713,1.993-1.694c0.785-6.012,5.58-9.74,11.381-9.74c5.8,0,10.598,3.728,11.38,9.74
				c0.129,0.981,1.004,1.694,1.995,1.694h2.119c1.103,0,1.999-0.896,1.999-2V7.502c0-0.47-0.166-0.923-0.467-1.283L83.236-13.273
				C82.858-13.727,82.296-13.99,81.704-13.99z M69.023,2.004v-9.996c0-1.104,0.895-1.999,1.999-1.999h8.808
				c0.592,0,1.153,0.264,1.534,0.719l8.329,9.996c1.085,1.303,0.16,3.279-1.534,3.279H71.022
				C69.918,4.003,69.023,3.108,69.023,2.004z"/>
			<path fill="#555555" d="M2.049,28.995h5.119c0.99,0,1.867-0.713,1.995-1.695c0.784-6.011,5.58-9.74,11.38-9.74
				c5.801,0,10.597,3.729,11.38,9.74c0.128,0.982,1.004,1.695,1.995,1.695h25.11c1.104,0,1.999-0.896,1.999-2v-49.98
				c0-1.104-0.896-1.999-1.999-1.999H2.049c-1.105,0-1.999,0.896-1.999,1.999v49.98C0.05,28.098,0.944,28.995,2.049,28.995z"/>
			<path fill="#555555" d="M20.542,21.33c-4.686,0-8.497,3.813-8.497,8.497c0,4.686,3.811,8.497,8.497,8.497
				c4.684,0,8.497-3.812,8.497-8.497C29.039,25.143,25.226,21.33,20.542,21.33z M20.542,32.325c-1.378,0-2.499-1.121-2.499-2.499
				c0-1.378,1.121-2.499,2.499-2.499c1.378,0,2.499,1.121,2.499,2.499C23.041,31.204,21.92,32.325,20.542,32.325z"/>
		</g>
	</g>
</g>
<g id="Layer_12_copy" display="none">
	<g display="inline">
		<g>
			<path fill="#555555" d="M82.519,1.724c-4.686,0-8.497,3.813-8.497,8.497c0,4.686,3.812,8.497,8.497,8.497
				c4.684,0,8.496-3.812,8.496-8.497C91.015,5.537,87.202,1.724,82.519,1.724z M82.519,12.72c-1.379,0-2.499-1.121-2.499-2.499
				c0-1.378,1.12-2.499,2.499-2.499c1.378,0,2.499,1.121,2.499,2.499C85.018,11.599,83.896,12.72,82.519,12.72z"/>
			<path fill="#555555" d="M81.704-33.595h-14.68c-1.105,0-1.999,0.896-1.999,2V7.389c0,1.104,0.894,2,1.999,2h2.12
				c0.99,0,1.866-0.713,1.993-1.694c0.785-6.012,5.58-9.74,11.381-9.74c5.8,0,10.598,3.728,11.38,9.74
				c0.129,0.981,1.004,1.694,1.995,1.694h2.119c1.103,0,1.999-0.896,1.999-2v-19.492c0-0.47-0.166-0.923-0.467-1.283L83.236-32.878
				C82.858-33.332,82.296-33.595,81.704-33.595z M69.023-17.602v-9.996c0-1.104,0.895-1.999,1.999-1.999h8.808
				c0.592,0,1.153,0.264,1.534,0.719l8.329,9.996c1.085,1.303,0.16,3.279-1.534,3.279H71.022
				C69.918-15.602,69.023-16.497,69.023-17.602z"/>
			<path fill="#555555" d="M2.049,9.389h5.119c0.99,0,1.867-0.713,1.995-1.695c0.784-6.011,5.58-9.74,11.38-9.74
				c5.801,0,10.597,3.729,11.38,9.74c0.128,0.982,1.004,1.695,1.995,1.695h25.11c1.104,0,1.999-0.896,1.999-2v-49.98
				c0-1.104-0.896-1.999-1.999-1.999H2.049c-1.105,0-1.999,0.896-1.999,1.999V7.39C0.05,8.493,0.944,9.389,2.049,9.389z"/>
			<path fill="#555555" d="M20.542,1.724c-4.686,0-8.497,3.813-8.497,8.497c0,4.686,3.811,8.497,8.497,8.497
				c4.684,0,8.497-3.812,8.497-8.497C29.039,5.537,25.226,1.724,20.542,1.724z M20.542,12.72c-1.378,0-2.499-1.121-2.499-2.499
				c0-1.378,1.121-2.499,2.499-2.499c1.378,0,2.499,1.121,2.499,2.499C23.041,11.599,21.92,12.72,20.542,12.72z"/>
		</g>
	</g>
</g>
<g id="Layer_13" display="none">
	<g display="inline">
		<g>
			<polygon fill="#FCFCFC" points="23.226,-34.051 17.596,-16.598 35.049,-22.228 			"/>
		</g>
	</g>
	<g display="inline">
		<g>
			<polygon fill="#FCFCFC" points="23.228,-33.988 50.274,-61.1 62.036,-49.313 34.987,-22.199 			"/>
		</g>
	</g>
</g>
<g id="Layer_13_copy" display="none">
	<g display="inline">
		<g>
			<polygon fill="#555555" points="23.521,-31.979 19,-17.963 33.016,-22.484 			"/>
		</g>
	</g>
	<g display="inline">
		<g>
			
				<rect x="25.261" y="-46.876" transform="matrix(-0.7071 0.7071 -0.7071 -0.7071 41.8146 -97.3285)" fill="#555555" width="31.606" height="13.743"/>
		</g>
	</g>
	<g display="inline">
		<g>
			<path fill="#555555" d="M62.073-54.19l-6.763-6.762c-0.965-0.966-2.414-0.966-3.38,0l-2.173,2.174L59.9-48.635l2.173-2.174
				C63.04-51.775,63.04-53.224,62.073-54.19z"/>
		</g>
	</g>
</g>
<g id="Layer_16">
	<g>
		<path fill-rule="evenodd" clip-rule="evenodd" fill="#555555" d="M68.939-29.829c0.516-2.517,1.834-3.847,3.907-4.091
			c0.419-0.822,0.721-1.687,1.243-2.386c1.12-1.489,2.876-1.757,4.339-0.541c1.596,1.333,3.043,2.849,4.521,4.321
			c3.039,3.027,6.087,6.043,9.06,9.135c1.616,1.677,1.7,3.751-0.109,5.582c-3.364,3.409-6.749,6.796-10.086,10.232
			c-1.32,1.359-2.957,1.864-4.741,1.897c-3.536,0.064-7.072,0.064-10.604,0.01c-1.926-0.029-3.855-0.144-5.768-0.372
			c-1.778-0.213-2.967-2.616-2.504-4.253c0.656-2.319,2.242-3.138,4.649-2.756c1.369,0.216,2.8,0.039,4.51,0.039
			c-0.397-0.507-0.635-0.888-0.944-1.198c-3.2-3.186-6.417-6.356-9.618-9.542c-1.249-1.245-2.572-2.435-3.672-3.802
			c-1.502-1.866-1.569-3.847,0.719-5.222c1.125-0.679,3.316-0.33,4.485,0.815c1.763,1.724,3.48,3.497,5.236,5.229
			c0.24,0.238,0.585,0.371,0.881,0.551c0.131-0.288,0.316-0.563,0.395-0.866c0.306-1.243,1.899-2.587,3.261-2.715
			C68.359-29.786,68.62-29.804,68.939-29.829z"/>
		<path fill-rule="evenodd" clip-rule="evenodd" fill="#555555" d="M46.24-61.647c8.399,0,16.801-0.024,25.198,0.013
			c2.837,0.014,5.675,0.162,8.511,0.286c1.643,0.073,2.729,1.313,2.733,3.129c0.021,6.041,0.013,12.085,0.015,18.129
			c0,1.102,0.012,2.205-0.024,3.306c-0.012,0.31-0.182,0.615-0.279,0.921c-0.271-0.144-0.589-0.24-0.811-0.441
			c-0.776-0.709-1.469-1.52-2.297-2.164c-0.532-0.415-1.227-0.801-1.877-0.849c-0.929-0.071-1.14-0.436-1.134-1.273
			c0.023-4.562,0.01-9.122,0.014-13.684c0-1.463,0.004-1.471-1.509-1.471c-16.876,0.007-33.751,0.021-50.627,0.007
			c-0.908-0.001-1.178,0.289-1.17,1.177c0.039,4.371,0,8.742,0.041,13.113c0.01,0.989-0.279,1.412-1.324,1.476
			c-1.263,0.078-2.509,0.4-3.769,0.562c-0.994,0.128-1.431-0.311-1.425-1.371c0.034-5.662,0.01-11.326,0.019-16.988
			c0.004-2.458,1.439-3.897,3.947-3.903c8.589-0.015,17.178-0.005,25.768-0.005C46.24-61.668,46.24-61.657,46.24-61.647z"/>
		<path fill-rule="evenodd" clip-rule="evenodd" fill="#555555" d="M32.743-9.725c-1.003,1.05-1.797,1.908-2.62,2.74
			c-1.459,1.473-2.935,2.932-4.404,4.395c-2.401,2.39-4.436,2.649-6.833,0.323c-3.574-3.468-7.038-7.048-10.551-10.579
			c-0.182-0.183-0.372-0.358-0.571-0.523c-1.094-0.911-1.854-1.86-1.784-3.499c0.153-3.605,0.2-7.228,0.01-10.83
			c-0.224-4.22,2.024-5.857,5.13-7.087c2.946-1.168,5.891-2.347,8.863-3.446c2.712-1.003,4.768-0.517,5.651,1.853
			c0.921,2.467-0.261,4.65-2.777,5.634c-2.332,0.912-4.652,1.86-6.938,2.879c-0.358,0.16-0.714,0.784-0.721,1.198
			c-0.075,4.029-0.057,8.058-0.103,12.086c-0.028,2.597,1.831,4.168,4.106,4.323c4.084,0.277,8.186,0.298,12.28,0.43
			C31.805-9.815,32.126-9.776,32.743-9.725z"/>
		<path fill-rule="evenodd" clip-rule="evenodd" fill="#555555" d="M23.001-17.971c0.606,0,1.088,0,1.57,0
			c11.556,0,23.114,0.016,34.67-0.027c1.054-0.004,1.771,0.344,2.461,1.054c0.608,0.628,1.314,1.165,1.978,1.741
			c-0.08,0.146-0.158,0.29-0.237,0.433c-0.577,0.027-1.157,0.096-1.736,0.069c-1.576-0.072-3.276,0.19-4.071,1.473
			c-0.949,1.538-2.161,1.313-3.464,1.313c-11.135,0.006-22.275,0.008-33.415,0.008c-3.074,0-4.236-1.187-4.235-4.309
			c0.001-2.355,0.034-4.713-0.009-7.069c-0.016-0.855,0.292-1.146,1.128-1.118c1.443,0.049,2.891,0.054,4.332,0.006
			c0.804-0.025,1.06,0.278,1.042,1.058C22.972-21.628,23.001-19.918,23.001-17.971z"/>
		<path fill-rule="evenodd" clip-rule="evenodd" fill="#555555" d="M29.715-37.841c-1.774-0.395-1.823-0.451-1.826-2.207
			c-0.003-1.254-0.028-2.511,0.028-3.762c0.016-0.37,0.173-0.919,0.438-1.061c1.16-0.613,1.484-1.736,1.959-2.8
			c0.5-1.118,1.189-2.164,1.589-3.311c0.342-0.983,0.979-1.116,1.825-1.114c3.003,0.007,6.005,0.014,9.008-0.002
			c1.874-0.011,1.764,0.205,2.541,1.801c0.699,1.436,1.309,2.917,1.992,4.363c0.136,0.288,0.383,0.636,0.657,0.729
			c1.091,0.371,1.074,1.207,1.044,2.111c-0.035,1.063-0.011,2.128-0.011,3.191c0.002,1.583-0.083,1.687-1.82,2.012
			c0,0.791-0.029,1.614,0.01,2.435c0.034,0.746-0.181,1.088-1.014,1.102c-2.288,0.039-2.341,0.074-2.285-2.191
			c0.03-1.136-0.299-1.522-1.475-1.483c-2.658,0.086-5.322,0.059-7.98,0.007c-0.984-0.019-1.554,0.192-1.372,1.313
			c0.043,0.259-0.001,0.531,0.003,0.796c0.029,1.53,0.03,1.525-1.438,1.539c-2.083,0.019-1.876,0.097-1.872-1.806
			C29.716-36.741,29.715-37.303,29.715-37.841z M45.031-46.721c-0.469-1.044-0.82-2.033-1.348-2.913
			c-0.215-0.359-0.817-0.672-1.251-0.684c-2.688-0.062-5.379-0.063-8.068-0.001c-0.413,0.012-0.969,0.375-1.189,0.739
			c-0.53,0.87-0.899,1.837-1.378,2.858C36.24-46.721,40.604-46.721,45.031-46.721z M31.345-40.298
			c0.66-0.741,1.219-1.167,1.49-1.734c0.227-0.474-0.896-1.596-1.434-1.371c-0.6,0.252-1.317,0.823-1.449,1.38
			C29.866-41.646,30.701-41.053,31.345-40.298z M45.71-40.555c0.374-0.482,1.007-0.938,1.059-1.452
			c0.067-0.684-0.392-1.543-1.241-1.384c-0.571,0.106-1.208,0.688-1.498,1.228C43.754-41.648,44.752-40.756,45.71-40.555z"/>
		<path fill-rule="evenodd" clip-rule="evenodd" fill="#555555" d="M100.044-14.159c0.273,1.196-0.675,1.924-1.413,2.668
			C94.953-7.794,91.246-4.13,87.51-0.49c-0.702,0.685-1.484,1.507-2.364,1.725c-0.838,0.208-1.926-0.129-2.76-0.531
			c-0.661-0.315-1.122-1.068-1.629-1.665c-0.911-1.077-0.916-2.6,0.042-3.561c4.418-4.436,8.851-8.854,13.286-13.269
			c0.82-0.817,2.467-1.002,3.406-0.275C98.745-17.099,100.191-16.197,100.044-14.159z"/>
		<path fill-rule="evenodd" clip-rule="evenodd" fill="#555555" d="M4.252-13.887c1.167-0.174,1.938,0.487,2.666,1.221
			c3.49,3.51,6.979,7.021,10.458,10.542c0.737,0.746,1.47,1.503,2.138,2.311c0.927,1.12,0.916,2.148-0.037,3.375
			c-0.458,0.587-0.99,1.136-1.568,1.604c-1.468,1.191-2.725,1.19-4.113-0.106c-1.933-1.807-3.79-3.692-5.668-5.557
			c-2.318-2.3-4.587-4.651-6.946-6.908c-1.501-1.435-1.506-3.505,0.058-4.692C2.193-12.817,2.76-14.126,4.252-13.887z"/>
		<path fill-rule="evenodd" clip-rule="evenodd" fill="#555555" d="M62.506-52.205c2.587,0,5.171,0.032,7.753-0.018
			c0.878-0.018,1.136,0.328,1.121,1.133c-0.018,0.767-0.221,1.188-1.113,1.183c-5.208-0.032-10.416-0.027-15.625-0.015
			c-0.83,0.002-1.147-0.365-1.163-1.167c-0.02-0.838,0.327-1.137,1.157-1.127C57.26-52.183,59.884-52.204,62.506-52.205z"/>
		<path fill-rule="evenodd" clip-rule="evenodd" fill="#555555" d="M62.377-48.567c2.618,0,5.235,0.015,7.855-0.01
			c0.709-0.006,1.146,0.107,1.154,0.971c0.008,0.859-0.296,1.291-1.162,1.292c-5.236,0.004-10.475,0.012-15.708,0.009
			c-0.845,0-1.05-0.518-1.048-1.28c0.006-0.761,0.361-0.986,1.054-0.981c2.618,0.014,5.236,0.005,7.854,0.005
			C62.377-48.562,62.377-48.565,62.377-48.567z"/>
		<path fill-rule="evenodd" clip-rule="evenodd" fill="#555555" d="M62.578-44.929c2.542,0,5.087,0.021,7.631-0.013
			c0.78-0.01,1.186,0.149,1.18,1.053c-0.009,0.901-0.399,1.229-1.228,1.226c-1.976-0.004-3.951,0-5.925,0
			c-3.115,0-6.228-0.02-9.343,0.006c-0.896,0.007-1.447-0.185-1.435-1.244c0.014-1.029,0.632-1.028,1.37-1.024
			c2.585,0.016,5.165,0.006,7.749,0.006C62.578-44.922,62.578-44.925,62.578-44.929z"/>
		<path fill-rule="evenodd" clip-rule="evenodd" fill="#555555" d="M62.504-37.648c2.583,0,5.165,0.032,7.749-0.017
			c0.945-0.019,1.157,0.387,1.125,1.226c-0.031,0.919-0.563,0.845-1.23,0.841c-4.939-0.036-9.878-0.033-14.815-0.038
			c-0.149,0-0.303,0.058-0.448,0.04c-0.401-0.05-1.014,0.004-1.154-0.223c-0.225-0.362-0.269-0.963-0.129-1.374
			c0.083-0.238,0.674-0.421,1.037-0.426c2.622-0.036,5.244-0.019,7.866-0.019C62.504-37.643,62.504-37.646,62.504-37.648z"/>
		<path fill-rule="evenodd" clip-rule="evenodd" fill="#555555" d="M62.385-41.283c2.506,0,5.017-0.005,7.521,0.004
			c0.683,0.002,1.459-0.25,1.483,0.959c0.025,1.291-0.828,1.033-1.533,1.035c-4.673,0.011-9.347,0.005-14.017,0.006
			c-0.345,0-0.722-0.085-1.02,0.032c-0.776,0.31-1.241,0.167-1.337-0.715c-0.096-0.854,0.124-1.354,1.153-1.333
			c2.58,0.052,5.165,0.017,7.749,0.017C62.385-41.28,62.385-41.281,62.385-41.283z"/>
		<path fill-rule="evenodd" clip-rule="evenodd" fill="#555555" d="M15.718-50.784c-0.001,1.444,0.017,2.887-0.006,4.331
			c-0.019,1.11-0.788,1.519-1.742,0.922c-0.7-0.437-1.137-1-1.109-1.938c0.065-2.239-0.055-4.486,0.071-6.72
			c0.036-0.633,0.528-1.419,1.052-1.809c0.958-0.71,1.723-0.208,1.731,0.998C15.728-53.595,15.719-52.189,15.718-50.784z"/>
		<path fill-rule="evenodd" clip-rule="evenodd" fill="#555555" d="M36.5-23.873c1.03-1.048,2.07-2.096,3.098-3.155
			c0.498-0.512,0.99-0.784,1.626-0.202c0.684,0.627,0.17,1.117-0.217,1.528c-1.15,1.226-2.351,2.406-3.541,3.595
			c-0.583,0.582-1.177,0.711-1.825,0.048c-0.656-0.674-1.45-1.24-1.99-1.992c-0.253-0.348-0.05-1.025-0.053-1.553
			c0.464,0.096,1.001,0.077,1.375,0.315C35.514-24.941,35.939-24.41,36.5-23.873z"/>
		<path fill-rule="evenodd" clip-rule="evenodd" fill="#FFFFFF" d="M45.031-46.721c-4.427,0-8.791,0-13.235,0
			c0.479-1.021,0.848-1.988,1.378-2.858c0.221-0.364,0.777-0.728,1.189-0.739c2.689-0.062,5.379-0.06,8.068,0.001
			c0.435,0.012,1.037,0.325,1.251,0.684C44.211-48.753,44.562-47.765,45.031-46.721z"/>
		<path fill-rule="evenodd" clip-rule="evenodd" fill="#FFFFFF" d="M31.345-40.298c-0.644-0.754-1.479-1.348-1.393-1.726
			c0.131-0.557,0.849-1.128,1.449-1.38c0.538-0.225,1.661,0.897,1.434,1.371C32.564-41.466,32.005-41.04,31.345-40.298z"/>
		<path display="none" fill-rule="evenodd" clip-rule="evenodd" fill="#FFFFFF" d="M45.71-40.555
			c-0.958-0.201-1.956-1.094-1.681-1.609c0.29-0.54,0.927-1.122,1.498-1.228c0.85-0.159,1.309,0.701,1.241,1.384
			C46.717-41.493,46.084-41.037,45.71-40.555z"/>
	</g>
</g>
</svg>
