<?xml version="1.0" encoding="utf-8"?>
<!-- Generator: Adobe Illustrator 16.0.0, SVG Export Plug-In . SVG Version: 6.00 Build 0)  -->
<!DOCTYPE svg PUBLIC "-//W3C//DTD SVG 1.1//EN" "http://www.w3.org/Graphics/SVG/1.1/DTD/svg11.dtd">
<svg version="1.1" id="Layer_1" xmlns="http://www.w3.org/2000/svg" xmlns:xlink="http://www.w3.org/1999/xlink" x="0px" y="0px"
	 width="100px" height="63.307px" viewBox="0 0 100 63.307" enable-background="new 0 0 100 63.307" xml:space="preserve">
<g id="Layer_12" display="none">
	<g display="inline">
		<g>
			<path fill="#8D9498" d="M82.52,46.313c-4.687,0-8.498,3.813-8.498,8.497c0,4.688,3.813,8.497,8.498,8.497
				s8.496-3.811,8.496-8.497C91.016,50.126,87.202,46.313,82.52,46.313z M82.52,57.308c-1.379,0-2.5-1.121-2.5-2.499
				s1.121-2.499,2.5-2.499c1.377,0,2.498,1.121,2.498,2.499S83.896,57.308,82.52,57.308z"/>
			<path fill="#8D9498" d="M81.704,10.994H67.023c-1.104,0-1.998,0.896-1.998,2v38.981c0,1.104,0.894,2,1.998,2h2.121
				c0.988,0,1.864-0.713,1.991-1.692c0.785-6.014,5.58-9.74,11.382-9.74c5.801,0,10.599,3.728,11.381,9.74
				c0.129,0.979,1.004,1.692,1.994,1.692h2.118c1.104,0,2-0.896,2-2v-19.49c0-0.471-0.165-0.924-0.468-1.282L83.236,11.71
				C82.857,11.257,82.296,10.994,81.704,10.994z M69.023,26.988v-9.995c0-1.104,0.895-1.999,1.998-1.999h8.809
				c0.592,0,1.152,0.264,1.533,0.719l8.33,9.996c1.084,1.303,0.16,3.278-1.534,3.278H71.021
				C69.918,28.988,69.023,28.092,69.023,26.988z"/>
			<path fill="#8D9498" d="M2.049,53.978h5.119c0.99,0,1.867-0.713,1.995-1.693c0.784-6.013,5.58-9.74,11.38-9.74
				c5.801,0,10.597,3.729,11.38,9.74c0.128,0.98,1.004,1.693,1.995,1.693h25.109c1.104,0,2-0.896,2-2V1.998
				c0-1.104-0.896-1.999-2-1.999H2.049c-1.105,0-1.999,0.896-1.999,1.999v49.979C0.05,53.081,0.944,53.978,2.049,53.978z"/>
			<path fill="#8D9498" d="M20.542,46.313c-4.686,0-8.497,3.813-8.497,8.497c0,4.688,3.811,8.497,8.497,8.497
				c4.684,0,8.497-3.811,8.497-8.497C29.039,50.126,25.226,46.313,20.542,46.313z M20.542,57.308c-1.378,0-2.499-1.121-2.499-2.499
				s1.121-2.499,2.499-2.499s2.499,1.121,2.499,2.499S21.92,57.308,20.542,57.308z"/>
		</g>
	</g>
</g>
<g id="Layer_12_1_">
	<g>
		<g>
			<path fill="#0032A0" d="M82.52,46.313c-4.687,0-8.498,3.813-8.498,8.497c0,4.688,3.813,8.497,8.498,8.497
				s8.496-3.811,8.496-8.497C91.016,50.126,87.202,46.313,82.52,46.313z M82.52,57.308c-1.379,0-2.5-1.121-2.5-2.499
				s1.121-2.499,2.5-2.499c1.377,0,2.498,1.121,2.498,2.499S83.896,57.308,82.52,57.308z"/>
			<path fill="#0032A0" d="M81.704,10.994H67.023c-1.104,0-1.998,0.896-1.998,2v38.981c0,1.104,0.894,2,1.998,2h2.121
				c0.988,0,1.864-0.713,1.991-1.692c0.785-6.014,5.58-9.74,11.382-9.74c5.801,0,10.599,3.728,11.381,9.74
				c0.129,0.979,1.004,1.692,1.994,1.692h2.118c1.104,0,2-0.896,2-2v-19.49c0-0.471-0.165-0.924-0.468-1.282L83.236,11.71
				C82.857,11.257,82.296,10.994,81.704,10.994z M69.023,26.988v-9.995c0-1.104,0.895-1.999,1.998-1.999h8.809
				c0.592,0,1.152,0.264,1.533,0.719l8.33,9.996c1.084,1.303,0.16,3.278-1.534,3.278H71.021
				C69.918,28.988,69.023,28.092,69.023,26.988z"/>
			<path fill="#0032A0" d="M2.049,53.978h5.119c0.99,0,1.867-0.713,1.995-1.693c0.784-6.013,5.58-9.74,11.38-9.74
				c5.801,0,10.597,3.729,11.38,9.74c0.128,0.98,1.004,1.693,1.995,1.693h25.109c1.104,0,2-0.896,2-2V1.998
				c0-1.104-0.896-1.999-2-1.999H2.049c-1.105,0-1.999,0.896-1.999,1.999v49.979C0.05,53.081,0.944,53.978,2.049,53.978z"/>
			<path fill="#0032A0" d="M20.542,46.313c-4.686,0-8.497,3.813-8.497,8.497c0,4.688,3.811,8.497,8.497,8.497
				c4.684,0,8.497-3.811,8.497-8.497C29.039,50.126,25.226,46.313,20.542,46.313z M20.542,57.308c-1.378,0-2.499-1.121-2.499-2.499
				s1.121-2.499,2.499-2.499s2.499,1.121,2.499,2.499S21.92,57.308,20.542,57.308z"/>
		</g>
	</g>
</g>
</svg>
