<?xml version="1.0" encoding="utf-8"?>
<!-- Generator: Adobe Illustrator 16.0.0, SVG Export Plug-In . SVG Version: 6.00 Build 0)  -->
<!DOCTYPE svg PUBLIC "-//W3C//DTD SVG 1.1//EN" "http://www.w3.org/Graphics/SVG/1.1/DTD/svg11.dtd">
<svg version="1.1" id="Layer_1" xmlns="http://www.w3.org/2000/svg" xmlns:xlink="http://www.w3.org/1999/xlink" x="0px" y="0px"
	 width="100px" height="80.395px" viewBox="0 0 100 80.395" enable-background="new 0 0 100 80.395" xml:space="preserve">
<symbol  id="Notepad_-_Grey" viewBox="-10.261 -10.267 20.522 20.533">
	<g>
		<path fill="#8D9498" d="M9.667,6.472L6.466,9.674c-0.777,0.778-2.037,0.792-2.797,0.032C3.667,9.705,3.667,9.704,3.667,9.704
			H3.665L-8.006-1.967L-8.241-2.2l-2.02-8.066l8.058,2.021l0.753,0.767l0,0L9.699,3.673v0.001l0.002,0.001
			C10.46,4.436,10.447,5.694,9.667,6.472z M-7.413-3.014l4.404-4.402l-4.137-1.036l-1.291,1.359L-7.413-3.014z M-2.199-4.691
			l-2.498,2.497l8.363,8.363l2.498-2.497L-2.199-4.691z"/>
	</g>
</symbol>
<g id="Layer_1_1_" display="none">
	<g display="inline">
		<g>
			<path fill="#8D9498" d="M93.428,26.831l-2.592-10.364c0.709-0.15,1.24-0.779,1.24-1.531v-1.671c0-3.629-2.952-6.58-6.579-6.58
				H73.695V3.237C73.695,1.453,72.243,0,70.458,0H10.3C8.515,0,7.063,1.453,7.063,3.237v28.408c0,0.864,0.701,1.566,1.567,1.566
				c0.865,0,1.566-0.701,1.566-1.566V3.237c0-0.058,0.047-0.104,0.104-0.104h60.158c0.058,0,0.103,0.047,0.103,0.104v28.408
				c0,0.865,0.703,1.566,1.567,1.566c0.865,0,1.567-0.701,1.567-1.566V29.87h18.479c0.001,0,0.003,0,0.003,0
				c0.005,0,0.005,0,0.007,0c2.272,0.001,4.202,1.494,4.867,3.55H92.18c-0.865,0-1.566,0.702-1.566,1.567v3.342
				c0,2.706,2.203,4.908,4.908,4.908h1.775v6.894h-4.096c-1.346-3.886-5.04-6.685-9.377-6.685c-4.338,0-8.031,2.799-9.376,6.685
				h-0.755V38.33c0-0.866-0.701-1.564-1.566-1.564s-1.566,0.698-1.566,1.564v11.802H38.058c-1.345-3.887-5.039-6.686-9.376-6.686
				s-8.031,2.799-9.376,6.686H10.3c-0.057,0-0.104-0.048-0.104-0.104v-3.446h6.789c0.865,0,1.566-0.701,1.566-1.566
				s-0.701-1.566-1.566-1.566H1.945c-0.865,0-1.567,0.701-1.567,1.566s0.701,1.566,1.567,1.566h5.117v3.446
				c0,1.785,1.453,3.236,3.238,3.236h8.462c0,0.034-0.002,0.069-0.002,0.104c0,5.471,4.451,9.922,9.922,9.922
				c5.47,0,9.921-4.451,9.921-9.922c0-0.035-0.002-0.07-0.002-0.104h35.306c0,0.034-0.003,0.069-0.003,0.104
				c0,5.471,4.451,9.922,9.922,9.922c5.472,0,9.922-4.451,9.922-9.922c0-0.035-0.002-0.07-0.002-0.104h5.119
				c0.865,0,1.566-0.701,1.566-1.565V34.987C100.432,30.861,97.389,27.434,93.428,26.831z M73.695,9.817h11.802
				c1.899,0,3.444,1.546,3.444,3.447v0.104H73.695V9.817z M73.695,26.737V16.501h13.92l2.56,10.235L73.695,26.737L73.695,26.737z
				 M28.682,60.156c-3.743,0-6.789-3.046-6.789-6.787c0-3.744,3.045-6.788,6.789-6.788c3.744,0,6.788,3.044,6.788,6.788
				C35.47,57.11,32.425,60.156,28.682,60.156z M83.825,60.156c-3.742,0-6.788-3.046-6.788-6.787c0-3.744,3.046-6.788,6.788-6.788
				c3.743,0,6.788,3.044,6.788,6.788C90.613,57.11,87.568,60.156,83.825,60.156z M97.298,40.104h-1.774
				c-0.979,0-1.774-0.797-1.774-1.774v-1.773H97.3L97.298,40.104L97.298,40.104z"/>
		</g>
	</g>
	<g display="inline">
		<g>
			<path fill="#8D9498" d="M28.682,50.131c-1.786,0-3.238,1.453-3.238,3.238c0,1.784,1.452,3.237,3.238,3.237
				c1.785,0,3.237-1.453,3.237-3.237C31.919,51.584,30.467,50.131,28.682,50.131z"/>
		</g>
	</g>
	<g display="inline">
		<g>
			<path fill="#8D9498" d="M83.825,50.131c-1.785,0-3.236,1.453-3.236,3.238c0,1.784,1.451,3.237,3.236,3.237
				c1.784,0,3.237-1.453,3.237-3.237C87.063,51.584,85.609,50.131,83.825,50.131z"/>
		</g>
	</g>
	<g display="inline">
		<g>
			<path fill="#8D9498" d="M65.443,43.446H42.05c-0.865,0-1.566,0.701-1.566,1.568c0,0.863,0.701,1.565,1.566,1.565h23.396
				c0.865,0,1.566-0.702,1.566-1.565C67.012,44.147,66.311,43.446,65.443,43.446z"/>
		</g>
	</g>
	<g display="inline">
		<g>
			<path fill="#8D9498" d="M25.339,36.763H5.287c-0.866,0-1.567,0.699-1.567,1.565c0,0.865,0.701,1.566,1.567,1.566h20.052
				c0.865,0,1.567-0.701,1.567-1.566C26.906,37.463,26.205,36.763,25.339,36.763z"/>
		</g>
	</g>
</g>
<g id="Layer_2" display="none">
	<path display="inline" fill="none" stroke="#8D9498" stroke-width="2" d="M58.318,32.655c0,2.369-1.922,4.291-4.293,4.291h-16.76
		c-2.371,0-4.291-1.922-4.291-4.291v-16.76c0-2.37,1.92-4.292,4.291-4.292h16.76c2.371,0,4.293,1.921,4.293,4.292V32.655z"/>
	
		<use xlink:href="#Notepad_-_Grey"  width="20.522" height="20.533" id="XMLID_1_" x="-10.261" y="-10.267" transform="matrix(1.4376 0 0 -1.4376 47.6694 25.5681)" display="inline" overflow="visible"/>
</g>
<g id="Layer_3" display="none">
	<g display="inline">
		<path fill="#555555" d="M53.561,54.767L39.077,40.284L71.07,8.292l14.481,14.481L53.561,54.767z"/>
		<polygon fill="#555555" points="51.927,-42.894 51.927,-25.858 68.964,-25.858 		"/>
		<path fill="#555555" d="M31.749,37.392H12.171v-7.229h26.806l9.638-9.64H12.171v-7.228h43.672L72.527-3.389v-15.24H44.698v-27.829
			H0.003V53.774h25.796l3.783-12.961l0.519-1.776L31.749,37.392z M12.171-3.57h48.188v7.229H12.171V-3.57L12.171-3.57z"/>
		<path fill="#555555" d="M76.182,3.181l9.315-9.316L99.979,8.347l-9.314,9.313L76.182,3.181z"/>
		<polygon fill="#555555" points="33.33,53.774 30.551,63.291 47.048,58.477 35.366,46.796 		"/>
	</g>
	<g display="inline">
		<rect x="5.816" y="7.182" fill="#555555" width="66.711" height="46.592"/>
		<rect x="61.516" y="-7.909" fill="#555555" width="11.014" height="61.684"/>
		<path fill="#555555" d="M53.561,54.767L39.077,40.284L71.07,8.292l14.481,14.481L53.561,54.767z"/>
		<polygon fill="#555555" points="51.927,-42.894 51.927,-25.858 68.964,-25.858 		"/>
		<path fill="#555555" d="M31.749,37.392H12.171v-7.229h26.806l9.638-9.64H12.171v-7.228h43.672L72.527-3.389v-15.24H44.698v-27.829
			H0.003V53.774h25.796l3.783-12.961l0.519-1.776L31.749,37.392z M12.171-3.57h48.188v7.229H12.171V-3.57L12.171-3.57z"/>
		<path fill="#555555" d="M76.182,3.181l9.315-9.316L99.979,8.347l-9.314,9.313L76.182,3.181z"/>
		<polygon fill="#555555" points="33.33,53.774 30.551,63.291 47.048,58.477 35.366,46.796 		"/>
	</g>
	<rect x="12.171" y="13.296" display="inline" fill="#FFFFFF" width="48.274" height="7.192"/>
	<rect x="12.171" y="30.147" display="inline" fill="#FFFFFF" width="48.274" height="7.193"/>
</g>
<g id="Layer_4" display="none">
	<g display="inline">
		<path fill="none" stroke="#555555" stroke-width="2" stroke-linecap="round" stroke-linejoin="round" stroke-miterlimit="10" d="
			M59.664,53.338c5.861,0,11.729,0,17.482,0c0-30.638,0-61.065,0-91.703c-3.801,0-7.709,0-11.621,0"/>
		<path fill="none" stroke="#555555" stroke-width="2" stroke-linecap="round" stroke-linejoin="round" stroke-miterlimit="10" d="
			M2.717-32.921c0,26.938,0,53.877,0,80.816"/>
		<path fill="none" stroke="#555555" stroke-width="2" stroke-linecap="round" stroke-linejoin="round" stroke-miterlimit="10" d="
			M85.209-32.712c0,26.869,0,53.738,0,80.607"/>
		<path fill="none" stroke="#555555" stroke-width="2" stroke-linecap="round" stroke-linejoin="round" stroke-miterlimit="10" d="
			M22.607-38.365c-3.979,0-7.959,0-11.934,0c0,17.028,0.003,33.849-0.007,50.667c-0.001,1.211,0.083,2.397,0.425,3.561"/>
		<path fill="none" stroke="#555555" stroke-width="2" stroke-linecap="round" stroke-linejoin="round" stroke-miterlimit="10" d="
			M10.464,26.748c0,8.793,0,17.586,0,26.271c1.027,0.403,1.879,0.315,2.722,0.315c9.979,0.003,19.959-0.001,29.939,0.007
			c0.771,0.001,1.562-0.148,2.303,0.203"/>
		<path fill="none" stroke="#555555" stroke-width="2" stroke-linecap="round" stroke-linejoin="round" stroke-miterlimit="10" d="
			M72.02-45.693c-18.705,0-37.408,0-56.111,0"/>
		<path fill="none" stroke="#555555" stroke-width="2" stroke-linecap="round" stroke-linejoin="round" stroke-miterlimit="10" d="
			M72.02,60.665c-18.705,0-37.408,0-56.111,0"/>
		<path fill="none" stroke="#555555" stroke-width="2" stroke-linecap="round" stroke-linejoin="round" stroke-miterlimit="10" d="
			M64.271-39.831c-0.553-2.645-1.113-3.167-3.561-3.136c-9.561,0.123-19.122-0.2-28.686,0.132c-1.641,0.058-3.348-0.085-5.023-0.123
			c-2.572-0.056-3.698,1.573-2.695,3.953c0.466,1.108-0.376,2.104,0.123,3.361c0.548,0,1.254,0.064,1.944-0.011
			c3.947-0.438,7.782,0.819,11.727,0.682c4.949-0.175,9.937,0.274,14.854-0.15c3.492-0.301,6.986-0.476,10.441-0.522
			c0.709-1.386-0.691-2.91,0.664-3.976"/>
		<path fill="none" stroke="#555555" stroke-width="2" stroke-linecap="round" stroke-linejoin="round" stroke-miterlimit="10" d="
			M24.7-40.877c0.351,0.621,0.95,0.412,1.466,0.413c11.864,0.007,23.729,0.007,35.592,0c0.516,0,1.113,0.208,1.467-0.413"/>
		<path fill="none" stroke="#555555" stroke-width="2" stroke-linecap="round" stroke-linejoin="round" stroke-miterlimit="10" d="
			M63.225-38.156c-12.841,0-25.682,0-38.523,0"/>
		<path fill="none" stroke="#555555" stroke-width="2" stroke-linecap="round" stroke-linejoin="round" stroke-miterlimit="10" d="
			M49.197-19.941c-10.329,0-20.657,0-30.986,0"/>
		<path fill="none" stroke="#555555" stroke-width="2" stroke-linecap="round" stroke-linejoin="round" stroke-miterlimit="10" d="
			M49.197-15.753c-10.329,0-20.657,0-30.986,0"/>
		<path fill="none" stroke="#555555" stroke-width="2" stroke-linecap="round" stroke-linejoin="round" stroke-miterlimit="10" d="
			M49.197-24.128c-10.329,0-20.657,0-30.986,0"/>
		<path fill="none" stroke="#555555" stroke-width="2" stroke-linecap="round" stroke-linejoin="round" stroke-miterlimit="10" d="
			M48.778,9.58c-7.607-0.07-15.214-0.146-22.821-0.206c-2.582-0.021-5.165-0.003-7.747-0.003"/>
		<path fill="none" stroke="#555555" stroke-width="2" stroke-linecap="round" stroke-linejoin="round" stroke-miterlimit="10" d="
			M48.778,5.393c-7.607-0.07-15.214-0.146-22.821-0.207c-2.582-0.021-5.165-0.004-7.747-0.004"/>
		<path fill="none" stroke="#555555" stroke-width="2" stroke-linecap="round" stroke-linejoin="round" stroke-miterlimit="10" d="
			M48.778,13.767c-7.605-0.336-15.214-0.174-22.821-0.208c-2.583-0.013-5.165-0.001-7.747-0.001"/>
		<path fill="none" stroke="#555555" stroke-width="2" stroke-linecap="round" stroke-linejoin="round" stroke-miterlimit="10" d="
			M68.669-21.93c-0.231-0.655-0.464-1.312-0.739-2.094c-2.541,0-5.193,0-7.951,0c0,2.756,0,5.408,0,8.166c2.758,0,5.41,0,8.34,0
			c-0.27-1.578,0.363-3.098-0.592-4.501"/>
		<path fill="none" stroke="#555555" stroke-width="2" stroke-linecap="round" stroke-linejoin="round" stroke-miterlimit="10" d="
			M85.209-32.921c0.542-0.659,1.43-0.628,2.092-1.071c0-2,0.024-4.024-0.007-6.048c-0.045-2.944-2.729-6.55-5.438-7.315
			c-0.323-0.091-0.695-0.013-1.043-0.013c-2.305,0-4.609,0.052-6.91-0.02c-1.271-0.039-1.566,0.967-1.592,1.697
			c-0.021,0.695,0.398,1.563,1.594,1.491c1.879-0.11,3.767-0.042,5.65-0.025c2.809,0.023,4.051,1.177,4.174,3.976
			c0.078,1.741,0.071,3.492-0.008,5.232c-0.051,1.092,0.313,1.749,1.381,1.99"/>
		<path fill="none" stroke="#555555" stroke-width="2" stroke-linecap="round" stroke-linejoin="round" stroke-miterlimit="10" d="
			M59.875,57.943c-1.328-0.933-2.398-2.685-4.432-1.087c-0.531,0.418-1.254-0.302-1.848-0.593
			c-4.925-2.412-9.278-5.692-13.608-9.003c-6.643-5.076-13.285-10.156-19.885-15.292c-3.293-2.563-6.831-4.819-9.848-7.733
			c1.33-1.989,2.554-4.065,4.699-5.567c14.232,11.841,29.975,21.812,43.18,34.968c-0.593,0.821-0.868,1.571-0.771,2.424"/>
		<path fill="none" stroke="#555555" stroke-width="2" stroke-linecap="round" stroke-linejoin="round" stroke-miterlimit="10" d="
			M15.698-45.693c-0.305-1.356-1.098-1.824-2.515-1.71c-1.803,0.146-3.626,0.033-5.441,0.035c-3.593,0.005-6.624,2.925-6.692,6.491
			C1.012-38.924,1.177-36.957,1-35.019c-0.146,1.607,1.069,1.844,1.932,1.907c0.964,0.069,1.323-0.862,1.273-1.905
			c-0.083-1.74-0.085-3.491-0.008-5.232c0.114-2.553,1.164-4.105,4.173-3.991c1.742,0.066,3.493-0.061,5.232,0.04
			c1.082,0.063,1.703-0.354,2.095-1.282"/>
		<path fill="none" stroke="#555555" stroke-width="2" stroke-linecap="round" stroke-linejoin="round" stroke-miterlimit="10" d="
			M85.416,48.104c0.479,0.613,1.411,0.214,1.885,1.224c0,1.289,0,2.964,0,4.638c0,5.371-3.207,8.578-8.583,8.583
			c-1.466,0.005-2.934-0.047-4.396,0.018c-1.381,0.059-1.965-0.929-2.025-1.902c-0.07-1.188,1.014-1.294,2.023-1.266
			c1.675,0.047,3.352,0.064,5.023,0.001c3.418-0.129,4.313-1.804,4.389-4.176c0.053-1.742,0.069-3.493-0.015-5.232
			c-0.049-1.043,0.29-1.688,1.279-1.991"/>
		<path fill="none" stroke="#555555" stroke-width="2" stroke-linecap="round" stroke-linejoin="round" stroke-miterlimit="10" d="
			M64.49,11.228c1.675-1.432,4.605-2.688,3.348-5.619c-2.513-0.838-5.443,0-7.859-0.444c-0.191,1.662,1.851-0.139,0,0
			c0.321,2.957-0.935,5.469,0.321,8.401c2.515,0,5.444,0,7.957,0c0.021-1.289-1.394-0.197,0,0c0.021-1.289,0.438-2.875-0.425-3.986"
			/>
		<path fill="none" stroke="#555555" stroke-width="2" stroke-linecap="round" stroke-linejoin="round" stroke-miterlimit="10" d="
			M2.508,48.104c-1.088,0.387-1.625,1.025-1.5,2.306c0.147,1.521,0.157,3.08,0.01,4.601c-0.343,3.564,2.335,7.352,6.934,7.527
			c1.882,0.072,3.771-0.035,5.652,0.029c1.379,0.045,1.965-0.932,2.023-1.904c0.07-1.188-1.015-1.294-2.023-1.266
			c-1.674,0.047-3.35,0.024-5.024,0.011c-2.891-0.027-4.254-1.296-4.383-4.186c-0.078-1.741-0.075-3.493,0.008-5.232
			c0.05-1.043-0.288-1.688-1.279-1.991"/>
		<path fill="none" stroke="#555555" stroke-width="2" stroke-linecap="round" stroke-linejoin="round" stroke-miterlimit="10" d="
			M12.558,26.748c-0.946,2.836-0.575,3.685,1.653,5.47c2.352,1.889,4.949,3.404,7.35,5.208c0.943,0.708,1.859,1.323,3.132,1.521
			c1.876,0.29,2.882,1.914,3.986,3.295"/>
		<path fill="none" stroke="#555555" stroke-width="2" stroke-linecap="round" stroke-linejoin="round" stroke-miterlimit="10" d="
			M23.444-39.831c-1.314,1.479-0.462,3.145-0.113,4.583c0.284,1.172,1.793,0.93,2.834,0.841c2.162-0.182,4.38,0.545,6.491-0.399"/>
		<path fill="none" stroke="#555555" stroke-width="2" stroke-linecap="round" stroke-linejoin="round" stroke-miterlimit="10" d="
			M64.48-39.831c1.553,1.467,0.399,3.143,0.104,4.585c-0.239,1.164-1.784,0.928-2.825,0.839c-2.162-0.182-4.381,0.545-6.494-0.399"
			/>
		<path fill="none" stroke="#555555" stroke-width="2" stroke-linecap="round" stroke-linejoin="round" stroke-miterlimit="10" d="
			M37.891,34.285c2.921,0.463,5.863,0.083,8.793,0.214c0.839,0.037,1.701-0.172,2.513,0.205"/>
		<path fill="none" stroke="#555555" stroke-width="2" stroke-linecap="round" stroke-linejoin="round" stroke-miterlimit="10" d="
			M27.423,43.079c-3.063-0.429-6.142-0.112-9.212-0.21"/>
		<path fill="none" stroke="#555555" stroke-width="2" stroke-linecap="round" stroke-linejoin="round" stroke-miterlimit="10" d="
			M13.395,19.629c-1.595-1.27-3.19-2.539-4.817-3.833c-1.158,0.765-1.864,1.855-2.617,3.09c1.465,1.558,3.269,2.685,4.922,3.989"/>
		<path fill="none" stroke="#555555" stroke-width="2" stroke-linecap="round" stroke-linejoin="round" stroke-miterlimit="10" d="
			M43.334,38.472c1.804,0.374,3.628,0.161,5.444,0.21"/>
		<path fill="none" stroke="#555555" stroke-width="2" stroke-linecap="round" stroke-linejoin="round" stroke-miterlimit="10" d="
			M41.241,39.52c-1.516,1.602-2.897,3.303-3.979,5.232"/>
		<path fill="none" stroke="#555555" stroke-width="2" stroke-linecap="round" stroke-linejoin="round" stroke-miterlimit="10" d="
			M51.081,47.477c-1.186,1.532-2.373,3.068-3.559,4.604"/>
		<path fill="none" stroke="#555555" stroke-width="2" stroke-linecap="round" stroke-linejoin="round" stroke-miterlimit="10" d="
			M62.177-22.244c0.712,1.359,1.163,2.868,2.304,3.979"/>
		<path fill="none" stroke="#555555" stroke-width="2" stroke-linecap="round" stroke-linejoin="round" stroke-miterlimit="10" d="
			M62.177,7.067c0.712,1.358,1.163,2.868,2.304,3.978"/>
		<path fill="none" stroke="#555555" stroke-width="2" stroke-linecap="round" stroke-linejoin="round" stroke-miterlimit="10" d="
			M72.227-24.756c-2.516,2.141-4.86,4.477-7.468,6.512"/>
		<path fill="none" stroke="#555555" stroke-width="2" stroke-linecap="round" stroke-linejoin="round" stroke-miterlimit="10" d="
			M15.489,29.051c-0.349,1.048-0.698,2.095-1.047,3.141"/>
		<path fill="none" stroke="#555555" stroke-width="2" stroke-linecap="round" stroke-linejoin="round" stroke-miterlimit="10" d="
			M60.503,34.704c-0.542,0.03-0.603,0.52-0.606,0.837c-0.039,2.375-0.021,4.75-0.021,7.225c2.86,0,5.513,0,8.269,0
			c0-2.757,0-5.409,0-8.062c-2.545,0-4.988,0-7.432,0"/>
	</g>
</g>
<g id="Layer_5" display="none">
	<path display="inline" fill="#555555" d="M33.015-10.5H65.71c0.724,0,1.31-0.586,1.31-1.308s-0.586-1.309-1.31-1.309H33.015
		c-0.723,0-1.308,0.587-1.308,1.309S32.292-10.5,33.015-10.5L33.015-10.5z"/>
	<path display="inline" fill="#555555" d="M19.808-12.05l-2.906,2.777l-1.178-1.18c-0.503-0.518-1.332-0.527-1.849-0.023
		c-0.518,0.503-0.529,1.332-0.025,1.849c0.008,0.009,0.017,0.018,0.025,0.025l2.083,2.083c0.503,0.503,1.315,0.511,1.829,0.02
		l3.83-3.661c0.525-0.496,0.548-1.323,0.052-1.849s-1.324-0.549-1.849-0.053C19.816-12.058,19.813-12.054,19.808-12.05L19.808-12.05
		z"/>
	<path display="inline" fill="#555555" d="M17.757-18.152c-4.902,0-8.876,3.975-8.876,8.876c0,4.9,3.974,8.876,8.876,8.876
		c4.901,0,8.876-3.976,8.876-8.876l0,0C26.627-14.176,22.657-18.146,17.757-18.152z M17.757-3.016c-3.458,0-6.261-2.803-6.261-6.26
		c0-3.458,2.803-6.261,6.261-6.261s6.26,2.803,6.26,6.261C24.014-5.819,21.213-3.018,17.757-3.016L17.757-3.016z"/>
	<path display="inline" fill="#555555" d="M33.015,11.296H65.71c0.724,0,1.31-0.585,1.31-1.308S66.434,8.68,65.71,8.68H33.015
		c-0.723,0-1.308,0.586-1.308,1.308S32.292,11.296,33.015,11.296L33.015,11.296z"/>
	<path display="inline" fill="#555555" d="M19.808,9.746l-2.906,2.777l-1.178-1.178c-0.503-0.518-1.332-0.528-1.849-0.024
		c-0.518,0.503-0.529,1.331-0.026,1.849c0.009,0.01,0.017,0.018,0.026,0.026l2.083,2.083c0.503,0.503,1.315,0.511,1.829,0.02
		l3.83-3.66c0.525-0.498,0.548-1.324,0.052-1.851c-0.496-0.523-1.324-0.549-1.849-0.052C19.816,9.739,19.813,9.743,19.808,9.746
		L19.808,9.746z"/>
	<path display="inline" fill="#555555" d="M17.757,3.646c-4.902,0-8.876,3.974-8.876,8.876c0,4.901,3.974,8.877,8.876,8.877
		c4.901,0,8.876-3.976,8.876-8.877l0,0C26.627,7.622,22.657,3.65,17.757,3.646z M17.757,18.782c-3.458,0-6.261-2.803-6.261-6.261
		s2.803-6.261,6.261-6.261s6.26,2.804,6.26,6.261C24.014,15.979,21.213,18.779,17.757,18.782L17.757,18.782z"/>
	<path display="inline" fill="#555555" d="M19.808,31.542l-2.906,2.779l-1.178-1.178c-0.503-0.519-1.332-0.529-1.849-0.026
		c-0.518,0.504-0.529,1.332-0.026,1.85c0.009,0.009,0.017,0.019,0.026,0.025l2.083,2.082c0.503,0.503,1.315,0.513,1.829,0.021
		l3.83-3.66c0.525-0.497,0.548-1.325,0.052-1.851c-0.496-0.522-1.324-0.548-1.849-0.051C19.816,31.537,19.813,31.539,19.808,31.542
		L19.808,31.542z"/>
	<path display="inline" fill="#555555" d="M17.757,25.442c-4.902,0-8.876,3.974-8.876,8.877c0,4.902,3.974,8.875,8.876,8.875
		c4.901,0,8.876-3.973,8.876-8.875l0,0C26.627,29.418,22.657,25.448,17.757,25.442z M17.757,40.578
		c-3.458,0-6.261-2.802-6.261-6.259c0-3.458,2.803-6.261,6.261-6.261s6.26,2.803,6.26,6.261c-0.003,3.454-2.804,6.257-6.26,6.262
		V40.578z"/>
	<path display="inline" fill="#555555" d="M33.015-6.142h17.438c0.723,0,1.309-0.586,1.309-1.309c0-0.722-0.586-1.308-1.309-1.308
		H33.015c-0.723,0-1.308,0.586-1.308,1.308C31.707-6.728,32.292-6.142,33.015-6.142L33.015-6.142z"/>
	<path display="inline" fill="#555555" d="M33.015,15.655h17.438c0.723,0,1.309-0.585,1.309-1.308c0-0.722-0.586-1.308-1.309-1.308
		H33.015c-0.723,0-1.308,0.585-1.308,1.308S32.292,15.655,33.015,15.655L33.015,15.655z"/>
	<path display="inline" fill="#555555" d="M7.033-31.84c-0.723,0-1.308,0.585-1.308,1.308v1.373c0,0.724,0.585,1.309,1.308,1.309
		c0.721,0,1.307-0.585,1.307-1.309v-1.373C8.34-31.254,7.754-31.84,7.033-31.84z"/>
	<path display="inline" fill="#555555" d="M7.033-26.328c-0.723,0-1.308,0.585-1.308,1.309v12.642c0,0.722,0.585,1.309,1.308,1.309
		c0.721,0,1.307-0.587,1.307-1.309V-25.02C8.34-25.742,7.754-26.328,7.033-26.328z"/>
	<path display="inline" fill="#555555" d="M93.844,6c-1.767-0.371-3.609-0.019-5.115,0.977l-13.472,8.847v-49.074
		c0-4.327-3.556-7.765-7.883-7.765h-8.247v-4.061c0-0.723-0.586-1.308-1.309-1.308c-0.721,0-1.307,0.585-1.307,1.308v4.061H45.396
		v-4.061c0-0.723-0.586-1.308-1.308-1.308c-0.722,0-1.308,0.585-1.308,1.308v4.061H31.881v-4.061c0-0.723-0.585-1.308-1.308-1.308
		c-0.723,0-1.308,0.585-1.308,1.308v4.061H18.148v-4.061c0-0.723-0.585-1.308-1.307-1.308c-0.723,0-1.308,0.585-1.308,1.308v4.061
		H8.522c-4.283-0.031-7.78,3.417-7.811,7.7c0,0.021,0,0.043,0,0.064v78.688c0,4.326,3.484,7.929,7.811,7.929h58.852
		c4.327,0,7.883-3.603,7.883-7.929V32.104L96.201,18.35c3.141-2.063,4.015-6.281,1.951-9.422C97.161,7.418,95.609,6.366,93.844,6z
		 M57.746-32.827c1.275,0,2.313,1.035,2.313,2.313s-1.035,2.313-2.313,2.313c-1.278,0-2.313-1.034-2.313-2.313l0,0
		C55.436-31.791,56.468-32.825,57.746-32.827z M44.117-32.827c1.278,0,2.313,1.036,2.313,2.313c0,1.278-1.036,2.313-2.313,2.313
		c-1.277,0-2.313-1.034-2.313-2.313C41.806-31.791,42.841-32.825,44.117-32.827L44.117-32.827z M30.488-32.827
		c1.278,0,2.313,1.036,2.313,2.313s-1.036,2.313-2.314,2.313c-1.277,0-2.312-1.035-2.312-2.313
		C28.177-31.791,29.212-32.826,30.488-32.827z M16.861-32.827c1.277,0,2.313,1.036,2.312,2.313c0,1.278-1.036,2.313-2.313,2.313
		c-1.277,0-2.313-1.034-2.313-2.313C14.549-31.791,15.583-32.825,16.861-32.827L16.861-32.827z M72.643,45.436
		c-0.015,2.91-2.355,5.274-5.269,5.313H8.522c-2.885,0-5.195-2.428-5.195-5.313v-78.688c-0.006-2.837,2.288-5.143,5.126-5.149
		c0.022,0,0.046,0,0.069,0h7.011v3.136c-1.961,0.575-3.611,2.485-3.611,4.751c0,2.722,2.207,4.928,4.928,4.928
		c2.721,0,4.927-2.206,4.927-4.928c0.032-2.231-1.467-4.194-3.628-4.751v-3.136h11.117v3.136c-2.167,0.553-3.679,2.514-3.662,4.751
		c0,2.725,2.209,4.934,4.934,4.934s4.934-2.209,4.934-4.934c-0.039-2.195-1.488-4.114-3.59-4.751v-3.136H42.78v3.136
		c-1.962,0.575-3.605,2.485-3.605,4.751c-0.001,2.721,2.204,4.927,4.925,4.929c2.72,0.001,4.927-2.204,4.927-4.924
		c0-0.001,0-0.002,0-0.004c0.031-2.231-1.468-4.194-3.63-4.751V-38.4h11.117v3.136c-2.168,0.553-3.678,2.514-3.658,4.751
		c0.002,2.725,2.213,4.932,4.937,4.931c2.724-0.002,4.929-2.208,4.931-4.931c0-2.265-1.632-4.176-3.594-4.751V-38.4h8.247
		c2.886,0,5.269,2.265,5.269,5.148v50.792l-4.912,3.227c-0.604,0.396-0.772,1.208-0.375,1.811c0.019,0.029,0.039,0.058,0.06,0.085
		l0,0c0.42,0.538,1.183,0.664,1.751,0.29l19.447-12.771l1.58,2.407L57.246,34.227l-1.583-2.408l6.19-4.063
		c0.604-0.396,0.771-1.208,0.375-1.812c-0.396-0.604-1.207-0.772-1.811-0.375l-7.277,4.779c-0.015,0.009-0.027,0.021-0.039,0.029
		c-0.033,0.022-0.065,0.047-0.099,0.074c-0.01,0.008-0.021,0.02-0.028,0.028h-19.96c-0.723,0-1.308,0.584-1.308,1.308
		c0,0.722,0.585,1.306,1.308,1.306H51.5l-0.926,1.753c-0.04-0.007-0.08-0.009-0.122-0.009H33.015c-0.723,0-1.308,0.586-1.308,1.309
		s0.585,1.309,1.308,1.309h16.179l-1.513,2.857c-0.337,0.637-0.094,1.429,0.544,1.767c0.188,0.102,0.398,0.151,0.612,0.151
		c0.011,0,0.023,0,0.034,0l11.053-0.289c0.025,0,0.053-0.006,0.079-0.008s0.058-0.004,0.086-0.008
		c0.035-0.006,0.068-0.016,0.101-0.021c0.026-0.007,0.052-0.011,0.076-0.019c0.058-0.017,0.113-0.037,0.166-0.063
		c0.014-0.006,0.026-0.016,0.041-0.022c0.041-0.021,0.082-0.043,0.121-0.067c0.006-0.002,0.01-0.004,0.014-0.008l12.035-7.901
		V45.436z M57.506,39.385l-6.467,0.17l2.936-5.545L57.506,39.385z M60.264,38.821l-0.101-0.153l-1.481-2.255l32.947-21.637
		l1.583,2.408L60.264,38.821z M95.359,15.689l-4.523-6.885c1.127-0.476,2.406-0.437,3.503,0.104
		c0.313,0.152,0.606,0.346,0.866,0.578c1.752,1.521,1.938,4.175,0.417,5.927C95.54,15.51,95.453,15.602,95.359,15.689L95.359,15.689
		z"/>
</g>
<g id="Layer_6" display="none">
	<g id="Document" display="inline">
		<path fill="#555555" d="M46.578-21.379H7.166v68.075h39.412V-21.379z M42.994,34.155c0,0.988-0.802,1.791-1.792,1.791
			c-2.964,0.009-5.365,2.409-5.374,5.374c0,0.991-0.802,1.792-1.791,1.792H19.706c-0.989,0-1.792-0.801-1.792-1.792
			c-0.009-2.965-2.41-5.365-5.374-5.374c-0.989,0-1.792-0.803-1.792-1.791V-8.839c0-0.989,0.802-1.792,1.792-1.792
			c2.964-0.008,5.365-2.41,5.374-5.375c0-0.989,0.802-1.792,1.792-1.792h14.332c0.989,0,1.791,0.802,1.791,1.792
			c0.009,2.964,2.41,5.366,5.374,5.375c0.989,0,1.792,0.802,1.792,1.792L42.994,34.155L42.994,34.155z"/>
		<circle fill="#555555" cx="26.872" cy="12.658" r="5.374"/>
		<path fill="#555555" d="M39.411-35.71H89.57v3.583H39.411V-35.71z"/>
		<path fill="#555555" d="M0-21.379h3.583v68.075H0V-21.379z"/>
		<path fill="#555555" d="M32.425-14.213H21.318c-0.722,3.517-3.47,6.265-6.986,6.986v39.768c3.517,0.725,6.264,3.473,6.986,6.987
			h11.106c0.723-3.516,3.47-6.264,6.986-6.987V-7.227C35.895-7.948,33.147-10.697,32.425-14.213L32.425-14.213z M26.872,21.615
			c-4.947,0-8.958-4.01-8.958-8.957s4.01-8.957,8.958-8.957c4.946,0,8.957,4.01,8.957,8.957
			C35.823,17.602,31.816,21.609,26.872,21.615z"/>
		<path fill="#555555" d="M76.506,36.036c-0.697,0.698-1.833,0.698-2.533,0l-6.334-6.333l-2.531,2.534L75.24,42.372l17.734-17.736
			l-2.533-2.533L76.506,36.036z"/>
		<path fill="#555555" d="M98.527-46.458H30.454c-0.989,0-1.791,0.802-1.791,1.791v19.706h19.706c0.989,0,1.791,0.802,1.791,1.792
			v71.657c0,0.988-0.802,1.79-1.791,1.79H28.663v1.791c0,0.988,0.802,1.792,1.791,1.792h68.073c0.99,0,1.791-0.804,1.791-1.792
			v-96.736C100.318-45.657,99.518-46.458,98.527-46.458z M37.62-28.544c-0.99,0-1.792-0.802-1.792-1.792v-7.165
			c0-0.99,0.802-1.792,1.792-1.792h53.741c0.99,0,1.793,0.802,1.793,1.792v7.165c0,0.989-0.803,1.792-1.793,1.792H37.62z
			 M71.657,3.701V0.118h21.497v3.583H71.657z M93.154,10.867v3.583H71.657v-3.583H93.154z M71.657-7.048v-3.583h21.497v3.583H71.657
			z M71.657-17.796v-3.583h21.497v3.583H71.657z M60.908,3.701V0.118h7.166v3.583H60.908z M68.074,10.867v3.583h-7.166v-3.583
			H68.074z M60.908-7.048v-3.583h7.166v3.583H60.908z M60.908-17.796v-3.583h7.166v3.583H60.908z M96.773,25.904L76.506,46.169
			c-0.697,0.701-1.833,0.701-2.533,0L61.307,33.503c-0.699-0.699-0.699-1.832,0-2.532l5.065-5.066c0.698-0.699,1.834-0.699,2.532,0
			l6.334,6.333l13.935-13.934c0.7-0.7,1.834-0.7,2.533,0l5.067,5.065c0.701,0.699,0.701,1.834,0.002,2.533
			C96.773,25.903,96.773,25.903,96.773,25.904z"/>
	</g>
</g>
<g id="Layer_7" display="none">
	<g display="inline">
		<path fill="#555555" d="M57.52,36.694V-2.403l-7.524,7.525L33.17-11.702c-0.446-0.445-0.872-0.906-1.278-1.382H0v49.778h5.859
			c0-6.863,5.583-12.447,12.447-12.447c6.864,0,12.448,5.583,12.448,12.447H57.52L57.52,36.694z"/>
		<path fill="#555555" d="M73.637,17.662V2.289H63.379v34.405h5.857c0-6.863,5.584-12.447,12.445-12.447
			c6.865,0,12.449,5.584,12.449,12.447h5.855V21l-7.229-3.337L73.637,17.662L73.637,17.662z"/>
		<path fill="#555555" d="M85.525,2.29h-6.032v9.515h9.657L85.525,2.29z"/>
		<circle fill="#555555" cx="18.306" cy="36.694" r="6.588"/>
		<circle fill="#555555" cx="81.684" cy="36.694" r="6.588"/>
		<circle fill="#555555" cx="49.995" cy="-28.525" r="4.757"/>
		<path fill="#555555" d="M37.313-15.844L49.995-3.163l12.68-12.681c3.388-3.387,5.253-7.891,5.253-12.681
			c0-9.891-8.045-17.935-17.933-17.935c-9.889,0-17.934,8.044-17.934,17.935C32.061-23.734,33.926-19.231,37.313-15.844
			L37.313-15.844z M39.378-28.524c0-5.854,4.763-10.616,10.616-10.616c5.854,0,10.615,4.763,10.615,10.616
			c0,5.853-4.762,10.615-10.615,10.615C44.141-17.908,39.378-22.67,39.378-28.524L39.378-28.524z"/>
	</g>
</g>
<g id="Layer_8" display="none">
	<path display="inline" fill="#555555" d="M60.982-31.041c-12.052,0-21.856,9.805-21.856,21.857
		c0,12.052,9.805,21.856,21.856,21.856c12.053,0,21.857-9.805,21.857-21.856C82.84-21.237,73.036-31.041,60.982-31.041z
		 M60.484-11.084l1.988,0.62c2.096,0.655,3.506,2.572,3.506,4.77v0.674c0,2.396-1.699,4.405-3.955,4.887v0.526
		c0,0.919-0.746,1.665-1.664,1.665c-0.922,0-1.668-0.745-1.668-1.665v-0.976c-1.604-0.832-2.705-2.509-2.705-4.438
		c0-0.92,0.746-1.666,1.664-1.666c0.922,0,1.668,0.746,1.668,1.666c0,0.918,0.746,1.665,1.664,1.665s1.664-0.747,1.664-1.665v-0.674
		c0-0.732-0.47-1.371-1.166-1.591l-1.988-0.621c-2.098-0.654-3.506-2.571-3.506-4.768v-0.674c0-2.171,1.394-4.022,3.332-4.709
		v-0.703c0-0.919,0.742-1.666,1.664-1.666c0.92,0,1.664,0.746,1.664,1.666v0.703c1.938,0.687,3.332,2.539,3.332,4.709
		c0,0.919-0.746,1.665-1.666,1.665s-1.666-0.746-1.666-1.665c0-0.918-0.746-1.665-1.664-1.665s-1.664,0.747-1.664,1.665v0.674
		C59.318-11.941,59.787-11.303,60.484-11.084z M76.329,53.265c-4.565-0.032-8.271-3.753-8.271-8.325V17.12
		c0-1.053-0.966-1.844-1.996-1.63C50.604,18.713,35.795,6.832,35.795-9.184c0-16.013,14.803-27.9,30.268-24.675
		c1.031,0.216,1.998-0.577,1.998-1.631v-1.173c0-3.679-2.982-6.661-6.66-6.661H7.276c-3.679,0-6.661,2.982-6.661,6.661V44.94
		c0,6.438,5.219,11.656,11.657,11.656h64.113c0.965,0,1.737-0.819,1.662-1.801C77.979,53.92,77.209,53.271,76.329,53.265
		L76.329,53.265z M16.852-18.968h14.155c0.919,0,1.666,0.746,1.666,1.666c0,0.919-0.747,1.666-1.666,1.666H16.852
		c-0.92,0-1.666-0.746-1.666-1.666C15.186-18.223,15.932-18.968,16.852-18.968z M16.852-0.233h14.155
		c0.919,0,1.666,0.746,1.666,1.666c0,0.919-0.747,1.665-1.666,1.665H16.852c-0.92,0-1.666-0.745-1.666-1.665
		C15.186,0.512,15.932-0.233,16.852-0.233z M51.824,39.318H16.852c-0.92,0-1.666-0.748-1.666-1.667s0.746-1.664,1.666-1.664h34.972
		c0.92,0,1.662,0.745,1.662,1.664S52.744,39.318,51.824,39.318z M51.824,21.833H16.852c-0.92,0-1.666-0.747-1.666-1.666
		c0-0.92,0.746-1.666,1.666-1.666h34.972c0.92,0,1.662,0.746,1.662,1.666C53.486,21.086,52.744,21.833,51.824,21.833z
		 M88.038,42.436c0.006,4.604-3.726,8.333-8.32,8.333c-4.594,0-8.321-3.724-8.321-8.319c0-15.383-0.012-21.375,0-23.749
		c0.004-0.917,0.75-1.656,1.666-1.656h8.319c3.458,0,6.298,2.631,6.63,5.999L88.038,42.436z"/>
</g>
<g id="Layer_9" display="none">
	<g id="surface1" display="inline">
		<path fill="#555555" d="M2.924,33.808h2.924c3.23,0,5.848-2.619,5.848-5.851V-7.13c0-3.229-2.618-5.848-5.848-5.848H2.924
			C1.31-12.979,0-11.669,0-10.054v40.936C0,32.499,1.31,33.808,2.924,33.808z"/>
		<path fill="#555555" d="M17.544-7.13v35.088c0,0.59-0.09,1.154-0.173,1.722l17.062,8.434c2.019,1.008,4.281,1.543,6.537,1.543
			c0.897,0,26.414,0,26.414,0c2.173,0,4.298-0.602,6.147-1.746l23.941-16.925c2.577-1.941,3.104-5.614,1.168-8.192
			c-1.756-2.341-5.158-3.354-8.188-1.167l-17.999,10.15c-0.419,0.221-0.884,0.334-1.358,0.334c-1.055,0-34.728,0-33.473,0
			c-1.617,0-2.924-1.307-2.924-2.924c0-1.615,1.307-2.924,2.924-2.924h26.9c3.23,0,5.85-2.619,5.85-5.849s-2.618-5.849-5.85-5.849
			H50.789l-13.86-9.24c-2.407-1.608-5.212-2.456-8.11-2.456L17.544-7.13L17.544-7.13z"/>
	</g>
	<path display="inline" fill="#555555" d="M67.064-43.323c-11.347,0-20.579,9.231-20.579,20.579S55.718-2.165,67.064-2.165
		c11.349,0,20.58-9.23,20.58-20.579C87.645-34.092,78.413-43.323,67.064-43.323z M69.227-13.389v0.452
		c0,1.19-0.967,2.158-2.158,2.158s-2.158-0.967-2.158-2.158v-0.208c-0.995-0.174-1.903-0.546-3.051-1.297
		c-0.998-0.653-1.276-1.991-0.625-2.988c0.654-0.998,1.99-1.277,2.988-0.625c1.051,0.688,1.393,0.741,2.832,0.73
		c1.389-0.009,1.941-1.098,2.049-1.74c0.099-0.577-0.011-1.345-1.082-1.724c-1.643-0.582-3.576-1.319-4.932-2.381
		c-2.972-2.331-2.061-7.639,1.819-9.05v-0.313c0-1.191,0.967-2.158,2.159-2.158c1.19,0,2.158,0.966,2.158,2.158v0.178
		c1.431,0.422,2.431,1.312,2.431,1.312c0.872,0.808,0.928,2.166,0.125,3.042c-0.804,0.877-2.165,0.938-3.043,0.138
		c-0.56-0.412-1.406-0.591-2.302-0.319c-0.578,0.174-0.733,0.771-0.767,0.95c-0.069,0.372,0.029,0.623,0.082,0.665
		c0.879,0.688,2.634,1.327,3.709,1.708C75.15-22.845,74.457-15.279,69.227-13.389L69.227-13.389z"/>
</g>
<g id="Layer_10" display="none">
	<path display="inline" fill="#555555" d="M35.934,28.542h-1.478c-1.383,0-2.653-0.866-3.065-2.184
		c-0.498-1.602,0.337-3.271,1.859-3.855l23.438-9.013c1.646-0.635,2.438-2.499,1.758-4.128C49.2-12.798,46.887-40.13,46.861-40.451
		c-0.238-2.938-4.071-3.944-5.716-1.481l-4.517,6.775l-6.772-4.517c-1.793-1.196-4.242-0.255-4.765,1.843l-2.051,8.197l-5.682-3.789
		c-1.793-1.196-4.241-0.257-4.765,1.842l-2.051,8.195l-5.682-3.79c-2.164-1.443-5.054,0.249-4.85,2.844
		c0.062,0.811,1.606,20.086,7.469,39.708c3.491,11.688,7.806,21.048,12.826,27.819c3.521,4.748,8.918,7.221,14.372,7.221h1.09
		c6.001,0,11.011-4.768,11.102-10.767C46.963,33.54,42.02,28.542,35.934,28.542L35.934,28.542z M15.847-4.668
		c-0.641-1.603,0.137-3.419,1.743-4.062l15.624-6.25c1.6-0.643,3.417,0.138,4.062,1.743c0.639,1.6-0.14,3.417-1.743,4.062
		c-16.919,6.767-15.92,6.472-16.784,6.472C17.511-2.703,16.337-3.447,15.847-4.668z M23.033,9.574
		c-1.58,0.63-3.411-0.123-4.062-1.743c-0.641-1.603,0.138-3.42,1.743-4.062l15.622-6.25c1.602-0.643,3.419,0.14,4.062,1.743
		c0.642,1.6-0.138,3.418-1.741,4.062L23.033,9.574z M84.363,9.795c-0.813,0,0.801-0.529-21.79,8.159
		c-0.027-0.046-15.113,5.778-15.087,5.77c-1.112,0.426-1.35,1.882-0.441,2.654c9.506,8.073,7.533,23.229-3.716,28.613
		c-0.839,0.401-0.559,1.671,0.373,1.673c2.595,0.005,5.085-0.628,7.26-1.765l33.692-13.875c0.643-0.058,1.229-0.311,1.695-0.696
		c9.133-3.757,8.703-3.479,9.322-4.131C105.113,26.302,98.041,9.795,84.363,9.795z"/>
	<path display="inline" fill="#555555" d="M80.325-6.743c-1.22,1.217-5.035,1.215-6.248,0c-1.222-1.221-3.198-1.221-4.419,0
		c-1.223,1.22-1.223,3.199,0,4.419c1.309,1.311,3.188,2.201,5.333,2.563v3.307c0,1.728,1.397,3.125,3.125,3.125
		c1.725,0,3.122-1.397,3.122-3.125v-3.769c8.201-2.785,7.967-13.766,0.472-16.871l-4.797-1.989
		c-2.497-1.032-2.944-5.491,2.118-5.491c1.527,0,2.67,0.459,3.125,0.915c1.221,1.222,3.197,1.222,4.419,0
		c1.219-1.221,1.219-3.198,0-4.419c-1.312-1.31-3.188-2.203-5.334-2.563v-3.308c0-1.725-1.4-3.125-3.125-3.125
		c-1.728,0-3.125,1.4-3.125,3.125v3.77c-8.13,2.764-8.03,13.741-0.472,16.873l4.801,1.987C81.12-10.576,81.779-8.199,80.325-6.743z"
		/>
</g>
<g id="Layer_11" display="none">
	<path display="inline" fill="#555555" d="M46.829,46.269c-3.218-0.004-6.035-2.16-6.877-5.268
		c-0.029-0.106-0.029-0.215-0.051-0.322L20.305,30.091c-0.531-0.305-1.132-0.464-1.743-0.462c-0.229,0-0.457,0.021-0.682,0.063
		c-0.308,0.054-0.608,0.149-0.889,0.288c-0.64,0.304-1.173,0.796-1.528,1.41c-0.31,0.542-0.474,1.153-0.477,1.778
		c-0.009,1.272,0.667,2.452,1.769,3.088l32.431,19.406c0.85,0.531,1.833,0.813,2.833,0.814h25.064
		c0.67-0.001,1.332-0.128,1.957-0.373l6.531-2.58V34.361l-6.359-3.808c-0.828-0.496-1.775-0.76-2.742-0.76h-6.818
		c-1.086,0-2.166,0.144-3.215,0.424l-20.534,5.493c-1.441,0.399-2.484,1.648-2.62,3.139v0.582c0.012,0.223,0.046,0.441,0.103,0.657
		c0.423,1.552,1.834,2.625,3.442,2.62c0.216-0.018,1.263-0.23,2.074-0.418l18.421-4.93l0.918,3.438L49.76,45.744
		C48.799,46.002,47.819,46.178,46.829,46.269z"/>
	<path display="inline" fill="#555555" d="M89.131,28.017h10.672v28.462H89.131V28.017z"/>
	<path display="inline" fill="#555555" d="M0.186-43.139h10.673v32.02H0.186V-43.139z"/>
	<path display="inline" fill="#555555" d="M20.487-15.146c2.428,1.611,5.25,2.531,8.161,2.661v-8.597
		c-1.314-0.479-2.542-1.169-3.636-2.042l-1.042-0.845l2.241-2.764l1.032,0.835c3.525,2.817,8.55,2.743,11.99-0.178l1.245-1.066
		l10.495,10.495c1.396,1.39,3.654,1.386,5.045-0.011c1.392-1.396,1.387-3.654-0.01-5.045L43.454-34.268l2.515-2.516l4.318,4.317
		h14.678l-7.025-7.027c-2.33-2.342-5.502-3.655-8.806-3.646H26.769c-0.828,0-1.644,0.193-2.385,0.563l-3.989,1.994
		c-1.333,0.665-2.812,0.985-4.301,0.933l-1.677-0.061v23.253h4.091L20.487-15.146z"/>
	<path display="inline" fill="#555555" d="M32.206-20.335v30.563h67.597v-39.136H53.844l3.559,3.559h29.949v1.779
		c0,3.93,3.187,7.115,7.115,7.115h1.779v14.231h-1.779c-3.93,0-7.115,3.186-7.115,7.116V6.67H44.658V4.891
		c0-3.931-3.186-7.116-7.116-7.116h-1.779v-14.231h1.779c2.255-0.002,4.375-1.075,5.712-2.891l-3.035-3.035
		C37.844-20.841,35.029-20.122,32.206-20.335z"/>
	<path display="inline" fill="#555555" d="M53.502-12.063c-1.883,0.004-3.69-0.737-5.026-2.063l-2.684-2.687
		c-1.628,1.999-3.928,3.338-6.47,3.766v7.411c4.476,0.765,7.981,4.271,8.747,8.747h35.875c0.766-4.477,4.271-7.982,8.746-8.747
		v-7.411c-4.476-0.765-7.98-4.271-8.746-8.747H60.119c0.852,2.099,0.635,4.479-0.582,6.386c3.262-3.455,8.666-3.734,12.268-0.634
		c3.604,3.102,4.131,8.485,1.199,12.228c-2.93,3.742-8.285,4.518-12.158,1.761c-3.871-2.755-4.893-8.068-2.32-12.064
		C57.186-12.8,55.381-12.063,53.502-12.063z"/>
	<path display="inline" fill="#555555" d="M71.342-9.34c0,2.947-2.391,5.337-5.338,5.337s-5.336-2.39-5.336-5.337
		s2.389-5.336,5.336-5.336S71.342-12.287,71.342-9.34z"/>
</g>
<g id="Layer_12" display="none">
	<g display="inline">
		<g>
			<path fill="#555555" d="M82.52,21.33c-4.687,0-8.498,3.813-8.498,8.497c0,4.687,3.813,8.497,8.498,8.497
				c4.684,0,8.496-3.812,8.496-8.497C91.016,25.143,87.202,21.33,82.52,21.33z M82.52,32.325c-1.379,0-2.5-1.121-2.5-2.499
				s1.121-2.499,2.5-2.499c1.377,0,2.498,1.121,2.498,2.499S83.896,32.325,82.52,32.325z"/>
			<path fill="#555555" d="M81.704-13.99H67.023c-1.104,0-1.998,0.896-1.998,2v38.984c0,1.104,0.894,2,1.998,2h2.121
				c0.989,0,1.865-0.713,1.992-1.694c0.785-6.012,5.58-9.739,11.381-9.739s10.599,3.728,11.381,9.739
				c0.129,0.981,1.004,1.694,1.994,1.694h2.119c1.104,0,2-0.896,2-2V7.502c0-0.47-0.166-0.923-0.468-1.283L83.236-13.273
				C82.857-13.727,82.296-13.99,81.704-13.99z M69.023,2.004v-9.996c0-1.104,0.895-1.999,1.998-1.999h8.809
				c0.592,0,1.152,0.265,1.533,0.72l8.33,9.996c1.084,1.303,0.16,3.278-1.534,3.278H71.021C69.918,4.003,69.023,3.108,69.023,2.004z
				"/>
			<path fill="#555555" d="M2.049,28.995h5.119c0.99,0,1.867-0.713,1.995-1.695c0.784-6.011,5.58-9.739,11.38-9.739
				c5.801,0,10.597,3.729,11.38,9.739c0.128,0.982,1.004,1.695,1.995,1.695h25.109c1.104,0,2-0.896,2-2v-49.979
				c0-1.104-0.896-1.999-2-1.999H2.049c-1.105,0-1.999,0.896-1.999,1.999v49.979C0.05,28.098,0.944,28.995,2.049,28.995z"/>
			<path fill="#555555" d="M20.542,21.33c-4.686,0-8.497,3.813-8.497,8.497c0,4.687,3.811,8.497,8.497,8.497
				c4.684,0,8.497-3.812,8.497-8.497C29.039,25.143,25.226,21.33,20.542,21.33z M20.542,32.325c-1.378,0-2.499-1.121-2.499-2.499
				s1.121-2.499,2.499-2.499s2.499,1.121,2.499,2.499S21.92,32.325,20.542,32.325z"/>
		</g>
	</g>
</g>
<g id="Layer_12_copy">
	<g>
		<g>
			<path fill="#8D9498" d="M82.488,63.401c-4.686,0-8.498,3.813-8.498,8.497c0,4.686,3.813,8.496,8.498,8.496
				c4.684,0,8.496-3.812,8.496-8.496S87.172,63.401,82.488,63.401z M82.488,74.397c-1.379,0-2.5-1.121-2.5-2.499
				c0-1.379,1.121-2.499,2.5-2.499c1.377,0,2.498,1.12,2.498,2.499C84.986,73.276,83.865,74.397,82.488,74.397z"/>
			<path fill="#8D9498" d="M81.674,28.082H66.992c-1.104,0-1.998,0.896-1.998,2v38.984c0,1.104,0.895,2,1.998,2h2.121
				c0.99,0,1.865-0.714,1.992-1.694c0.785-6.012,5.58-9.74,11.381-9.74s10.6,3.729,11.381,9.74c0.129,0.98,1.004,1.694,1.994,1.694
				h2.119c1.104,0,2-0.896,2-2V49.574c0-0.471-0.166-0.923-0.467-1.283L83.205,28.799C82.826,28.344,82.266,28.082,81.674,28.082z
				 M68.992,44.075v-9.996c0-1.104,0.895-1.999,1.998-1.999h8.809c0.592,0,1.152,0.264,1.533,0.719l8.33,9.996
				c1.084,1.303,0.16,3.279-1.533,3.279H70.99C69.887,46.075,68.992,45.179,68.992,44.075z"/>
			<path fill="#8D9498" d="M2.018,71.066h5.119c0.99,0,1.867-0.714,1.995-1.695c0.784-6.011,5.58-9.74,11.38-9.74
				c5.801,0,10.597,3.729,11.38,9.74c0.128,0.981,1.004,1.695,1.995,1.695h25.109c1.105,0,2-0.896,2-2v-49.98
				c0-1.104-0.896-1.999-2-1.999H2.018c-1.105,0-1.999,0.896-1.999,1.999v49.981C0.019,70.17,0.913,71.066,2.018,71.066z"/>
			<path fill="#8D9498" d="M20.511,63.401c-4.686,0-8.497,3.813-8.497,8.497c0,4.686,3.811,8.496,8.497,8.496
				c4.684,0,8.497-3.812,8.497-8.496S25.195,63.401,20.511,63.401z M20.511,74.397c-1.378,0-2.499-1.121-2.499-2.499
				c0-1.379,1.121-2.499,2.499-2.499s2.499,1.12,2.499,2.499C23.01,73.276,21.889,74.397,20.511,74.397z"/>
		</g>
	</g>
</g>
<g id="Layer_13">
	<g>
		<g>
			<polygon fill="#FCFCFC" points="23.195,27.626 17.565,45.079 35.018,39.449 			"/>
		</g>
	</g>
	<g>
		<g>
			<polygon fill="#FCFCFC" points="23.197,27.689 50.243,0.577 62.006,12.364 34.956,39.477 			"/>
		</g>
	</g>
</g>
<g id="Layer_13_copy">
	<g>
		<g>
			<polygon fill="#8D9498" points="23.49,29.698 18.969,43.714 32.985,39.193 			"/>
		</g>
	</g>
	<g>
		<g>
			
				<rect x="25.232" y="14.8" transform="matrix(0.7071 -0.7071 0.7071 0.7071 -3.3055 35.3631)" fill="#8D9498" width="31.606" height="13.743"/>
		</g>
	</g>
	<g>
		<g>
			<path fill="#8D9498" d="M62.043,7.487l-6.764-6.763c-0.965-0.966-2.414-0.966-3.381,0l-2.172,2.175l10.143,10.143l2.174-2.174
				C63.01,9.902,63.01,8.453,62.043,7.487z"/>
		</g>
	</g>
</g>
</svg>
